<svg xmlns="http://www.w3.org/2000/svg" xmlns:xlink="http://www.w3.org/1999/xlink" viewBox="0 0 1366 749.99"><defs><style>.cls-1{fill:url(#New_Gradient_Swatch_1);}.cls-2{fill:#0071bc;opacity:0.3;}</style><linearGradient id="New_Gradient_Swatch_1" x1="-10.7" y1="431.24" x2="1560.02" y2="302.19" gradientUnits="userSpaceOnUse"><stop offset="0" stop-color="#28abe3"/><stop offset="0.75" stop-color="#0071bc"/></linearGradient></defs><title>bg-home</title><g id="Layer_2" data-name="Layer 2"><path class="cls-1" d="M1366,154.7V735c-27.22-3-64.09-4.12-114-1.27-84.1,4.8-193.27,12.1-310.33,16.27-129.3,4.62-268.23,5.43-393.67-5.17-231.78-19.57-297.09-30.61-548,6.49V18.13C28.69,11.79,67.21,8,71.37,7.65c117.83-10.26,241.37-4.76,352.22,40C538.15,93.86,627.51,182.7,732.91,244.68c128.44,75.53,289.65,127.49,432.51,55.52C1237.94,263.66,1311.4,216.86,1366,154.7Z" transform="translate(0 -3.25)"/></g><g id="Layer_3" data-name="Layer 3"><path class="cls-2" d="M1366,154.7V735c-27.22-3-64.09-4.12-114-1.27-84.1,4.8-193.27,12.1-310.33,16.27C721.06,642.55,601.53,436,446,234,297.18,40.69,88.93,25.68,0,29.18v-11C28.69,11.79,67.21,8,71.37,7.65c117.83-10.26,241.37-4.76,352.22,40C538.15,93.86,627.51,182.7,732.91,244.68c128.44,75.53,289.65,127.49,432.51,55.52C1237.94,263.66,1311.4,216.86,1366,154.7Z" transform="translate(0 -3.25)"/></g></svg>