<svg id="Layer_2" data-name="Layer 2" xmlns="http://www.w3.org/2000/svg" viewBox="0 0 1355.52 761.16"><defs><style>.cls-1{fill:#f57d20;}.cls-2{fill:none;}</style></defs><title>bg-orange</title><path class="cls-1" d="M1355.52,520.26v240.9H0V648.35c71-27.06,204.83-55.14,413.35-12.16l16.75,3.43C644.92,683.17,713.69,682,844.3,639c61.76-20.32,137.35-50,248.76-88.7C1213.33,508.54,1297.2,505.77,1355.52,520.26Z" transform="translate(0)"/><path class="cls-2" d="M1355.52,542.37V761.16H0V653.48c64.51-24.39,199.45-55.43,419.28-15.8l10.82,1.94c216.45,38.61,282.95,37.53,414.2-.59,59.69-17.34,132.77-42.35,239.44-74.76C1212.2,525.23,1298.19,526,1355.52,542.37Z" transform="translate(0)"/><rect class="cls-2" width="1355.52" height="761.16"/></svg>