<svg id="Layer_5" data-name="Layer 5" xmlns="http://www.w3.org/2000/svg" xmlns:xlink="http://www.w3.org/1999/xlink" viewBox="0 0 1366 763"><defs><style>.cls-1{fill:url(#New_Gradient_Swatch_1);}.cls-2{opacity:0.37;fill:url(#linear-gradient);}</style><linearGradient id="New_Gradient_Swatch_1" y1="381.75" x2="1366" y2="381.75" gradientUnits="userSpaceOnUse"><stop offset="0" stop-color="#28abe3"/><stop offset="0.75" stop-color="#0071bc"/></linearGradient><linearGradient id="linear-gradient" x1="0.5" y1="523.09" x2="1366.5" y2="523.09" gradientUnits="userSpaceOnUse"><stop offset="0" stop-color="#1b1464"/><stop offset="1" stop-color="#0071bc"/></linearGradient></defs><title>1</title><path class="cls-1" d="M1366,.5V763H0V526.1l2.14-1C75.24,478.57,202.53,421.73,370,441c272,31.24,361,116.56,508-87.72C1020,155.93,1142.4,10.18,1366,.5Z"/><path class="cls-2" d="M1366.5,283.68V762.5H.5V525.6l1.79-.78.51-.22c125.58-51.74,272.26-34.66,401.48-7.83,77.07,16,150.41,44.27,227.59,60.43,135.94,28.47,312.54,35.28,418.23-71.84C1158.14,395.84,1221.75,293,1366.5,283.68Z"/></svg>