<svg id="OBJECTS" xmlns="http://www.w3.org/2000/svg" viewBox="0 0 479.05 489.63"><defs><style>.cls-1{fill:#dde0ff;}.cls-2{fill:#f3cfc4;}.cls-3{fill:#fff;}.cls-4{fill:#5436ef;}.cls-5{fill:#7c65f3;}.cls-6{fill:#5d41f0;}.cls-7{fill:#f33574;}.cls-8{fill:#f1c8bc;}.cls-9{fill:#f5598d;}.cls-10{fill:#4929ee;}.cls-11{fill:#7f8bff;}.cls-12{fill:#7056f2;}.cls-13{fill:#5564ff;}.cls-14{fill:#b7beff;}.cls-15{fill:#c5caff;}.cls-16,.cls-20{fill:none;stroke-linecap:round;stroke-linejoin:round;}.cls-16{stroke:#909aff;}.cls-17{fill:#909aff;}.cls-18{fill:#e39077;}.cls-19{fill:#fed2be;}.cls-20{stroke:#7056f2;}</style></defs><title>counciling_ill</title><path class="cls-1" d="M57.3,482.22h.13c21.49-2.56,41.83-9.11,63.56-10.62,9.84-.69,20.43-1.61,28.92-6.46,6.6-3.76,13.64-11.76,2.92-15.48-8.91-3.1-18.9-3.07-28.31-3.71-11.19-.77-22.43-1.85-33.62-.58-12.75,1.44-24.59,6.31-37.33,7.79C46.28,454,39,454.61,31.82,456c-8.26,1.55-34.09,6.94-22.56,18.32C19.55,484.43,43.5,483.85,57.3,482.22Z" transform="translate(-6.34 -6.36)"/><path class="cls-1" d="M203,468.93c3.65.8,7.39,1.11,10.3,1.65,10.2,1.9,20.53,3.88,29.81,9.57,14.76,9.06,30,16,46.8,15.84,13.94-.09,27.41-4.12,41.08-6.9,18.15-3.68,37-4.12,54.91-9.11,4.36-1.21,8.74-3,10.56-6,3.38-5.43-3.75-11.29-11.44-14.16-15-5.59-33.27-5.68-50.35-4.27-7.8.65-15.6,1.58-23.46,1.4-30.84-.71-59-11.94-90.77-11.37-8.31.15-18.81.11-26.32,4.85-4,2.54-5.79,5.75-3.2,10.79C193.3,465.9,198.08,467.86,203,468.93Z" transform="translate(-6.34 -6.36)"/><polygon class="cls-2" points="88.12 416.22 87.68 441.56 101.44 440.44 104 414.46 88.12 416.22"/><path class="cls-3" d="M122.78,456.78c2.81-.37,4.91.69,5.82,2.24s-1.21,6.54-6.69,7.88c-6.8,1.67-10.42,1.23-13.91.48-5.92-1.26-8.88-5.38-12.77-5.09s-6.82-1.64-6.53-4.93,3-6,4.07-6.06S122.78,456.78,122.78,456.78Z" transform="translate(-6.34 -6.36)"/><path class="cls-4" d="M112.74,445.37c-.73-1.39-3.3-4.25-4.61-4.23-8.56.14-6.38,3.82-8.69,4.42-3.53.91-4.83-.22-5.46-2,0,0-1.67-.68-1.76,1.49s-2,2.1-2.16,6.09,3.5,7.86,8.06,8.65,9,5.29,16.12,5.67c8.84.47,13-1.63,14-4.59s-2.34-6-9.09-9.9C113.64,447.75,113.55,446.9,112.74,445.37Z" transform="translate(-6.34 -6.36)"/><path class="cls-5" d="M76.94,236.69s7.31,62.91,8,76.26c.31,6.45,4.14,22.94,5.32,51.57,1.25,30.61,3.36,71.58,3.36,71.58s15.31,2.43,15.31,2c0-.27,8.33-50.5,13-83.27,3.62-25.25,3.48-47.66,4.69-64.91,2.32-32.88-.53-81.89-.53-81.89l-27-11.77Z" transform="translate(-6.34 -6.36)"/><path class="cls-6" d="M97.08,384.63c1.81-22.09,4.75-43.63,1.81-65.8-3.1-23.37,5.36-67.08.11-89.88-1.3-5.61-20.15,11-20.76,5.36l-1.3,2.38s7.31,62.91,8,76.26c.31,6.45,4.14,22.94,5.32,51.57,1.25,30.61,3.36,71.58,3.36,71.58l2.08.32A403.36,403.36,0,0,1,97.08,384.63Z" transform="translate(-6.34 -6.36)"/><polygon class="cls-2" points="39.71 421.88 39.27 447.23 53.03 446.1 55.59 420.13 39.71 421.88"/><path class="cls-5" d="M109.41,192.26s-2.11,9.67-5.09,23.26c-4.88,22.31-12.1,55.16-16.16,72.94-2.83,12.42-8.19,42.43-13.35,72.43-6.74,39.1-13.13,78.17-13.13,78.17l-11.24.43-6.72.61s.75-52.51-.36-112.47c-.51-27.76-4.11-63.3-4.06-77.39.16-44.49,13.35-70.48,13.35-70.48Z" transform="translate(-6.34 -6.36)"/><path class="cls-6" d="M109.41,192.26s-2.11,9.67-5.09,23.26c-17.79,2.81-37.4,5.24-44.22,5.24-10.65,0-5.73,47.38-2.46,73.62S56,355.29,51.1,378.14c-3.71,17.27-1.82,47.56-.66,61.35l-6.72.61s.75-52.51-.36-112.47c-.51-27.76-4.11-63.3-4.06-77.39.16-44.49,13.35-70.48,13.35-70.48Z" transform="translate(-6.34 -6.36)"/><path class="cls-3" d="M74.37,462.44c2.81-.37,4.91.69,5.82,2.25s-1.21,6.53-6.69,7.87c-6.8,1.67-10.42,1.23-13.91.49-5.92-1.27-8.88-5.39-12.77-5.1S40,466.31,40.3,463s3-6,4.06-6.06S74.37,462.44,74.37,462.44Z" transform="translate(-6.34 -6.36)"/><path class="cls-4" d="M64.33,451c-.73-1.39-3.3-4.25-4.61-4.23-8.56.14-6.38,3.82-8.69,4.42-3.53.91-4.82-.21-5.46-2,0,0-1.67-.68-1.76,1.49s-1.94,2.11-2.16,6.1,3.5,7.86,8.06,8.64,9,5.29,16.12,5.67c8.84.48,13-1.63,14-4.58s-2.34-6-9.09-9.91C65.23,453.41,65.14,452.56,64.33,451Z" transform="translate(-6.34 -6.36)"/><path class="cls-7" d="M149.13,97.74c1.87-3.76,3.46-12.82,3.46-12.82l13.49,5.31c3.23,11.42,27.08,56,31.94,63.06,2.25,3.26,49.9,27.77,49.9,27.77l-2.44,14.32s-44.81-7.06-65.83-20.43c-5.9-3.75-7.6-9.1-11.3-14.12C162,152.28,147,137.31,143.72,123S144.59,106.86,149.13,97.74Z" transform="translate(-6.34 -6.36)"/><path class="cls-8" d="M136.14,41.76s-.5,1.63-3.5,6.77-8.86,10.74-10.94,11.84-12.23,4.15-14.8,4.32c0,0,9.56,29.78,24.11,36.05,27.83,12,24.87-19.47,24.87-19.47s-7.16-8.25-9-12.54C145.7,66.18,149,56.41,149,56.41Z" transform="translate(-6.34 -6.36)"/><path class="cls-3" d="M149,72.74S148.11,86,133.93,84.2C116.78,82,115.75,62.43,115.75,62.43L98.16,65.52l12.11,38.74,36.26,10.53,12.17-33.5Z" transform="translate(-6.34 -6.36)"/><path class="cls-9" d="M140.65,170c3.54-9.26,25.43-79.8,25.43-79.8L150,70.69s-1.12,35.81-17.31,36.16c-22.09-9-23.1-43.27-23.1-43.27L81.3,69.51S65.88,118.8,59.57,137.64s-15,64.86-15,64.86c39.21,16,76.6,13.51,85.34,8.29C129.92,210.79,137.11,179.3,140.65,170Z" transform="translate(-6.34 -6.36)"/><path class="cls-8" d="M168.8,25.1c2,2.4,5.3,7.18,4.75,9.8s-1.79,10.43-3.39,14.73-5,15.63-7.16,20.56-3.41,6.49-4.86,7-14.19-3.76-16.32-5.8S130.39,59.35,134,48.49c0,0-5.36.87-6.29-10.17-.24-2.88,10.93-10.26,12.81-13,4.58-6.59,18.41-.23,22.47.4S168.8,25.1,168.8,25.1Z" transform="translate(-6.34 -6.36)"/><path class="cls-10" d="M173.55,34.9s-.44-3.91-3.7-3.3-9.56-.3-14.07-2.06a33.1,33.1,0,0,1-8.39-5.11s-1.92,6.78-3.68,8.25-5.23,2.8-6,5A32.89,32.89,0,0,0,136.43,42s-1.75-4.71-4.27-4.68-3.66,4.08-1.87,6.61A41.64,41.64,0,0,0,134,48.49l1.06,16.83s-6.12-20.13-7.4-27.4c-1.8-10.2.17-20.87,5.46-21.78,0,0,3.11-11,14.87-9.66s30.24,14,30.74,20.23C179.16,31.73,173.55,34.9,173.55,34.9Z" transform="translate(-6.34 -6.36)"/><path class="cls-10" d="M163.49,63.21c-1.44-1.21-3.64-2.19-7.31-2.69-4.22-.58-8.22.47-11.09.4s-7.34-6.33-7.1-12.63S139,36,139,36l-2.53,1.43s-1.77,11-3.35,17.33a20.49,20.49,0,0,0,5.79,19.69c5.89,5.76,16.49,7.17,19,5.74s4.43-5.4,5.54-9.1A42.63,42.63,0,0,0,165,65.67,4.6,4.6,0,0,0,163.49,63.21Z" transform="translate(-6.34 -6.36)"/><path class="cls-10" d="M161.9,39.92a8.2,8.2,0,0,0-7,0c-1.2.55-1.08,1.59.17,1.15a10,10,0,0,1,6.51.22C162.74,41.73,163.09,40.4,161.9,39.92Z" transform="translate(-6.34 -6.36)"/><path class="cls-10" d="M172.72,45.35c.24-.32-.11-1-.55-1.38a4.76,4.76,0,0,0-2.84-1.4c-.6,0-.59.87-.15,1C172,44.78,172.33,45.87,172.72,45.35Z" transform="translate(-6.34 -6.36)"/><path class="cls-10" d="M158.67,48.58a2,2,0,0,0-.95-2.5,1.84,1.84,0,0,0-2.42,1,2,2,0,0,0,.95,2.5A1.83,1.83,0,0,0,158.67,48.58Z" transform="translate(-6.34 -6.36)"/><path class="cls-10" d="M169.07,49.66a1.47,1.47,0,0,0-2.23,1.07v.09a1.55,1.55,0,0,0,.69,1.5,1.44,1.44,0,0,0,1.6-.08l.07-.05A1.56,1.56,0,0,0,169.07,49.66Z" transform="translate(-6.34 -6.36)"/><path class="cls-10" d="M159.73,61.53c-.52-.52,2.57-.61,2.89-.7,2.11-.56.57-2.84.14-4A8.39,8.39,0,0,1,163,52.1c.16-.62,1-2.41,1.25-2.32a14.23,14.23,0,0,0-.92,3.38,9.24,9.24,0,0,0,1.14,4.48c.35.58,1.1,2,.61,3.21A1.92,1.92,0,0,1,163.58,62,5.05,5.05,0,0,1,159.73,61.53Z" transform="translate(-6.34 -6.36)"/><path class="cls-10" d="M146.91,42.72c0,.46,1,1,1.13,1.14.34.36.13.34.65,3.89.39,2.61,3,4.62,7.92,5,3.76.31,4.62-2.62,5.47-3.83s1.24-1.3,1.81-1.17.78.37.9,1.8-1.2,5,2.52,5.65c1.1.2,2.41-.54,3.57-2.23.8-1.16,1.56-2.61,1.81-3.06a7.32,7.32,0,0,0,1.06-2.62c.14-.81-1-1.39-3.23-1.79a6.25,6.25,0,0,0-3.08,0c-.87.28-1.51,1-3.09.58-.63-.18-.51-.67-1.64-1.59s-7.61-2.67-9.81-3.18-5.34-.94-5.64-.17A6.5,6.5,0,0,0,146.91,42.72Zm19.32,5.59c.25-1.12.83-1.72,3.13-1.3,3.54.66,3.33,1.53,1.43,4.76-1.32,2.23-1.95,3-3.09,2.87-1.81-.17-2-1.84-1.88-3.6A10.54,10.54,0,0,1,166.23,48.31ZM150.48,42.6c.6-.39,4.83,1,7.54,1.75s3.6,1,3.62,2.09a10.28,10.28,0,0,1-1.22,3.35c-.83,1.59-1.59,2.89-5.91,1.92-3-.69-4.91-2.46-5.09-5C149.26,44.5,149.89,43,150.48,42.6Zm-12.48-2,9.49,2.84L150,40.82s-8.27-2-9.17-2.37-5.37-.36-5.37-.36Z" transform="translate(-6.34 -6.36)"/><rect class="cls-11" x="245.75" y="384.55" width="7.62" height="52.37" transform="translate(492.78 815.11) rotate(180)"/><rect class="cls-1" x="243.44" y="373.44" width="12.26" height="11.12" transform="translate(492.78 751.63) rotate(180)"/><rect class="cls-1" x="243.44" y="431.36" width="12.26" height="11.12" transform="translate(492.78 867.48) rotate(180)"/><rect class="cls-11" x="234.71" y="352.39" width="29.71" height="21.04" transform="translate(492.78 719.47) rotate(180)"/><rect class="cls-11" x="209.61" y="346.1" width="82.89" height="15.76" rx="1.28" transform="translate(495.75 701.6) rotate(180)"/><polygon class="cls-11" points="213.69 446.74 237.09 434.75 237.09 426.39 210.62 444.73 213.69 446.74"/><path class="cls-11" d="M211.48,455.45a5.49,5.49,0,1,0,5.49-5.67A5.58,5.58,0,0,0,211.48,455.45Z" transform="translate(-6.34 -6.36)"/><path class="cls-11" d="M244.08,463.11a5.49,5.49,0,1,0,5.48-5.67A5.57,5.57,0,0,0,244.08,463.11Z" transform="translate(-6.34 -6.36)"/><polygon class="cls-11" points="272.75 446.74 249.35 434.75 249.35 426.39 275.82 444.73 272.75 446.74"/><path class="cls-11" d="M287.65,455.45a5.49,5.49,0,1,1-5.49-5.67A5.58,5.58,0,0,1,287.65,455.45Z" transform="translate(-6.34 -6.36)"/><rect class="cls-11" x="248.08" y="436.92" width="2.97" height="26.12" transform="translate(492.78 893.6) rotate(180)"/><path class="cls-12" d="M191.29,354.88s-6.9-19-7-74-11.61-92.6-10.61-97.33l5.63-5.63h77.06s30.36,56.13,34.34,75.36,9.55,98.07,9.55,98.07Z" transform="translate(-6.34 -6.36)"/><path class="cls-13" d="M198.23,354.88s-6.9-19-7-74-12.93-98.23-11.93-103h84s30.37,56.13,34.35,75.36,9.54,98.07,9.54,98.07Z" transform="translate(-6.34 -6.36)"/><polygon class="cls-12" points="184.94 348.52 203.26 361.06 203.26 339.31 184.94 326.78 184.94 348.52"/><rect class="cls-12" x="209.61" y="345.67" width="115.29" height="21.74" transform="translate(528.16 706.73) rotate(180)"/><polygon class="cls-13" points="184.94 326.78 300.23 326.78 318.55 339.31 203.26 339.31 184.94 326.78"/><path class="cls-12" d="M228.15,345.67H324.9l-18.33-12.53H215.22C218.31,338,223.5,342.15,228.15,345.67Z" transform="translate(-6.34 -6.36)"/><path class="cls-8" d="M325.6,447.84l2.34,15.06s2.65,5.67,9.07,5.39c3.41-.15,9.38-2.2,8.06-3.28-3.35-2.74-4.12-5.07-4.12-5.07l-1-18Z" transform="translate(-6.34 -6.36)"/><path class="cls-3" d="M356.69,471.67a5.81,5.81,0,0,1,5.54,1.76c1,1.29,1.79,4.47-4.09,6.65s-11.48.55-14.75,0c-5.53-.94-7.86-3.53-11.4-3.21s-6.4-1.23-6.44-4,2.19-5.07,3.16-5.17S356.69,471.67,356.69,471.67Z" transform="translate(-6.34 -6.36)"/><path class="cls-4" d="M344,461.7c-2.1-1.59-5.24.84-7.3,1.39-3.14.84-6.82-.44-7.57-1.95s-1.84-1.26-1.72.57-1.34,2.52-1.16,5.88,3.94,6.52,8.19,7.09,8.71,4.26,15.28,4.43c8.14.21,11.93-1.49,12.62-4s-3.7-5.22-9.52-8.25A68.07,68.07,0,0,1,344,461.7Z" transform="translate(-6.34 -6.36)"/><path class="cls-8" d="M288.64,455.65,291,470.71s2.65,5.67,9.07,5.39c3.37-.15,10.11-1.3,8.75-2.29-4.74-3.46-4.8-6.05-4.8-6.05l-1-18Z" transform="translate(-6.34 -6.36)"/><path class="cls-8" d="M249.71,133.35s0,10.51,1,15.36,3.06,8.4,4.2,9.56S268,168.52,268,168.52s-12.48,13.19-21.41,13.28-27.5-10.44-27.5-10.44,9.66-8.05,11.07-12.08,2.11-15.68,2.11-15.68Z" transform="translate(-6.34 -6.36)"/><path class="cls-3" d="M290.23,274.21c-2.38-8.7-4.44-17.11-4.44-20.92,0-9.59-4.52-80.76-4.52-80.76l-17.92-8.8-8.44-5.46s6.86,16.07-3.46,17.85C235,178.94,230,157.25,230,157.25l-4.18,2.22a1.14,1.14,0,0,0-.07-.21l-28,14.28s9.87,16.72,10.66,26.11-7.11,35.08-6.32,54.25,3.07,51.34,3.07,51.34c5.07,0,81.22-7.52,81.22-7.52S287.66,274.57,290.23,274.21Z" transform="translate(-6.34 -6.36)"/><path class="cls-12" d="M342,450.32l-13.5,2.23-4.72.78s-8.72-50.49-14.79-68.49-12.84-35-12.84-35S278,337.66,266.74,333.57a27.53,27.53,0,0,0-3-.94c-42.91-10.67-34.11-38.41-33.53-56.16,0,0,43.4,3.34,54.86,11.63,33.68,24.36,44.48,42.75,47.35,52.48,3.81,12.84,4.07,36.13,5.59,54.62C340.61,426.05,342,450.32,342,450.32Z" transform="translate(-6.34 -6.36)"/><path class="cls-4" d="M328.51,452.55l-4.72.78s-8.72-50.49-14.79-68.49-12.84-35-12.84-35S278,337.66,266.74,333.57c-8.74-16.63-16.9-26.07-16.9-26.07s29,13,42.55,20,21.27,13,24.17,35C319.21,382.44,327.44,419.75,328.51,452.55Z" transform="translate(-6.34 -6.36)"/><path class="cls-12" d="M303.67,457.77,289.49,461l-2.27.52s-17.56-91-36.19-110.92c-6.23-6.65-24.25-12.7-33.85-18-15.16-8.36-13.05-19.46-12.1-34.8.09-1.49.18-3,.23-4.61h47.4s31.69,36,35.86,45.77c3,7.1,7.88,16.91,10.38,35.79C303.67,410.49,303.67,457.77,303.67,457.77Z" transform="translate(-6.34 -6.36)"/><path class="cls-4" d="M289.49,461l-2.27.52s-17.56-91-36.19-110.92c-6.23-6.65-24.25-12.7-33.85-18-15.16-8.36-13.05-19.46-12.1-34.8,0,0,5,14.28,5.84,19.25,3.4,19.7,28.35,2.28,47.17,22.32s26.56,56,27.53,84C286,434.82,287.69,448.2,289.49,461Z" transform="translate(-6.34 -6.36)"/><path class="cls-3" d="M318.57,480.45a5.79,5.79,0,0,1,5.54,1.77c1,1.28-.49,5.51-5.38,6.75-6.07,1.54-9.43,1.25-12.69.7-5.54-.94-8.63-4.34-12.17-4s-6.4-1.23-6.44-4,2.19-5.07,3.16-5.18S318.57,480.45,318.57,480.45Z" transform="translate(-6.34 -6.36)"/><path class="cls-4" d="M306.29,470.63c-1.81-1.58-5.69.69-7.75,1.24-3.14.84-6.82-.44-7.57-1.95s-1.84-1.25-1.72.57-1.34,2.52-1.16,5.88,3.94,6.53,8.19,7.09,8.71,4.26,15.28,4.43c8.14.21,11.73-1.64,12.42-4.15s-2.71-5-9.25-8.13C309.36,473.06,307.45,471.64,306.29,470.63Z" transform="translate(-6.34 -6.36)"/><rect class="cls-14" x="144.1" y="297.72" width="341.3" height="8.57" transform="translate(623.15 597.66) rotate(180)"/><polygon class="cls-15" points="100.61 270.12 441.91 270.12 479.05 291.36 137.75 291.36 100.61 270.12"/><polygon class="cls-14" points="137.75 299.94 100.61 278.69 100.61 270.12 137.75 291.36 137.75 299.94"/><polygon class="cls-14" points="152.47 482.54 157.49 482.54 201.99 299.94 191.62 299.94 152.47 482.54"/><polygon class="cls-14" points="470.57 476.86 465.55 476.86 414.81 299.94 425.18 299.94 470.57 476.86"/><polygon class="cls-11" points="129.25 462.61 134.27 462.61 175.21 299.94 164.84 299.94 129.25 462.61"/><polygon class="cls-11" points="432.64 450.16 427.62 450.16 388.03 299.94 398.41 299.94 432.64 450.16"/><polygon class="cls-8" points="352.98 261.26 367.75 269.44 373.91 280.59 367.75 280.59 359.8 275.59 357.24 280.59 352.98 280.75 347.53 276.29 332.87 263.93 352.98 261.26"/><path class="cls-8" d="M313.59,236.79c-1.23-2.28-5.89-18.37-10.35-31.7-6.06,2.57-12.16,5-18.34,7.22.23,5.94.8,12,1.13,18,5.11,11.6,10.74,22.89,15.16,26.31,8,6.22,49,22.5,49,22.5l5.66-11.69S315.41,240.15,313.59,236.79Z" transform="translate(-6.34 -6.36)"/><path class="cls-3" d="M282.68,222.92c7.32,0,26-3.79,26-3.79s-9.08-24.92-11.34-29.45c-5.08-10.18-16.1-17.15-16.1-17.15s-6.92,9.92-9,13.38C264,199.8,278.33,216.72,282.68,222.92Z" transform="translate(-6.34 -6.36)"/><path class="cls-16" d="M283.66,190.61,285,221.27c.46,10.37.46,30.18,1.83,35.37" transform="translate(-6.34 -6.36)"/><polygon class="cls-15" points="277.07 276.87 365.56 276.87 322.63 262.72 234.14 262.72 277.07 276.87"/><polygon class="cls-11" points="234.14 262.72 277.07 276.87 277.07 282.2 234.14 268.05 234.14 262.72"/><polygon class="cls-8" points="258.21 256.82 271.17 257.21 285.69 254.04 300.84 262.72 307.43 268.23 303.96 269.79 299.85 266.96 300.84 270.12 295.12 269.79 292.81 268.23 292.81 270.12 288.42 271.33 283.99 268.23 274.53 266.56 264.3 265.57 258.21 256.82"/><path class="cls-8" d="M223.39,240.59c-2.68-4-3.75-12.58-4.82-28.64-8.28-2.61-20-4.92-28.14-7.85.63,28.32,8.7,53.52,17.06,59.68C219,272.3,275.13,272,275.13,272l2.38-8.43C257.08,260.65,228.09,247.64,223.39,240.59Z" transform="translate(-6.34 -6.36)"/><path class="cls-3" d="M219.77,224.9c-.9-9.07-1.34-23.8-.88-28.83,1.16-12.64-15-26.6-21.13-22.53-9.27,6.17-8.27,32.39-5.24,55.84C200.69,227,211.55,226.75,219.77,224.9Z" transform="translate(-6.34 -6.36)"/><rect class="cls-11" x="283.41" y="283.23" width="88.49" height="5.33" transform="translate(648.97 565.43) rotate(180)"/><polygon class="cls-17" points="280.87 265.84 288.11 268.16 303.49 160.38 299.2 162.7 280.87 265.84"/><polygon class="cls-11" points="288.11 268.16 420.83 263.52 439.85 158.06 303.49 160.38 288.11 268.16"/><polygon class="cls-1" points="350.31 282.71 371.19 282.71 357.13 280.1 336.26 280.1 350.31 282.71"/><rect class="cls-11" x="350.31" y="282.71" width="20.88" height="4.78"/><polygon class="cls-11" points="350.31 287.5 336.26 284.89 336.26 280.1 350.31 282.71 350.31 287.5"/><polygon class="cls-11" points="345.54 281.81 350.54 283.08 368.34 282.71 371.19 233.03 348.07 233.03 345.54 281.81"/><polygon class="cls-14" points="350.54 283.08 371.19 282.71 371.19 233.03 350.31 233.03 350.54 283.08"/><path class="cls-16" d="M192.52,229.38l27.25-4.48s.42-25.54.42-31.74" transform="translate(-6.34 -6.36)"/><path class="cls-8" d="M220.33,111.65c-3.48,6.56-2.35,13.39-1.54,17.7s1.74,7,1.42,12.56,1.17,13.75,7.81,18.17,19.13-1.42,22.7-8.79c2.17-4.48,5.84-14.74,6.46-18.51s2.68-16.36-2.18-21.49-13.29-5.11-21.83-3.42S221.8,108.88,220.33,111.65Z" transform="translate(-6.34 -6.36)"/><path class="cls-10" d="M238.76,116.78s3.46,6.19,7.57,7.82c3.52,1.4,3.46,10,3.46,10L255,135.8c.93,3.08-2.25,10.36-2.25,10.36a14.59,14.59,0,0,0,5-7.67c1.31-5,4.76-9.36,3.17-20-1.49-10-9.59-10.23-9.59-10.23s-.84-5.56-11.08-7.1-21.61,5.39-23.1,11.55a29,29,0,0,0,.24,12.61S238,121.59,238.76,116.78Z" transform="translate(-6.34 -6.36)"/><path class="cls-10" d="M235.4,126.21a8.22,8.22,0,0,1,6.83,1.68c1.05.82.69,1.8-.42,1.07a10.09,10.09,0,0,0-6.38-1.37C234.17,127.76,234.13,126.39,235.4,126.21Z" transform="translate(-6.34 -6.36)"/><path class="cls-10" d="M222.66,129.56c-.16-.37.32-.93.84-1.2a4.63,4.63,0,0,1,3.08-.67c.59.14.38,1-.09,1.05C223.54,129.19,222.92,130.16,222.66,129.56Z" transform="translate(-6.34 -6.36)"/><path class="cls-10" d="M234.38,133.36a1.93,1.93,0,0,1,1.49-2.2A1.85,1.85,0,0,1,238,132.7a2,2,0,0,1-1.5,2.2A1.85,1.85,0,0,1,234.38,133.36Z" transform="translate(-6.34 -6.36)"/><path class="cls-10" d="M225,131.81a1.5,1.5,0,0,1,1.92,1.58l0,.1a1.51,1.51,0,0,1-1,1.28,1.44,1.44,0,0,1-1.54-.46l-.06-.07A1.56,1.56,0,0,1,225,131.81Z" transform="translate(-6.34 -6.36)"/><path class="cls-10" d="M231.84,145.66c.62-.38-2.36-1.22-2.65-1.38-1.92-1.07.09-2.9.78-4a8.22,8.22,0,0,0,.87-4.59c0-.64-.43-2.59-.68-2.56a15.16,15.16,0,0,1,.12,3.5,9.07,9.07,0,0,1-2.13,4.08c-.47.48-1.53,1.72-1.33,3a2,2,0,0,0,1.18,1.46A5,5,0,0,0,231.84,145.66Z" transform="translate(-6.34 -6.36)"/><path class="cls-10" d="M229.49,149.14c2,1.36,4.88.89,7.72-1.87,0,0-1.28,3.27-3.55,3.95S229.49,149.14,229.49,149.14Z" transform="translate(-6.34 -6.36)"/><path class="cls-8" d="M253.25,129.42c2.13-3.24,6.63-3.27,7,.92.29,3.49-1.3,4.39-3.49,7.59a3,3,0,0,1-3.65,1.2S251.93,131.42,253.25,129.42Z" transform="translate(-6.34 -6.36)"/><path class="cls-18" d="M255.67,129.82c1.14-1.2,2.41-.28,2.92,1s0,.56-1.07-.07-1.85,1.41-1.62,2.63c.31,1.69-.07,3.87-1.49,4.14s-.73-.33-.71-2.15-.08,0,.19-1.81A5.78,5.78,0,0,1,255.67,129.82Z" transform="translate(-6.34 -6.36)"/><path class="cls-11" d="M147.13,222.38l13.14,11.13a6.16,6.16,0,0,0,7.88-.11l46.22-42.86a4.44,4.44,0,0,0-.22-6.85l-12.88-11.14c-4.31-2.42-6.92-2.5-9.07-.54l-46.11,42.43C143.93,216.42,143.65,218.35,147.13,222.38Z" transform="translate(-6.34 -6.36)"/><path class="cls-17" d="M148.31,223.53l13.25,11.24a6.17,6.17,0,0,0,7.91-.11l46.41-43a4.46,4.46,0,0,0-.23-6.88l-13-11.22a6.37,6.37,0,0,0-8.16,0L148,216.34A4.65,4.65,0,0,0,148.31,223.53Z" transform="translate(-6.34 -6.36)"/><path class="cls-19" d="M172.4,213.11l-1.13-.46,2.94-1.82.8-2.08-.89-.56,2.39-2.54,1-2.91s-6.45-.13-10.34-.28a37.57,37.57,0,0,1-7.55-1.16,41.21,41.21,0,0,0,4.19-3.68c.58-.83,3.41-2.35,3.41-2.35l-4.64-1.62s-11.29,4.9-12.46,4.95-7.51,3.15-16.52-1.59q-3.71,5.55-7.51,11c8,2.57,14.82,4.67,17.71,5.57,9.28,2.88,17.64,4.78,18.94,5s9.34-3.54,9.26-3.59A14.21,14.21,0,0,1,172.4,213.11Z" transform="translate(-6.34 -6.36)"/><path class="cls-7" d="M77.89,70.88c-14.61,9.87-8.23,58.58-5.8,70.56,2.89,14.21,6.57,27.36,14.82,37.94,18.68,24,47.93,33.43,47.93,33.43l8.1-13.78s-28.54-21.28-31.45-43.82c-1.71-13.29-6.79-51-8.48-61C100.43,78.87,85.38,65.83,77.89,70.88Z" transform="translate(-6.34 -6.36)"/><path class="cls-20" d="M228,160.08c3.36,17,10.32,37.72,12.37,42.43,4.38,10.06,13.39,11.57,16.31-2.52,3.92-18.93-.73-41.76-.73-41.76" transform="translate(-6.34 -6.36)"/><rect class="cls-12" x="233.24" y="205.99" width="18.75" height="29"/><rect class="cls-3" x="242.5" y="214.29" width="12.91" height="14.22" transform="translate(21.21 463.99) rotate(-90)"/><path class="cls-12" d="M248.91,213.67h0a1,1,0,0,1-.94-1V210a1,1,0,0,1,.94-1h0a1,1,0,0,1,.93,1v2.72A1,1,0,0,1,248.91,213.67Z" transform="translate(-6.34 -6.36)"/></svg>