<svg id="Layer_1" data-name="Layer 1" xmlns="http://www.w3.org/2000/svg" xmlns:xlink="http://www.w3.org/1999/xlink" viewBox="0 0 1174.88 612.59"><defs><style>.cls-1{fill:url(#New_Gradient_Swatch_3);}.cls-2{fill:url(#New_Gradient_Swatch_1);}.cls-3{fill:url(#New_Gradient_Swatch_2);}.cls-4{fill:url(#linear-gradient);}.cls-5{fill:url(#New_Gradient_Swatch_3-2);}.cls-6{fill:#25a9d9;}.cls-7{fill:#3fb14e;}.cls-8{fill:url(#New_Gradient_Swatch_3-3);}.cls-9{fill:url(#New_Gradient_Swatch_3-4);}</style><linearGradient id="New_Gradient_Swatch_3" y1="457.21" x2="183.33" y2="457.21" gradientUnits="userSpaceOnUse"><stop offset="0" stop-color="#f7931e"/><stop offset="1" stop-color="#f15a24"/></linearGradient><linearGradient id="New_Gradient_Swatch_1" x1="191.16" y1="196.75" x2="374.49" y2="196.75" gradientUnits="userSpaceOnUse"><stop offset="0" stop-color="#0071bc"/><stop offset="1" stop-color="#28abe3"/></linearGradient><linearGradient id="New_Gradient_Swatch_2" x1="495.22" y1="91.67" x2="678.55" y2="91.67" gradientUnits="userSpaceOnUse"><stop offset="0" stop-color="#3fb14e"/><stop offset="1" stop-color="#009245"/></linearGradient><linearGradient id="linear-gradient" x1="794.81" y1="196.75" x2="978.14" y2="196.75" gradientUnits="userSpaceOnUse"><stop offset="0" stop-color="#28abe3"/><stop offset="1" stop-color="#0071bc"/></linearGradient><linearGradient id="New_Gradient_Swatch_3-2" x1="991.55" y1="456.09" x2="1174.88" y2="456.09" xlink:href="#New_Gradient_Swatch_3"/><linearGradient id="New_Gradient_Swatch_3-3" x1="52.24" y1="495.06" x2="580.72" y2="495.06" xlink:href="#New_Gradient_Swatch_3"/><linearGradient id="New_Gradient_Swatch_3-4" x1="31.94" y1="497.3" x2="560.43" y2="497.3" gradientTransform="matrix(-1, 0, 0, 1, 1251, 0)" xlink:href="#New_Gradient_Swatch_3"/></defs><title>nrc-logo</title><circle class="cls-1" cx="91.67" cy="457.21" r="91.67"/><circle class="cls-2" cx="282.82" cy="196.75" r="91.67"/><circle class="cls-3" cx="586.88" cy="91.67" r="91.67"/><circle class="cls-4" cx="886.47" cy="196.75" r="91.67"/><circle class="cls-5" cx="1083.22" cy="456.09" r="91.67"/><path class="cls-6" d="M176.36,320.68l34.38-22.24a2,2,0,0,1,2.37.13l344.42,283a2,2,0,0,0,3.19-2.2l-147-434.48a2,2,0,0,1,.84-2.36l32.25-20.15a2,2,0,0,1,3,1.08L614,618.28a2,2,0,0,1-.62,2.18L588.82,640.9a2,2,0,0,1-2.52.05L176.22,324A2,2,0,0,1,176.36,320.68Z" transform="translate(-52.12 -51.7)"/><path class="cls-6" d="M1094.94,320.68l-34.38-22.24a2,2,0,0,0-2.38.13l-344.42,283a2,2,0,0,1-3.19-2.2l147-434.48a2,2,0,0,0-.84-2.36l-32.24-20.15a2,2,0,0,0-3,1.08L657.32,618.28a2,2,0,0,0,.62,2.18l24.53,20.44A2,2,0,0,0,685,641l410.07-317A2,2,0,0,0,1094.94,320.68Z" transform="translate(-52.12 -51.7)"/><path class="cls-7" d="M803.06,118.93l-40.91,1.67a2,2,0,0,0-1.86,1.49L642.29,552a2,2,0,0,1-3.88,0L507.78,112.31a2,2,0,0,0-2-1.44l-38,2.15a2,2,0,0,0-1.82,2.6L617.38,614.51a2,2,0,0,0,1.77,1.42L651,618.47a2,2,0,0,0,2.08-1.42l152-495.51A2,2,0,0,0,803.06,118.93Z" transform="translate(-52.12 -51.7)"/><path class="cls-8" d="M52.45,656.92l18.08-36.16a2,2,0,0,1,1.91-1.11l441.39,22a2,2,0,0,0,1.3-3.64L155,372.26a2,2,0,0,1-.74-2.21l12.17-40.54a2,2,0,0,1,3.16-1l410.36,317.2a2,2,0,0,1,.76,1.88l-1.82,12.75a2,2,0,0,1-2,1.73L54.25,659.84A2,2,0,0,1,52.45,656.92Z" transform="translate(-52.12 -51.7)"/><path class="cls-9" d="M1218.84,659.16,1200.76,623a2,2,0,0,0-1.9-1.12l-441.39,22a2,2,0,0,1-1.3-3.63l360.14-265.72a2,2,0,0,0,.73-2.2l-12.16-40.54a2,2,0,0,0-3.17-1L691.35,647.93a2,2,0,0,0-.76,1.88l1.82,12.75a2,2,0,0,0,2,1.73L1217,662.07A2,2,0,0,0,1218.84,659.16Z" transform="translate(-52.12 -51.7)"/></svg>