<svg id="Layer_2" data-name="Layer 2" xmlns="http://www.w3.org/2000/svg" xmlns:xlink="http://www.w3.org/1999/xlink" viewBox="0 0 480.71 150.17"><defs><style>.cls-1{fill:url(#linear-gradient);}.cls-2{fill:url(#linear-gradient-2);}.cls-3{fill:url(#linear-gradient-3);}.cls-4{fill:url(#linear-gradient-4);}.cls-5{fill:#27aae1;}.cls-6{fill:#39b54a;}</style><linearGradient id="linear-gradient" x1="380.31" y1="131.91" x2="511.28" y2="131.91" gradientTransform="translate(-370.48)" gradientUnits="userSpaceOnUse"><stop offset="0" stop-color="#f7901e"/><stop offset="1" stop-color="#ef3b24"/></linearGradient><linearGradient id="linear-gradient-2" x1="282.81" y1="132.01" x2="413.76" y2="132.01" gradientTransform="matrix(-1, 0, 0, 1, 583.6, 0)" xlink:href="#linear-gradient"/><linearGradient id="linear-gradient-3" x1="0" y1="109.5" x2="43.89" y2="109.5" gradientTransform="matrix(1, 0, 0, 1, 0, 0)" xlink:href="#linear-gradient"/><linearGradient id="linear-gradient-4" x1="248.05" y1="109.5" x2="291.94" y2="109.5" gradientTransform="matrix(1, 0, 0, 1, 0, 0)" xlink:href="#linear-gradient"/></defs><title>NRC_LOGO_ROUNDED</title><path class="cls-1" d="M38.14,91.89l-4.56,12,69.56,50.38a4,4,0,0,1-2.46,7.24L15.11,159,9.83,171.88l130.22.06.75-3.65Z" transform="translate(-9.29 -24.88)"/><path class="cls-2" d="M272.47,92l5.87,9.37-73.88,55.48a2.62,2.62,0,0,0,1.67,4.71l90.59-3.4L300.79,172,170.56,172l-.72-3.89Z" transform="translate(-9.29 -24.88)"/><circle class="cls-3" cx="21.95" cy="109.5" r="21.95"/><circle class="cls-4" cx="269.99" cy="109.5" r="21.95"/><circle class="cls-5" cx="69.54" cy="46.64" r="21.95"/><circle class="cls-5" cx="222.89" cy="46.64" r="21.95"/><circle class="cls-6" cx="146.21" cy="21.95" r="21.95"/><path class="cls-5" d="M39.53,90.38l9.35-9.83,76.38,59.22a2.38,2.38,0,0,0,3.7-2.67L97,47l11.87-6.64,40.56,121.74-7.82,5.23Z" transform="translate(-9.29 -24.88)"/><path class="cls-5" d="M201.3,40.35l12,5.43-34.73,94.9a2.41,2.41,0,0,0,3.75,2.72l79.88-63.15,8.38,9.88L169.13,167.21l-8.26-5.35Z" transform="translate(-9.29 -24.88)"/><path class="cls-6" d="M112.94,38.8l11.41-2.59,28.32,92.12a2.86,2.86,0,0,0,5.46,0l29.4-92.15,10.24,2.59-38,123.06h-9.18Z" transform="translate(-9.29 -24.88)"/><path class="cls-5" d="M489.64,118.27h-4.46a25.62,25.62,0,0,1-6.15,7.39,42.14,42.14,0,0,1-10.16,6.48v6.56a47.25,47.25,0,0,0,7.29-3.51,35.73,35.73,0,0,0,6.56-4.67v43.23h6.92Zm-64.31,49a22,22,0,0,1,2.92-3.67q1.77-1.83,8-7a110.77,110.77,0,0,0,10.68-9.72,25.1,25.1,0,0,0,4.59-6.75,16.16,16.16,0,0,0,1.39-6.52,14.35,14.35,0,0,0-4.73-10.93q-4.74-4.41-12.85-4.41t-12.81,4.09q-4.77,4.1-5.5,11.89l7.11.72c0-3.47,1-6.19,3-8.14a10.94,10.94,0,0,1,8-2.94,10.73,10.73,0,0,1,7.68,2.77,9,9,0,0,1,2.94,6.8c0,2.56-1.07,5.28-3.23,8.16s-6.3,6.78-12.42,11.7a71.24,71.24,0,0,0-9.06,8.37,24.81,24.81,0,0,0-4.56,7.35,11.82,11.82,0,0,0-.81,4.71H453v-6.52Zm-45-39.39a8.92,8.92,0,0,1,7.62-4q4.85,0,8.1,4.48t3.25,18.13q0,13.58-3.25,18.09t-8,4.53q-4.78,0-8-4.51t-3.25-18.11Q376.74,132.9,380.32,127.84ZM375.2,169q4.67,5.73,12.82,5.73a15.83,15.83,0,0,0,10.25-3.26,19.62,19.62,0,0,0,6.09-9.23q2-6,2-15.7a53.34,53.34,0,0,0-1.27-13.06,27.2,27.2,0,0,0-3.5-8.22,15,15,0,0,0-5.65-5.16,17,17,0,0,0-8-1.79,15.87,15.87,0,0,0-10.22,3.24,19.67,19.67,0,0,0-6.12,9.22q-2.06,6-2.05,15.77Q369.63,162.07,375.2,169Zm-43.81-1.73a22.11,22.11,0,0,1,2.93-3.67q1.76-1.83,8-7A111.62,111.62,0,0,0,353,146.88a25.16,25.16,0,0,0,4.6-6.75,16.32,16.32,0,0,0,1.38-6.52,14.31,14.31,0,0,0-4.73-10.93q-4.73-4.41-12.85-4.41t-12.81,4.09q-4.77,4.1-5.5,11.89l7.12.72c0-3.47,1-6.19,3-8.14a10.94,10.94,0,0,1,8-2.94,10.72,10.72,0,0,1,7.67,2.77,8.94,8.94,0,0,1,2.95,6.8q0,3.84-3.23,8.16t-12.43,11.7a71.24,71.24,0,0,0-9.06,8.37,24.81,24.81,0,0,0-4.56,7.35,11.82,11.82,0,0,0-.81,4.71h37.28v-6.52Z" transform="translate(-9.29 -24.88)"/><path class="cls-5" d="M489.64,118.27v-.36H485l-.1.2a25.12,25.12,0,0,1-6.07,7.28,41.5,41.5,0,0,1-10.07,6.42l-.21.1v7.3L469,139a46.15,46.15,0,0,0,7.35-3.53,36.25,36.25,0,0,0,6.62-4.72l-.24-.26h-.36v43.59H490v-56.2h-.36v.36h-.35v55.12h-6.21V129.7l-.6.56a36,36,0,0,1-6.5,4.62,46.46,46.46,0,0,1-7.23,3.48l.12.34h.36v-6.56h-.36l.15.32a42.19,42.19,0,0,0,10.24-6.53,26.14,26.14,0,0,0,6.24-7.5l-.32-.16v.36h4.46v-.36h0Zm-64.31,49,.3.19a21.73,21.73,0,0,1,2.88-3.62c1.15-1.19,3.82-3.51,8-6.92a112.32,112.32,0,0,0,10.71-9.76,25.55,25.55,0,0,0,4.66-6.85,16.65,16.65,0,0,0,1.42-6.66,14.72,14.72,0,0,0-4.85-11.19c-3.23-3-7.62-4.51-13.09-4.51s-9.79,1.38-13,4.18-5.14,6.86-5.63,12.13l0,.35,7.86.79V135c0-3.4,1-6,2.93-7.89a10.61,10.61,0,0,1,7.75-2.84,10.36,10.36,0,0,1,7.43,2.68,8.63,8.63,0,0,1,2.84,6.54c0,2.46-1,5.11-3.16,7.95S436,148.13,429.91,153a71.06,71.06,0,0,0-9.1,8.42,25.06,25.06,0,0,0-4.63,7.45,12.08,12.08,0,0,0-.83,4.45v.41l0,.34h38v-7.24h-28v.36l.3.19-.3-.19v.36h27.3v5.8H415.71v.36h.36c0-.13,0-.25,0-.38a11.34,11.34,0,0,1,.79-4.19,24.52,24.52,0,0,1,4.5-7.25,70.54,70.54,0,0,1,9-8.32q9.21-7.4,12.49-11.77c2.18-2.91,3.3-5.71,3.3-8.37a9.33,9.33,0,0,0-3.06-7.06,11.08,11.08,0,0,0-7.92-2.87A10.65,10.65,0,0,0,423.78,135h.35l0-.36-7.12-.71,0,.35.35,0c.49-5.13,2.28-9,5.38-11.65s7.28-4,12.58-4,9.53,1.44,12.6,4.31a14,14,0,0,1,4.62,10.67A16,16,0,0,1,451.2,140a25.17,25.17,0,0,1-4.54,6.65A112.58,112.58,0,0,1,436,156.33c-4.15,3.42-6.82,5.73-8,7a23.32,23.32,0,0,0-3,3.73l-.34.55h.65Zm-45-39.39.29.21a8.57,8.57,0,0,1,7.33-3.81c3.11,0,5.68,1.42,7.81,4.34s3.19,8.85,3.18,17.92-1.1,15-3.18,17.88-4.67,4.37-7.73,4.38-5.61-1.42-7.74-4.36-3.19-8.86-3.18-17.9,1.21-15.21,3.51-18.45l-.29-.21-.29-.2c-2.46,3.49-3.64,9.76-3.64,18.86s1.06,15.18,3.31,18.32,5,4.66,8.32,4.65,6.1-1.59,8.31-4.67,3.31-9.22,3.31-18.3-1.06-15.21-3.32-18.34a10,10,0,0,0-8.38-4.63,9.28,9.28,0,0,0-7.91,4.1ZM375.2,169l-.27.23c3.16,3.9,7.57,5.87,13.09,5.86a16.24,16.24,0,0,0,10.47-3.34,19.85,19.85,0,0,0,6.21-9.4q2.07-6,2.06-15.81a53.74,53.74,0,0,0-1.28-13.15,27.87,27.87,0,0,0-3.55-8.32,15.43,15.43,0,0,0-5.79-5.29,17.33,17.33,0,0,0-8.12-1.83,16.2,16.2,0,0,0-10.44,3.32,20,20,0,0,0-6.23,9.38q-2.09,6.06-2.08,15.89c0,10.42,1.86,18,5.66,22.69l.27-.23.28-.22c-3.64-4.49-5.5-11.9-5.5-22.24,0-6.51.69-11.73,2-15.66a19.29,19.29,0,0,1,6-9,15.52,15.52,0,0,1,10-3.16,16.48,16.48,0,0,1,7.79,1.75,14.63,14.63,0,0,1,5.52,5,26.87,26.87,0,0,1,3.46,8.11,53.43,53.43,0,0,1,1.26,13q0,9.69-2,15.58a19.2,19.2,0,0,1-6,9.07,15.5,15.5,0,0,1-10,3.19c-5.36,0-9.5-1.87-12.54-5.6Zm-43.81-1.73.3.19a22.81,22.81,0,0,1,2.88-3.62c1.16-1.19,3.82-3.51,8-6.92a112.72,112.72,0,0,0,10.72-9.76,25.78,25.78,0,0,0,4.66-6.85,16.64,16.64,0,0,0,1.41-6.66,14.67,14.67,0,0,0-4.84-11.19c-3.24-3-7.62-4.51-13.1-4.51s-9.78,1.38-13,4.18-5.13,6.86-5.62,12.13l0,.35,7.86.79V135c0-3.4,1-6,2.93-7.89a10.59,10.59,0,0,1,7.75-2.84,10.36,10.36,0,0,1,7.43,2.68,8.62,8.62,0,0,1,2.83,6.54c0,2.46-1,5.11-3.16,7.95S342.09,148.13,336,153a71.25,71.25,0,0,0-9.11,8.42,25,25,0,0,0-4.62,7.45,12.09,12.09,0,0,0-.84,4.45c0,.13,0,.27,0,.41v.34h38v-7.24h-28v.36l.3.19-.3-.19v.36h27.3v5.8H321.77v.36h.36c0-.13,0-.25,0-.38a11.54,11.54,0,0,1,.79-4.19,24.73,24.73,0,0,1,4.5-7.25,71.23,71.23,0,0,1,9-8.32q9.21-7.4,12.49-11.77c2.19-2.91,3.3-5.71,3.3-8.37a9.29,9.29,0,0,0-3-7.06,11.1,11.1,0,0,0-7.92-2.87A10.66,10.66,0,0,0,329.84,135h.36l0-.36-7.11-.71,0,.35.36,0c.48-5.13,2.28-9,5.38-11.65s7.27-4,12.57-4,9.53,1.44,12.61,4.31a14,14,0,0,1,4.62,10.67,15.88,15.88,0,0,1-1.36,6.38,24.87,24.87,0,0,1-4.53,6.65,112.58,112.58,0,0,1-10.64,9.69c-4.16,3.42-6.83,5.73-8,7a22.25,22.25,0,0,0-3,3.73l-.34.55h.64Z" transform="translate(-9.29 -24.88)"/><path class="cls-5" d="M449.7,98.61a6,6,0,0,1,1.33-3.4,3.37,3.37,0,0,1,5,0,6,6,0,0,1,1.33,3.39Zm8.09,8.41a5.38,5.38,0,0,0,1.92-3.74h-2.52a2.62,2.62,0,0,1-1.08,2.12,3.82,3.82,0,0,1-2.31.75,3.63,3.63,0,0,1-2.84-1.32,6.57,6.57,0,0,1-1.32-4H460v-.66a9.31,9.31,0,0,0-1.75-6.06,6.1,6.1,0,0,0-9.32,0,9.34,9.34,0,0,0-1.78,6,9,9,0,0,0,1.84,6,6.05,6.05,0,0,0,4.85,2.17A6.15,6.15,0,0,0,457.79,107Zm-14.26,0a5.57,5.57,0,0,0,1.78-3.75H442.8a2.76,2.76,0,0,1-.92,2.13,3.15,3.15,0,0,1-2.1.74,3.34,3.34,0,0,1-2.83-1.52,7.74,7.74,0,0,1-1.09-4.5A7.79,7.79,0,0,1,437,95.61a3.34,3.34,0,0,1,2.83-1.52,3.15,3.15,0,0,1,2.1.74A2.8,2.8,0,0,1,442.8,97h2.51a5.61,5.61,0,0,0-1.78-3.76,5.51,5.51,0,0,0-3.75-1.3,5.72,5.72,0,0,0-4.67,2.15,9.31,9.31,0,0,0-1.75,6.06,9.32,9.32,0,0,0,1.75,6.05,5.7,5.7,0,0,0,4.67,2.16A5.51,5.51,0,0,0,443.53,107Zm-22.1-14.75H419V108h2.44V96.73q1.86-2.52,3.72-2.52a2.24,2.24,0,0,1,2,.85,4.87,4.87,0,0,1,.6,2.76V108h2.44V97.7q0-5.78-4.64-5.78a5.16,5.16,0,0,0-4.09,2.35Zm-16,6.33a6,6,0,0,1,1.33-3.4,3.35,3.35,0,0,1,2.51-1.12,3.31,3.31,0,0,1,2.53,1.13,6.09,6.09,0,0,1,1.33,3.39Zm8.1,8.41a5.41,5.41,0,0,0,1.91-3.74H413a2.59,2.59,0,0,1-1.07,2.12,3.84,3.84,0,0,1-2.31.75,3.64,3.64,0,0,1-2.85-1.32,6.63,6.63,0,0,1-1.31-4h10.32v-.66A9.31,9.31,0,0,0,414,94.07a6.1,6.1,0,0,0-9.32,0,9.28,9.28,0,0,0-1.78,6,9,9,0,0,0,1.84,6,6.05,6.05,0,0,0,4.85,2.17A6.15,6.15,0,0,0,413.56,107Zm-12-15a5.7,5.7,0,0,0-1.12-.12q-2,0-3.56,2.54V92.28h-2.44V108h2.44V96.87c.89-1.48,1.95-2.23,3.19-2.23a4.77,4.77,0,0,1,1.49.18Zm-20.64,6.57a6,6,0,0,1,1.33-3.4,3.38,3.38,0,0,1,5,0,6.17,6.17,0,0,1,1.33,3.39ZM389,107a5.38,5.38,0,0,0,1.92-3.74h-2.52a2.62,2.62,0,0,1-1.08,2.12,3.8,3.8,0,0,1-2.31.75,3.63,3.63,0,0,1-2.84-1.32,6.57,6.57,0,0,1-1.31-4h10.32v-.66a9.37,9.37,0,0,0-1.75-6.06,6.11,6.11,0,0,0-9.33,0,9.34,9.34,0,0,0-1.78,6,9.08,9.08,0,0,0,1.84,6,6.05,6.05,0,0,0,4.85,2.17A6.15,6.15,0,0,0,389,107ZM376.74,94.46V92.28h-2.59V90.92a3.37,3.37,0,0,1,.43-2,1.56,1.56,0,0,1,1.32-.57,7.36,7.36,0,0,1,1.48.15V86.09a7.81,7.81,0,0,0-1.83-.17c-2.55,0-3.83,1.65-3.83,5v1.39h-2v2.18h2V108h2.43V94.46Zm-18.25-2.18h-2.44V108h2.44V96.73q1.86-2.52,3.72-2.52a2.23,2.23,0,0,1,2,.85,4.87,4.87,0,0,1,.6,2.76V108h2.44V97.7q0-5.78-4.63-5.78a5.18,5.18,0,0,0-4.1,2.35Zm-14.95,12.35a7.74,7.74,0,0,1-1.09-4.5,7.79,7.79,0,0,1,1.09-4.52,3.39,3.39,0,0,1,5.66,0,7.79,7.79,0,0,1,1.08,4.52,7.74,7.74,0,0,1-1.08,4.5,3.39,3.39,0,0,1-5.66,0ZM341.7,94.07a9.31,9.31,0,0,0-1.75,6.06,9.32,9.32,0,0,0,1.75,6.05,6.14,6.14,0,0,0,9.35,0,9.32,9.32,0,0,0,1.75-6.05,9.31,9.31,0,0,0-1.75-6.06,6.16,6.16,0,0,0-9.35,0Zm-6.94,12.37a7.67,7.67,0,0,0,2.37-5.35h-2.58a4.78,4.78,0,0,1-5.14,4.79,5.31,5.31,0,0,1-4.52-2.28,10.79,10.79,0,0,1-1.67-6.47,10.77,10.77,0,0,1,1.68-6.49,5.38,5.38,0,0,1,4.56-2.27A5.23,5.23,0,0,1,333,89.58a4.56,4.56,0,0,1,1.56,3.27h2.58a7.26,7.26,0,0,0-2.44-5,7.67,7.67,0,0,0-5.25-1.9,7.76,7.76,0,0,0-6.42,3,12.89,12.89,0,0,0-2.39,8.19,12.84,12.84,0,0,0,2.39,8.18,7.77,7.77,0,0,0,6.42,3A7.64,7.64,0,0,0,334.76,106.44Z" transform="translate(-9.29 -24.88)"/><path class="cls-5" d="M419.4,48h2.41V26.28H419.4Zm-12-9.06a5.59,5.59,0,0,0-3.26,1.49,4.56,4.56,0,0,0-1.24,3.42,4.71,4.71,0,0,0,1.26,3.35,4.28,4.28,0,0,0,3.25,1.34,6.07,6.07,0,0,0,3-.79,6.22,6.22,0,0,0,2.11-1.85,4,4,0,0,0,.42,1.47,1.91,1.91,0,0,0,1.8,1,5.61,5.61,0,0,0,.8,0,7.78,7.78,0,0,0,.86-.22v-2l-.43.07-.36,0A.72.72,0,0,1,415,46a1.3,1.3,0,0,1-.15-.67V36.16a3.75,3.75,0,0,0-1.57-3.32,7.19,7.19,0,0,0-4.1-1.06,6.51,6.51,0,0,0-3.83,1.15c-1.1.76-1.67,2.12-1.72,4.07h2.25a4,4,0,0,1,.57-1.85A3,3,0,0,1,409.13,34a4.32,4.32,0,0,1,2.5.61,2.26,2.26,0,0,1,.88,2,2.72,2.72,0,0,1-.16,1,1.3,1.3,0,0,1-1.11.76Zm-2,4.85a2.42,2.42,0,0,1,1.11-2.22,5.14,5.14,0,0,1,2-.61l1.46-.2a8.52,8.52,0,0,0,1.36-.3,3.78,3.78,0,0,0,1.14-.52v2.15a3.72,3.72,0,0,1-2,3.53,5,5,0,0,1-2.46.65,2.68,2.68,0,0,1-1.81-.66A2.29,2.29,0,0,1,405.41,43.79ZM387.79,48h2.41V39.71a12,12,0,0,1,.18-2.39,4,4,0,0,1,.78-1.62,3.58,3.58,0,0,1,1.74-1.3,4.2,4.2,0,0,1,1.4-.2,2.34,2.34,0,0,1,2.33,1.48A5.91,5.91,0,0,1,397,38V48h2.44V37.84a9,9,0,0,0-.59-3.68,4.07,4.07,0,0,0-4.11-2.35,5.23,5.23,0,0,0-2.53.61,6.61,6.61,0,0,0-2.15,2V32.16h-2.29Zm-10-16.29a5.89,5.89,0,0,0-4.92,2.36,10.14,10.14,0,0,0-1.83,6.36,9.41,9.41,0,0,0,1.73,5.94,5.68,5.68,0,0,0,4.7,2.21,5.84,5.84,0,0,0,5.22-2.5,11.13,11.13,0,0,0,1.69-6.33q0-4-1.92-6A6.15,6.15,0,0,0,377.8,31.71Zm-.1,14.58a3.42,3.42,0,0,1-3.18-1.69,8.1,8.1,0,0,1-1-4.21,9.35,9.35,0,0,1,1-4.5A3.39,3.39,0,0,1,377.73,34a3.56,3.56,0,0,1,3.5,2.19,8.6,8.6,0,0,1,.64,3.6,10.73,10.73,0,0,1-.89,4.46A3.26,3.26,0,0,1,377.7,46.29Zm-12.31-17h2.45v-3h-2.45Zm0,18.71h2.45V32.24h-2.45Zm-7.67-15.84h-1.94v2.18h1.94V44.82a4.6,4.6,0,0,0,.6,2.48,2.49,2.49,0,0,0,2.29,1,7.32,7.32,0,0,0,1-.06,4.12,4.12,0,0,0,.86-.19V45.9l-.47,0h-.37a2,2,0,0,1-.94-.17,1.13,1.13,0,0,1-.51-1.1V34.34h2.29V32.16h-2.29V27.74h-2.43ZM345.3,38.94A5.59,5.59,0,0,0,342,40.43a4.6,4.6,0,0,0-1.24,3.42,4.71,4.71,0,0,0,1.26,3.35,4.3,4.3,0,0,0,3.26,1.34,6.06,6.06,0,0,0,3-.79,6.22,6.22,0,0,0,2.11-1.85,4,4,0,0,0,.42,1.47,1.91,1.91,0,0,0,1.8,1,5.86,5.86,0,0,0,.81,0,7.73,7.73,0,0,0,.85-.22v-2l-.43.07-.36,0a.74.74,0,0,1-.65-.25,1.3,1.3,0,0,1-.15-.67V36.16a3.74,3.74,0,0,0-1.56-3.32,7.23,7.23,0,0,0-4.11-1.06,6.51,6.51,0,0,0-3.83,1.15c-1.1.76-1.67,2.12-1.71,4.07h2.24a3.92,3.92,0,0,1,.58-1.85A3,3,0,0,1,347,34a4.35,4.35,0,0,1,2.51.61,2.26,2.26,0,0,1,.87,2,2.53,2.53,0,0,1-.16,1,1.3,1.3,0,0,1-1.11.76Zm-2,4.85a2.42,2.42,0,0,1,1.11-2.22,5.14,5.14,0,0,1,2-.61l1.45-.2a8.89,8.89,0,0,0,1.37-.3,3.83,3.83,0,0,0,1.13-.52v2.15a3.7,3.7,0,0,1-2,3.53,5,5,0,0,1-2.46.65,2.63,2.63,0,0,1-1.8-.66A2.3,2.3,0,0,1,343.31,43.79ZM321.47,48H324V30.42L334.08,48h3V26.28h-2.53v17.6l-9.92-17.6h-3.14Z" transform="translate(-9.29 -24.88)"/><path class="cls-5" d="M481,61.9h-2.31V77.59H481V66.35q1.75-2.5,3.51-2.51a2.07,2.07,0,0,1,1.86.84,5.14,5.14,0,0,1,.57,2.77V77.59h2.31V67.33q0-5.78-4.38-5.78A4.81,4.81,0,0,0,481,63.9ZM465.9,74.26a8.1,8.1,0,0,1-1-4.5,8.13,8.13,0,0,1,1-4.52,3.11,3.11,0,0,1,5.35,0,8.12,8.12,0,0,1,1,4.52,8.09,8.09,0,0,1-1,4.5,3.11,3.11,0,0,1-5.35,0Zm-1.74-10.57a9.76,9.76,0,0,0-1.65,6.07,9.74,9.74,0,0,0,1.65,6,5.62,5.62,0,0,0,8.84,0,9.74,9.74,0,0,0,1.65-6A9.76,9.76,0,0,0,473,63.69a5.63,5.63,0,0,0-8.84,0Zm-5.72-7.78h-2.31v3h2.31Zm0,6h-2.31V77.59h2.31Zm-5.73,13.61a5.24,5.24,0,0,1-1.14.12,1.1,1.1,0,0,1-.92-.44,3.83,3.83,0,0,1-.34-2v-9h2.1V61.9h-2.1V58H448v3.9h-1.6v2.19H448V73a17.83,17.83,0,0,0,.15,2.62,2.72,2.72,0,0,0,.82,1.58,3,3,0,0,0,2.08.61,7,7,0,0,0,1.64-.18Zm-12.22,2.08h2.29V67.45q0-3.51-1.39-4.7a5.76,5.76,0,0,0-3.88-1.2q-5.34,0-5.59,4.83h2.29c.07-1.77,1.12-2.66,3.18-2.66a3.63,3.63,0,0,1,2.13.5,2,2,0,0,1,.82,1.27,14.1,14.1,0,0,1,.15,2.45h-1.13q-7.82,0-7.82,5.5a4.44,4.44,0,0,0,1.24,3.26A4.28,4.28,0,0,0,436,78a5.8,5.8,0,0,0,4.53-2Zm-1.68-2.44a4.22,4.22,0,0,1-2.19.63,2.9,2.9,0,0,1-2-.65,2.31,2.31,0,0,1-.73-1.84c0-2.2,1.66-3.3,5-3.3h1.58v3.48A4.51,4.51,0,0,1,438.81,75.15Zm-9.94.36a5.4,5.4,0,0,1-1.15.12,1.1,1.1,0,0,1-.92-.44,3.93,3.93,0,0,1-.34-2v-9h2.1V61.9h-2.1V58h-2.29v3.9h-1.6v2.19h1.6V73a16.33,16.33,0,0,0,.16,2.62,2.67,2.67,0,0,0,.82,1.58,2.94,2.94,0,0,0,2.07.61,7.19,7.19,0,0,0,1.65-.18ZM419,55.91h-2.31v3H419Zm0,6h-2.31V77.59H419Zm-7.2-6h-2.31V77.59h2.31Zm-7.2,0h-2.31v3h2.31Zm0,6h-2.31V77.59h2.31Zm-15.4,4.51q1.58-2.68,3.49-2.69a2.57,2.57,0,0,1,2.32,1.5,9.34,9.34,0,0,1,.83,4.4,9.63,9.63,0,0,1-.88,4.61,2.67,2.67,0,0,1-2.37,1.55,4.24,4.24,0,0,1-3.39-1.91Zm0-10.5h-2.31V77.59h2.31V76.38a4.64,4.64,0,0,0,7.46-.66,10.49,10.49,0,0,0,1.56-6.1,10.83,10.83,0,0,0-1.4-5.89,4.39,4.39,0,0,0-7.62.05Zm-9.51,21.68h2.29V67.45q0-3.51-1.39-4.7a5.74,5.74,0,0,0-3.88-1.2c-3.55,0-5.42,1.61-5.59,4.83h2.3c.06-1.77,1.12-2.66,3.17-2.66a3.65,3.65,0,0,1,2.14.5,2,2,0,0,1,.81,1.27,14.1,14.1,0,0,1,.15,2.45h-1.12q-7.83,0-7.83,5.5a4.45,4.45,0,0,0,1.25,3.26A4.27,4.27,0,0,0,375.11,78a5.77,5.77,0,0,0,4.53-2ZM378,75.15a4.26,4.26,0,0,1-2.2.63,2.9,2.9,0,0,1-2-.65,2.34,2.34,0,0,1-.73-1.84q0-3.3,5-3.3h1.57v3.48A4.49,4.49,0,0,1,378,75.15ZM358.34,55.91H356V77.59h2.3V66.35q1.77-2.5,3.52-2.51a2.08,2.08,0,0,1,1.86.84,5.14,5.14,0,0,1,.57,2.77V77.59h2.3V67.33q0-5.78-4.38-5.78a4.84,4.84,0,0,0-3.87,2.35ZM342.26,68.23a6.1,6.1,0,0,1,1.26-3.39,3.08,3.08,0,0,1,4.76,0,6.2,6.2,0,0,1,1.25,3.38Zm7.65,8.42a5.5,5.5,0,0,0,1.81-3.74h-2.38a2.64,2.64,0,0,1-1,2.12,3.47,3.47,0,0,1-2.18.75,3.36,3.36,0,0,1-2.69-1.32,6.84,6.84,0,0,1-1.24-4H352v-.66a9.76,9.76,0,0,0-1.65-6.07,5.57,5.57,0,0,0-8.81,0,9.65,9.65,0,0,0-1.68,6,9.48,9.48,0,0,0,1.73,6,6,6,0,0,0,8.36.85ZM323.76,58.29h5.65c2.55,0,3.83,1.24,3.83,3.7a3.69,3.69,0,0,1-1,2.92,5,5,0,0,1-3.21.84h-5.28Zm10.75,13.4c-.65-2.13-1.6-3.43-2.84-3.92v0a5,5,0,0,0,2.94-2A6.37,6.37,0,0,0,335.68,62a7.33,7.33,0,0,0-.83-3.53,4.07,4.07,0,0,0-2.15-2.06,10,10,0,0,0-3.39-.49h-7.92V77.59h2.37V68.32h4.38a3.46,3.46,0,0,1,2.42,1,5.44,5.44,0,0,1,1.5,2.51l1.68,5.78h2.57Z" transform="translate(-9.29 -24.88)"/></svg>