<svg id="Layer_1" data-name="Layer 1" xmlns="http://www.w3.org/2000/svg" viewBox="0 0 245.33 239.63"><defs><style>.cls-1,.cls-6{fill:#fff;}.cls-2{fill:#2b2422;}.cls-3{fill:#3d9035;}.cls-4{fill:#e20e18;}.cls-5{fill:#1d1d1b;}.cls-6{font-size:9.59px;font-family:Arial-Black, Arial Black;font-weight:800;}.cls-7{letter-spacing:0.17em;}.cls-8{letter-spacing:0.17em;}.cls-9{letter-spacing:0.13em;}</style></defs><path class="cls-1" d="M210.11,123.73A91.13,91.13,0,1,1,119,32.6a91.12,91.12,0,0,1,91.12,91.13"/><path class="cls-2" d="M210.11,123.73h-.85A90.27,90.27,0,1,1,182.82,59.9a90.05,90.05,0,0,1,26.44,63.83H211a92,92,0,1,0-92,92,92,92,0,0,0,92-92Z"/><path class="cls-3" d="M206.41,123.73c0,47.66-38.92,86.3-86.91,86.3s-86.92-38.64-86.92-86.3,38.92-86.3,86.92-86.3,86.91,38.64,86.91,86.3"/><path class="cls-2" d="M206.41,123.73h-.74a85,85,0,0,1-25.24,60.5,86.61,86.61,0,0,1-121.87,0,85.13,85.13,0,0,1,0-121,86.61,86.61,0,0,1,121.87,0,85,85,0,0,1,25.24,60.5h1.47a86.44,86.44,0,0,0-25.67-61.54,88.06,88.06,0,0,0-123.95,0,86.6,86.6,0,0,0,0,123.08,88.09,88.09,0,0,0,124,0,86.44,86.44,0,0,0,25.67-61.54Z"/><path class="cls-4" d="M61.55,123.73c0-31.77,25.94-57.53,58-57.53S177.44,92,177.44,123.73a56.51,56.51,0,0,1-.82,9.62c6.78,3.7,19.91,11,26.31,14.62a85.87,85.87,0,0,0,3.48-24.24c0-47.66-38.91-86.3-86.91-86.3s-86.92,38.64-86.92,86.3A85.53,85.53,0,0,0,42,162.85l23.88-17.28a57,57,0,0,1-4.33-21.84"/><path class="cls-2" d="M61.55,123.73h.37A56.72,56.72,0,0,1,78.79,83.31a57.85,57.85,0,0,1,81.42,0,56.87,56.87,0,0,1,16,50l0,.25.23.13c6.77,3.7,19.9,11,26.3,14.62l.4.23.13-.45a86.35,86.35,0,0,0-22.07-85.63,87.72,87.72,0,0,0-123.43,0A86.27,86.27,0,0,0,41.68,163l.2.39,24.45-17.71-.11-.27a56.51,56.51,0,0,1-4.3-21.69h-.73a57.44,57.44,0,0,0,4.35,22l.34-.14-.22-.3L41.79,162.55l.21.3.33-.17A85.52,85.52,0,0,1,58.3,63a87,87,0,0,1,122.39,0,85.59,85.59,0,0,1,21.89,84.89l.35.11.18-.32c-6.4-3.58-19.54-10.92-26.31-14.63l-.18.33.37.06a58.27,58.27,0,0,0,.81-9.68,57.46,57.46,0,0,0-17.08-40.94,58.58,58.58,0,0,0-82.45,0,57.51,57.51,0,0,0-17.08,40.94Z"/><path class="cls-1" d="M76,160.24l8.59-8.74,2,1.85L83,161.74c-.34.78-.61,1.36-.78,1.74.42-.22,1.06-.52,1.91-.91l8.4-3.86,1.79,1.65-8.58,8.74-1.29-1.18,7.18-7.32-10.12,4.62-1.21-1.11L84.64,154l-7.31,7.44Z"/><path class="cls-1" d="M89.17,171.54l10.55-8.26,1.75.9-.75,13.23-1.86-.95.32-4L94,169.88l-3.11,2.54ZM95.11,169l4.19,2.13.32-3.61a25.51,25.51,0,0,1,.33-2.66,14.41,14.41,0,0,1-1.78,1.7Z"/><path class="cls-1" d="M103.41,178.36l6.66-5-3.36-6.62,2.14.46,1.79,3.54c.37.74.63,1.3.77,1.68a17.51,17.51,0,0,1,1.38-1.11l3.45-2.54,2,.41-6,4.54L115.9,181l-2.23-.47-2.48-4.93c-.13-.28-.27-.58-.41-.91l-.85.75-4.36,3.37Z"/><rect class="cls-1" x="115.06" y="174.03" width="12.05" height="1.84" transform="translate(-56.16 292.64) rotate(-88.9)"/><path class="cls-1" d="M127.64,181.09,125,169.31l2.72-.57,5.09,7.67,1,1.61c0-.46.16-1.14.3-2l1.43-8.88,2.42-.5,2.64,11.77-1.74.37-2.2-9.86L135,179.57l-1.63.33-6.18-9.2,2.24,10Z"/><path class="cls-1" d="M148,161.22l1.6-.88,3.59,6a7.3,7.3,0,0,1,1.07,2.73,3.48,3.48,0,0,1-.59,2.33,6.57,6.57,0,0,1-2.48,2.16,7.6,7.6,0,0,1-3.08,1,3.71,3.71,0,0,1-2.41-.6,7.37,7.37,0,0,1-2-2.37l-3.59-6,1.6-.89,3.59,6a6.07,6.07,0,0,0,1.48,1.84,2.42,2.42,0,0,0,1.6.43,4.53,4.53,0,0,0,2-.61,4.1,4.1,0,0,0,2.11-2.09c.22-.74-.06-1.76-.84-3.08Z"/><path class="cls-1" d="M160.53,167.38l-9-8.38,1.93-1.93,8.64,3.64,1.79.77c-.22-.41-.52-1-.92-1.85l-3.92-8.15,1.73-1.72,9,8.37-1.23,1.24-7.51-7,4.69,9.82-1.16,1.16L154.14,159l7.63,7.13Z"/><path class="cls-1" d="M57.12,163.08l10.65-7.29,3.13,4.58A6.84,6.84,0,0,1,72,162.49a2.58,2.58,0,0,1-.23,1.75,4.08,4.08,0,0,1-1.44,1.6,4.17,4.17,0,0,1-1.74.73,3.36,3.36,0,0,1-1.64-.16,3.66,3.66,0,0,1-1.08-.67,2.85,2.85,0,0,1,.1,1,4.1,4.1,0,0,1-.26.82,4.8,4.8,0,0,1-.4.84l-2.17,3.44L61,168.72,63.23,165a3.18,3.18,0,0,0,.48-1.07,1.2,1.2,0,0,0-.21-.83l-.17-.25-4.32,3Zm8.22-1.58.79,1.16a3.9,3.9,0,0,0,.65.63l.64.22.73-.25a1.31,1.31,0,0,0,.61-.82,1.77,1.77,0,0,0-.43-1.21L67.5,160Z"/><polygon class="cls-1" points="74.3 164.95 80.64 171.22 78.71 173.18 74.74 169.25 73.3 170.71 76.98 174.35 75.13 176.22 71.44 172.58 69.66 174.39 73.74 178.43 71.69 180.5 65.23 174.12 74.3 164.95"/><polygon class="cls-1" points="81.84 172.26 84.6 174.1 82.09 177.86 85.11 179.88 87.63 176.13 90.4 177.99 83.23 188.71 80.46 186.85 83.36 182.51 80.33 180.49 77.43 184.83 74.67 182.98 81.84 172.26"/><path class="cls-1" d="M94,191.3l-3.48-1.46-1.31,1.76L86,190.28,94.76,180l3.35,1.41-1.28,13.46-3.21-1.35Zm.44-2.83.71-4.74-2.89,3.82Z"/><path class="cls-1" d="M102.56,183.06l6.08,1.34a3.06,3.06,0,0,1,2.14,1.43,3.26,3.26,0,0,1,.31,2.41,3.18,3.18,0,0,1-1,1.79,2.77,2.77,0,0,1-1.32.59,2.92,2.92,0,0,1,1.42,1.49,3.54,3.54,0,0,1,.09,2.11,4,4,0,0,1-.77,1.68,3.34,3.34,0,0,1-1.31,1,3.22,3.22,0,0,1-1.33.13,11.26,11.26,0,0,1-1.49-.15l-5.61-1.24Zm1.08,10.61,1.66.37a1.64,1.64,0,0,0,1.26-.1,1.31,1.31,0,0,0,.56-.88,1.19,1.19,0,0,0-.14-1,1.68,1.68,0,0,0-1.12-.6l-1.65-.37Zm1.1-4.95,1.42.32a1.48,1.48,0,0,0,1.12-.08,1.31,1.31,0,0,0,.5-.84,1.2,1.2,0,0,0-.11-.93,1.42,1.42,0,0,0-1-.54l-1.44-.32Z"/><rect class="cls-1" x="108.73" y="190.14" width="12.9" height="3.34" transform="translate(-85.72 290.29) rotate(-85.13)"/><polygon class="cls-1" points="119.69 185.72 123.01 185.59 123.37 195.31 128.57 195.12 128.69 198.29 120.17 198.61 119.69 185.72"/><rect class="cls-1" x="130.76" y="184.71" width="3.33" height="12.9" transform="translate(-29.15 23.91) rotate(-9.3)"/><polygon class="cls-1" points="134.56 184.41 144.23 181.46 145.16 184.5 141.91 185.49 144.75 194.79 141.56 195.75 138.73 186.47 135.48 187.46 134.56 184.41"/><path class="cls-1" d="M155.15,188.06l-3.39,1.68.48,2.14-3,1.51L147.08,180l3.26-1.62,9.36,9.75-3.12,1.56Zm-1.86-2.19-3.13-3.63,1,4.68Z"/><polygon class="cls-1" points="153.06 177.1 161.22 171.13 163.1 173.7 160.36 175.7 166.09 183.55 163.41 185.51 157.67 177.67 154.94 179.67 153.06 177.1"/><rect class="cls-1" x="166.23" y="166.99" width="3.33" height="12.9" transform="translate(-73.41 167.25) rotate(-44.46)"/><path class="cls-1" d="M171.14,170.4a7.46,7.46,0,0,1-3.11-4.08,5,5,0,0,1,1-4.34,5.09,5.09,0,0,1,3.84-2.33,7.29,7.29,0,0,1,4.77,1.67,9.28,9.28,0,0,1,2.62,2.7,5.09,5.09,0,0,1,.74,2.81,5.28,5.28,0,0,1-1.11,2.89,6,6,0,0,1-2.34,2,5,5,0,0,1-2.92.27,8.47,8.47,0,0,1-3.48-1.62m2-2.68a5,5,0,0,0,2.62,1.17,1.92,1.92,0,0,0,1.66-.84,1.9,1.9,0,0,0,.3-1.83,5.56,5.56,0,0,0-2.07-2.24,4.58,4.58,0,0,0-2.52-1.07,2,2,0,0,0-1.66.85,1.91,1.91,0,0,0-.26,1.81,5,5,0,0,0,1.93,2.15"/><polygon class="cls-1" points="173.07 156.48 174.28 153.61 182.42 152.63 175.84 149.87 177.06 146.98 188.95 151.97 187.74 154.86 179.65 155.84 186.17 158.58 184.96 161.47 173.07 156.48"/><path class="cls-1" d="M137.05,88.46l-4,.92v5.18l-4,4.27-3.36,2.44-2.13,1.22-3.36-2.44-4.88-7.62-2.74-6.71A5.35,5.35,0,0,0,115.09,83c.61-1.83.91-4.88,3.35-6.71a15.36,15.36,0,0,0,4-5.49l-1.22-1.83L117.53,68l-3,3.66-4.58,4.89-4.57,4.57-2.14,2.75s-1.52.3-1.83-.61.61-6.71-.3-5.8S98,79,98,79.92s.61,6.71.61,6.71l-1.53,2.44-4,.31s-2.44,2.43-.61,3.05S96.18,97,96.18,97l1.22,4.27,2.74,3,7.32,1.53a2.19,2.19,0,0,1,1.83,2.13c0,1.83,1.53,6.1,1.53,6.1l3.35,3,5.8,3.35,7.93-5.79,1.83-3.36.61-3,1.82-3.35,2.75-2.44,2.14-4.27.91-2.75.31-3.66Zm-33.86,3.35-1.52-1.22.91-2.44,1.83,3Z"/><path class="cls-1" d="M137.05,88.46l-4,.92v5.18l-4,4.27-3.36,2.44-2.13,1.22-3.36-2.44-4.88-7.62-2.74-6.71A5.35,5.35,0,0,0,115.09,83c.61-1.83.91-4.88,3.35-6.71a15.36,15.36,0,0,0,4-5.49l-1.22-1.83L117.53,68l-3,3.66-4.58,4.89-4.57,4.57-2.14,2.75s-1.52.3-1.83-.61.61-6.71-.3-5.8S98,79,98,79.92s.61,6.71.61,6.71l-1.53,2.44-4,.31s-2.44,2.43-.61,3.05S96.18,97,96.18,97l1.22,4.27,2.74,3,7.32,1.53a2.19,2.19,0,0,1,1.83,2.13c0,1.83,1.53,6.1,1.53,6.1l3.35,3,5.8,3.35,7.93-5.79,1.83-3.36.61-3,1.82-3.35,2.75-2.44,2.14-4.27.91-2.75.31-3.66Zm-33.86,3.35-1.52-1.22.91-2.44,1.83,3Z"/><path class="cls-1" d="M50.72,149.62a5.76,5.76,0,0,1-4.6-.82,6.16,6.16,0,0,1-2.31-4.18,6.44,6.44,0,0,1,.75-4.79,5.81,5.81,0,0,1,4-2.36,7,7,0,0,1,3.38.09,4.84,4.84,0,0,1,2.32,1.65,6.68,6.68,0,0,1,1.27,3.13,7.81,7.81,0,0,1-.05,3.4,5.08,5.08,0,0,1-1.58,2.47,6.4,6.4,0,0,1-3.18,1.41m-.6-3.63a3.79,3.79,0,0,0,2.36-1.12,2.33,2.33,0,0,0,.44-1.93,2.28,2.28,0,0,0-1-1.68,4.19,4.19,0,0,0-2.75-.16,3.53,3.53,0,0,0-2.23,1.1,2.36,2.36,0,0,0-.43,2,2.21,2.21,0,0,0,1.05,1.62,3.71,3.71,0,0,0,2.6.22"/><path class="cls-1" d="M49.47,126.47l.89-3.24a5.55,5.55,0,0,1,2.21,1,4.4,4.4,0,0,1,1.36,1.72,6.54,6.54,0,0,1,.48,2.63,7.86,7.86,0,0,1-.5,3.18A4.94,4.94,0,0,1,52,133.91a6.35,6.35,0,0,1-3.51,1,5.87,5.87,0,0,1-4.42-1.51,6.11,6.11,0,0,1-1.6-4.43,6.23,6.23,0,0,1,.83-3.55,5.23,5.23,0,0,1,2.68-2l.75,3.24A2.91,2.91,0,0,0,46,127l-.62.77a2.4,2.4,0,0,0,.8,2.91,4.17,4.17,0,0,0,2.28.47,4.27,4.27,0,0,0,2.62-.64,2.46,2.46,0,0,0,.09-3.3,3.55,3.55,0,0,0-1.68-.76"/><path class="cls-1" d="M51.05,112.57l1.45-3a5.79,5.79,0,0,1,2,1.39,4.51,4.51,0,0,1,1,1.94,6.81,6.81,0,0,1,0,2.68,7.89,7.89,0,0,1-1,3,4.92,4.92,0,0,1-2.24,1.76,6.29,6.29,0,0,1-3.62.28,5.94,5.94,0,0,1-4.08-2.31,7.33,7.33,0,0,1,.64-8,5.08,5.08,0,0,1,3-1.43l.17,3.33a2.43,2.43,0,0,0-.82.22l-.75.64a2.23,2.23,0,0,0-.37,1,2.19,2.19,0,0,0,.65,2.06,4,4,0,0,0,2.16.88,4.06,4.06,0,0,0,2.68-.14,2,2,0,0,0,1-1.54,2.14,2.14,0,0,0-.31-1.68,3.63,3.63,0,0,0-1.52-1.06"/><path class="cls-1" d="M48.4,97l1.21-3.46L56.07,96a5.8,5.8,0,0,1,1.71,1,4.48,4.48,0,0,1,1.57,3.25,7.57,7.57,0,0,1-.49,2.56,16.06,16.06,0,0,1-.73,1.75,4.87,4.87,0,0,1-1,1.45,4,4,0,0,1-1.35.84,3.47,3.47,0,0,1-1.5.27,6.52,6.52,0,0,1-2-.36l-6.46-2.41,1.21-3.46,6.61,2.47a2,2,0,0,0,1.56,0,2,2,0,0,0,1-1.23,2.05,2.05,0,0,0,0-1.58,2,2,0,0,0-1.22-1Z"/><path class="cls-1" d="M51.58,89.36l3-5.3A4.05,4.05,0,0,1,56.79,82a3.36,3.36,0,0,1,2.75.49,3.69,3.69,0,0,1,1.84,2.36,4.8,4.8,0,0,1-.76,3.37l-1,1.75,3.7,2.22-1.79,3.2Zm6.05-.65.43-.78a2.35,2.35,0,0,0,.42-1.48,1.2,1.2,0,0,0-.58-.85,1.23,1.23,0,0,0-1-.15c-.34.08-.68.42-1,1l-.51.91Z"/><path class="cls-1" d="M69.84,79.1l-2.56,3.24L68.4,84,66.1,87l-6.19-11,2.45-3.11,11.68,4-2.36,3Zm-2.4-1-4-1.69,2.42,3.72Z"/><polygon class="cls-1" points="66.05 68.43 74.22 61.07 76.09 63.29 73.35 65.76 79.05 72.53 76.37 74.95 70.66 68.18 67.92 70.65 66.05 68.43"/><polygon class="cls-1" points="77.27 59.03 80.28 57.04 86.5 67.08 83.5 69.07 77.27 59.03"/><path class="cls-1" d="M86.06,60.19a6.34,6.34,0,0,1-.27-4.82A6,6,0,0,1,89.2,52.1a5.8,5.8,0,0,1,4.69-.32A6,6,0,0,1,97,55.27a7.5,7.5,0,0,1,.67,3.43,5.12,5.12,0,0,1-1,2.71,6.54,6.54,0,0,1-2.67,2,7.24,7.24,0,0,1-3.21.72,4.85,4.85,0,0,1-2.68-1,6.76,6.76,0,0,1-2-2.88m3.29-1.43a4,4,0,0,0,1.58,2.13,2.12,2.12,0,0,0,1.92,0,2.25,2.25,0,0,0,1.34-1.43,4.45,4.45,0,0,0-.47-2.81,3.65,3.65,0,0,0-1.53-2,2.24,2.24,0,0,0-1.94,0A2.21,2.21,0,0,0,89,56.1a4.13,4.13,0,0,0,.39,2.66"/><polygon class="cls-1" points="99.24 48.57 102.52 47.99 107.86 53.74 106.8 47.24 110.11 46.66 112.04 58.41 108.73 58.99 103.41 53.29 104.47 59.74 101.16 60.32 99.24 48.57"/><path class="cls-1" d="M121.44,56.79l-4-.23-.67,1.93-3.64-.21,5-11.66,3.89.23L125.63,59l-3.73-.22Zm-.6-2.61-1-4.36L118.31,54Z"/><polygon class="cls-1" points="129.75 47.91 133.19 48.87 130.93 57.55 136.31 59.04 135.57 61.88 126.76 59.43 129.75 47.91"/><polygon class="cls-1" points="154.12 55.56 163.34 61.34 161.84 63.8 158.75 61.86 154.19 69.37 151.16 67.47 155.72 59.96 152.63 58.02 154.12 55.56"/><polygon class="cls-1" points="166.51 63.8 169.1 66.28 166.34 69.27 169.18 71.98 171.94 68.99 174.55 71.48 166.66 80.02 164.05 77.53 167.24 74.07 164.41 71.36 161.21 74.82 158.62 72.34 166.51 63.8"/><polygon class="cls-1" points="177.53 75.07 183.13 82.93 181.13 84.39 177.63 79.47 176.15 80.57 179.39 85.13 177.49 86.53 174.24 81.97 172.4 83.32 176 88.38 173.89 89.94 168.19 81.94 177.53 75.07"/><path class="cls-1" d="M175,91.76l10.37-5.1,2.59,5.43a8.76,8.76,0,0,1,.84,2.43,2.78,2.78,0,0,1-.33,1.76A3.27,3.27,0,0,1,187,97.59a3,3,0,0,1-3.17-.17,4.39,4.39,0,0,1-1-.94,3.28,3.28,0,0,1,0,1,3.15,3.15,0,0,1-.29.79,4.57,4.57,0,0,1-.43.77l-2.26,3.06-1.75-3.68,2.34-3.3a2.62,2.62,0,0,0,.52-1,1.46,1.46,0,0,0-.14-.91l-.13-.29L176.51,95Zm7.73.24.65,1.37a4.62,4.62,0,0,0,.55.79l.58.37.7-.09a1.07,1.07,0,0,0,.62-.7,2.3,2.3,0,0,0-.31-1.35L184.79,91Z"/><path class="cls-1" d="M184,109.77l-1.09-4-2,0-1-3.56,12.27,1.07,1,3.8-9.92,7.4-1-3.64Zm2.2-1.41,3.65-2.38-4.33-.1Z"/><path class="cls-1" d="M194.87,114.52l.64,6a4.18,4.18,0,0,1-.6,3,3.43,3.43,0,0,1-2.49,1.26,3.5,3.5,0,0,1-2.83-.76,4.66,4.66,0,0,1-1.33-3.13l-.21-2-4.25.47-.39-3.62Zm-4.5,4.16.1.88A2.25,2.25,0,0,0,191,121a1.17,1.17,0,0,0,1,.32,1.26,1.26,0,0,0,.87-.47,2,2,0,0,0,.23-1.41l-.11-1Z"/><polygon class="cls-1" points="196.1 127.15 195.89 131.17 191.89 133.32 195.65 135.89 195.44 139.88 188.99 134.97 184.17 134.72 184.35 131.1 189.18 131.35 196.1 127.15"/><path class="cls-1" d="M131.93,164.31c-.84-.16-3.53-.65-3-1s2.86-2.75,2.86-2.75.68-14.22.17-14.22h-4.7l-10.09-1.13v.48l-4,1.95-2,3.55s-.83,2.26-.5,2.75,1.34,3.55,2,3.55a16.57,16.57,0,0,1,2.52.49l.16,3.71s1.85,1.46,1.69,1.94-1,2.75-1,2.75l.5,2.26s7.73,0,8.74-.16,4.37-.48,4.37-.48,1.85-.33,2-1,1.18-2.59.34-2.75m-15.29-9.86.84-5.82s2,1.94,2,2.43V154Zm5.38,6.14-2.19-.48-.31-2.7-.53.11.51-.32,0,.21,1.65-.37,1,1.77Zm4.7-.8c0,.8-1,.16-2,.32s.16-3.23.16-3.23l2.69.64a6.62,6.62,0,0,0-.84,2.27m1.35-6.79-2.36-.33.34-4.68.67,1.13a12.63,12.63,0,0,0,1.51,2.1c.67.65-.16,1.78-.16,1.78"/><polygon class="cls-5" points="118.99 157.52 119.52 157.41 119.5 157.2 118.99 157.52"/><path class="cls-2" d="M89,116.54l2.57,29s22.8-8.77,31.44,1.26c.45.52,8.56-9.58,29.61-6.58l-2-26.12s-25.76-1.92-30.85,9.53c0,0-16.1-12.15-30.73-7.13"/><path class="cls-1" d="M89,116.54l-.24,0,2.6,29.36.3-.11.1,0c1-.39,9.66-3.5,18-3.5a23.61,23.61,0,0,1,7.3,1,12.5,12.5,0,0,1,5.78,3.7l.12.08.12,0,.17,0,.3-.17c.21-.14.49-.35.84-.62a29.12,29.12,0,0,1,6.82-3.85A36.91,36.91,0,0,1,145.07,140a53.08,53.08,0,0,1,7.53.56l.31,0-2.08-26.64h-.21s-1.64-.12-4.16-.12a62.62,62.62,0,0,0-14.8,1.61,26,26,0,0,0-7.31,3,11.9,11.9,0,0,0-4.82,5.23l.22.1.15-.2a47.53,47.53,0,0,0-7.08-4.19c-4.3-2.1-10.13-4.2-16.24-4.2a23.44,23.44,0,0,0-7.64,1.23l-.18.06,0,.19.24,0,.08.23a23,23,0,0,1,7.48-1.2c6,0,11.76,2.07,16,4.15a48.7,48.7,0,0,1,5.1,2.85c.61.39,1.09.72,1.41.94l.37.26.1.07,0,0,.25.18.13-.28a11.46,11.46,0,0,1,4.63-5,30.83,30.83,0,0,1,11.15-3.7,70.22,70.22,0,0,1,10.7-.78c1.25,0,2.28,0,3,.06l.83,0,.29,0,0-.25-.25,0,2,26.12.25,0,0-.24a54,54,0,0,0-7.6-.56,35.92,35.92,0,0,0-16.47,3.6,28.42,28.42,0,0,0-4,2.48l-1.09.81-.32.21-.08.05h0l0,.09v-.09h0l0,.09v.08l.06-.16h-.06v.17l.06-.16-.07.18.15-.12-.08-.06-.07.18.15-.12a13.13,13.13,0,0,0-6-3.85,24.4,24.4,0,0,0-7.45-1c-9,0-18.24,3.55-18.26,3.56l.09.23.25,0-2.57-29-.25,0,.08.23Z"/><path class="cls-2" d="M91.52,114.81l2.46,29s21-8.34,29.28,1.68c.43.52,14.87-12.87,29-7l-.84-26.34s-23.55-2.91-28.4,8.53c0,0-17.5-10.94-31.47-5.91"/><path class="cls-1" d="M91.52,114.81l-.24,0,2.48,29.36.31-.12.09,0a51,51,0,0,1,16.2-3.2,21.62,21.62,0,0,1,7,1,12.31,12.31,0,0,1,5.66,3.8l.12.09h.11l.19,0,.37-.19c.54-.34,1.48-1,2.75-1.85,3.83-2.51,10.62-6.42,18-6.42a19.29,19.29,0,0,1,7.49,1.48l.35.14L151.63,112l-.21,0a58.72,58.72,0,0,0-6.43-.33,45,45,0,0,0-12.62,1.6,19.38,19.38,0,0,0-5.76,2.73,11.18,11.18,0,0,0-3.85,4.69l.23.09.13-.2a54.4,54.4,0,0,0-7.31-3.64,43.8,43.8,0,0,0-16.24-3.64,24.19,24.19,0,0,0-8.13,1.33l-.18.07,0,.19.24,0,.08.23a23.42,23.42,0,0,1,8-1.31,43.56,43.56,0,0,1,16.06,3.6c2.17.9,4,1.81,5.25,2.48.63.34,1.13.62,1.47.82l.38.22.1.06,0,0,.24.16.11-.27a10.75,10.75,0,0,1,3.68-4.49,22.3,22.3,0,0,1,8.81-3.43,50.36,50.36,0,0,1,9.29-.8c1.86,0,3.45.08,4.58.16l1.32.12.35,0,.12,0,0-.24h-.24l.84,26.35h.24l.1-.23a19.88,19.88,0,0,0-7.68-1.51c-5.57,0-10.75,2.15-14.64,4.28-1.94,1.07-3.56,2.14-4.74,2.94l-1.41,1-.43.26-.12.06h0v0h0v.17l.06-.16h-.06v.17l.06-.16-.07.19.16-.13-.09-.06-.07.19.16-.13a12.89,12.89,0,0,0-5.88-4,22.49,22.49,0,0,0-7.21-1.07,51.49,51.49,0,0,0-16.47,3.27l.09.23.24,0-2.45-29-.25,0,.08.23Z"/><path class="cls-2" d="M95.37,113.36l2.48,26.3s18.41-4.54,25.46,5.44c.25.35.6-.19.6-.19s12.54-12.1,25.87-10.56v-24.3s-22.73.51-27.63,10.88c0,0-12.69-12.12-26.79-7.57"/><path class="cls-1" d="M95.37,113.36l-.24,0L97.63,140l.28-.07h0a43.56,43.56,0,0,1,9.22-1,27.82,27.82,0,0,1,8.72,1.26,14,14,0,0,1,7.21,5.1l.18.16.22.07.28-.09.23-.22.09-.12-.2-.13.16.17,0,0a47.37,47.37,0,0,1,7.44-5.54c4.25-2.58,9.92-5.06,15.86-5.06a20.69,20.69,0,0,1,2.35.13l.27,0V109.8h-.25a67.69,67.69,0,0,0-12,1.55,38.11,38.11,0,0,0-9.32,3.28,14.23,14.23,0,0,0-6.49,6.18l.22.11.17-.18a35,35,0,0,0-6-4.33,29.12,29.12,0,0,0-14.47-4.32,21.3,21.3,0,0,0-6.61,1l-.19.06,0,.2.24,0,.08.23a20.93,20.93,0,0,1,6.46-1,28.59,28.59,0,0,1,14.22,4.27,37.83,37.83,0,0,1,4.3,2.93c.5.4.89.73,1.16,1l.3.27.07.07,0,0,.24.23.15-.31a13.79,13.79,0,0,1,6.28-6A44,44,0,0,1,142.37,111c2.12-.32,4-.49,5.3-.59.67,0,1.2-.07,1.56-.09l.42,0h.14v-.25h-.25v24.3h.25l0-.25a21.44,21.44,0,0,0-2.4-.13c-6.27,0-12.18,2.69-16.53,5.38a47.81,47.81,0,0,0-7.14,5.38l0,0,0,0-.1.13-.07.05h0v0h0V145l0-.05h0V145l0-.05h0v0a14.63,14.63,0,0,0-7.46-5.29,28.68,28.68,0,0,0-8.88-1.29,43.33,43.33,0,0,0-9.39,1.05l.06.23.25,0-2.48-26.3-.25,0,.08.23Z"/><text class="cls-6" transform="matrix(1, -0.07, 0.08, 1.06, 106.37, 133.18)"><tspan class="cls-7">K</tspan><tspan class="cls-8" x="9.57" y="0">O</tspan><tspan class="cls-9" x="19.23" y="0">T</tspan><tspan x="27.41" y="0">A</tspan></text></svg>