<svg id="Layer_1" data-name="Layer 1" xmlns="http://www.w3.org/2000/svg" xmlns:xlink="http://www.w3.org/1999/xlink" viewBox="0 0 245.33 239.63"><defs><style>.cls-1{fill:none;}.cls-2{fill:#c2d234;}.cls-3{fill:#2b2422;}.cls-4{clip-path:url(#clip-path);}.cls-5{fill:url(#radial-gradient);}.cls-6{clip-path:url(#clip-path-2);}.cls-7{fill:url(#radial-gradient-2);}.cls-8{clip-path:url(#clip-path-3);}.cls-9{fill:url(#radial-gradient-3);}.cls-10{clip-path:url(#clip-path-4);}.cls-11{fill:url(#radial-gradient-4);}.cls-12{clip-path:url(#clip-path-5);}.cls-13{fill:url(#radial-gradient-5);}.cls-14{clip-path:url(#clip-path-6);}.cls-15{fill:url(#radial-gradient-6);}.cls-16{clip-path:url(#clip-path-7);}.cls-17{fill:url(#radial-gradient-7);}.cls-18{clip-path:url(#clip-path-8);}.cls-19{fill:url(#radial-gradient-8);}.cls-20{clip-path:url(#clip-path-9);}.cls-21{fill:url(#radial-gradient-9);}.cls-22{clip-path:url(#clip-path-10);}.cls-23{fill:url(#radial-gradient-10);}.cls-24{clip-path:url(#clip-path-11);}.cls-25{fill:url(#radial-gradient-11);}.cls-26{clip-path:url(#clip-path-12);}.cls-27{fill:url(#radial-gradient-12);}.cls-28{clip-path:url(#clip-path-13);}.cls-29{fill:url(#radial-gradient-13);}.cls-30{clip-path:url(#clip-path-14);}.cls-31{fill:url(#radial-gradient-14);}.cls-32{clip-path:url(#clip-path-15);}.cls-33{fill:url(#radial-gradient-15);}.cls-34{clip-path:url(#clip-path-16);}.cls-35{fill:url(#radial-gradient-16);}.cls-36{clip-path:url(#clip-path-17);}.cls-37{fill:url(#radial-gradient-17);}.cls-38{clip-path:url(#clip-path-18);}.cls-39{fill:url(#radial-gradient-18);}.cls-40{clip-path:url(#clip-path-19);}.cls-41{fill:url(#radial-gradient-19);}.cls-42{clip-path:url(#clip-path-20);}.cls-43{fill:url(#radial-gradient-20);}.cls-44{clip-path:url(#clip-path-21);}.cls-45{fill:url(#radial-gradient-21);}.cls-46{clip-path:url(#clip-path-22);}.cls-47{fill:url(#radial-gradient-22);}.cls-48{clip-path:url(#clip-path-23);}.cls-49{fill:url(#radial-gradient-23);}.cls-50{clip-path:url(#clip-path-24);}.cls-51{fill:url(#radial-gradient-24);}.cls-52{clip-path:url(#clip-path-25);}.cls-53{fill:url(#radial-gradient-25);}.cls-54{clip-path:url(#clip-path-26);}.cls-55{fill:url(#radial-gradient-26);}.cls-56{clip-path:url(#clip-path-27);}.cls-57{fill:url(#radial-gradient-27);}.cls-58{clip-path:url(#clip-path-28);}.cls-59{fill:url(#radial-gradient-28);}.cls-60{clip-path:url(#clip-path-29);}.cls-61{fill:url(#radial-gradient-29);}.cls-62{clip-path:url(#clip-path-30);}.cls-63{fill:url(#radial-gradient-30);}.cls-64{clip-path:url(#clip-path-31);}.cls-65{fill:url(#radial-gradient-31);}.cls-66{clip-path:url(#clip-path-32);}.cls-67{fill:url(#radial-gradient-32);}.cls-68{clip-path:url(#clip-path-33);}.cls-69{fill:url(#radial-gradient-33);}.cls-70{clip-path:url(#clip-path-34);}.cls-71{fill:url(#radial-gradient-34);}.cls-72{clip-path:url(#clip-path-35);}.cls-73{fill:url(#radial-gradient-35);}.cls-74{clip-path:url(#clip-path-36);}.cls-75{fill:url(#radial-gradient-36);}.cls-76{clip-path:url(#clip-path-37);}.cls-77{fill:url(#radial-gradient-37);}.cls-78{clip-path:url(#clip-path-38);}.cls-79{fill:url(#radial-gradient-38);}.cls-80{clip-path:url(#clip-path-39);}.cls-81{fill:url(#radial-gradient-39);}.cls-82{clip-path:url(#clip-path-40);}.cls-83{fill:url(#radial-gradient-40);}.cls-84{clip-path:url(#clip-path-41);}.cls-85{fill:url(#radial-gradient-41);}.cls-86{clip-path:url(#clip-path-42);}.cls-87{fill:url(#radial-gradient-42);}.cls-88{clip-path:url(#clip-path-43);}.cls-89{fill:url(#radial-gradient-43);}.cls-90{clip-path:url(#clip-path-44);}.cls-91{fill:url(#radial-gradient-44);}.cls-92{clip-path:url(#clip-path-45);}.cls-93{fill:url(#radial-gradient-45);}.cls-94{clip-path:url(#clip-path-46);}.cls-95{fill:url(#radial-gradient-46);}.cls-96{clip-path:url(#clip-path-47);}.cls-97{fill:url(#radial-gradient-47);}.cls-98{clip-path:url(#clip-path-48);}.cls-99{fill:url(#radial-gradient-48);}.cls-100{clip-path:url(#clip-path-49);}.cls-101{fill:url(#radial-gradient-49);}.cls-102{clip-path:url(#clip-path-50);}.cls-103{fill:url(#radial-gradient-50);}.cls-104{clip-path:url(#clip-path-51);}.cls-105{fill:url(#radial-gradient-51);}.cls-106{clip-path:url(#clip-path-52);}.cls-107{fill:url(#radial-gradient-52);}.cls-108{fill:#fafbfc;}.cls-109{fill:#fdfefe;}.cls-110{fill:#feffff;}</style><clipPath id="clip-path"><path class="cls-1" d="M168.12,187a3.46,3.46,0,1,0,3.46-3.34,3.4,3.4,0,0,0-3.46,3.34"/></clipPath><radialGradient id="radial-gradient" cx="-304.17" cy="1464.78" r="3.41" gradientTransform="matrix(1.01, 0, 0, -0.98, 480.25, 1616.91)" gradientUnits="userSpaceOnUse"><stop offset="0" stop-color="#70c2ee"/><stop offset="0.35" stop-color="#6dc1ed"/><stop offset="0.56" stop-color="#65bdeb"/><stop offset="0.74" stop-color="#57b8e8"/><stop offset="0.89" stop-color="#43afe4"/><stop offset="1" stop-color="#2fa7df"/></radialGradient><clipPath id="clip-path-2"><path class="cls-1" d="M178.94,181.05a3.46,3.46,0,1,0,3.46-3.34,3.39,3.39,0,0,0-3.46,3.34"/></clipPath><radialGradient id="radial-gradient-2" cx="-296.63" cy="1469.06" r="3.41" gradientTransform="matrix(1.01, 0, 0, -0.98, 483.42, 1615.17)" xlink:href="#radial-gradient"/><clipPath id="clip-path-3"><path class="cls-1" d="M180.7,185.55a3.32,3.32,0,0,0,2.66,3.95,3.45,3.45,0,0,0,4.11-2.55,3.33,3.33,0,0,0-2.65-4,3.71,3.71,0,0,0-.74-.07,3.43,3.43,0,0,0-3.38,2.63"/></clipPath><radialGradient id="radial-gradient-3" cx="-429.08" cy="1439.94" r="3.41" gradientTransform="matrix(0.99, 0.21, 0.21, -0.95, 301.48, 1648.68)" xlink:href="#radial-gradient"/><clipPath id="clip-path-4"><path class="cls-1" d="M174.21,193.7a3.34,3.34,0,0,0,2.65,4,3.46,3.46,0,0,0,4.12-2.55,3.34,3.34,0,0,0-2.66-4,3.61,3.61,0,0,0-.73-.07,3.42,3.42,0,0,0-3.38,2.62"/></clipPath><radialGradient id="radial-gradient-4" cx="-432.26" cy="1433.22" r="3.41" gradientTransform="matrix(0.99, 0.21, 0.21, -0.95, 299.58, 1651.07)" xlink:href="#radial-gradient"/><clipPath id="clip-path-5"><path class="cls-1" d="M185.34,173.22a2.89,2.89,0,1,0,2.86-3.33,3.12,3.12,0,0,0-2.86,3.33"/></clipPath><radialGradient id="radial-gradient-5" cx="-303.02" cy="1474.73" r="3.41" gradientTransform="matrix(0.84, 0, 0, -0.98, 441.88, 1612.88)" xlink:href="#radial-gradient"/><clipPath id="clip-path-6"><path class="cls-1" d="M192,175.84a2.89,2.89,0,1,0,2.86-3.33,3.13,3.13,0,0,0-2.86,3.33"/></clipPath><radialGradient id="radial-gradient-6" cx="-297.36" cy="1472.83" r="3.41" gradientTransform="matrix(0.84, 0, 0, -0.98, 443.85, 1613.65)" xlink:href="#radial-gradient"/><clipPath id="clip-path-7"><path class="cls-1" d="M195.16,167.43a2.93,2.93,0,1,0,2.9-3.33,3.14,3.14,0,0,0-2.9,3.33"/></clipPath><radialGradient id="radial-gradient-7" cx="-293.92" cy="1478.92" r="3.41" gradientTransform="matrix(0.85, 0, 0, -0.98, 447.87, 1611.18)" xlink:href="#radial-gradient"/><clipPath id="clip-path-8"><path class="cls-1" d="M197.93,158.86c0,1.84,1.15,3.33,2.56,3.33s2.55-1.49,2.55-3.33-1.14-3.33-2.55-3.33-2.56,1.49-2.56,3.33"/></clipPath><radialGradient id="radial-gradient-8" cx="-298.48" cy="1485.12" r="3.41" gradientTransform="matrix(0.75, 0, 0, -0.98, 423.87, 1608.67)" xlink:href="#radial-gradient"/><clipPath id="clip-path-9"><path class="cls-1" d="M208.58,157.61a2.82,2.82,0,1,0,2.77-3.33,3.09,3.09,0,0,0-2.77,3.33"/></clipPath><radialGradient id="radial-gradient-9" cx="-284.72" cy="1486.03" r="3.41" gradientTransform="matrix(0.81, 0, 0, -0.98, 442.49, 1608.3)" xlink:href="#radial-gradient"/><clipPath id="clip-path-10"><path class="cls-1" d="M209.36,147.54c0,1.83,1,3.33,2.33,3.33s2.34-1.5,2.34-3.33-1.05-3.34-2.34-3.34-2.33,1.5-2.33,3.34"/></clipPath><radialGradient id="radial-gradient-10" cx="-292.01" cy="1493.32" r="3.41" gradientTransform="matrix(0.68, 0, 0, -0.98, 411.71, 1605.35)" xlink:href="#radial-gradient"/><clipPath id="clip-path-11"><path class="cls-1" d="M213,129.49a2.87,2.87,0,1,0,2.83-3.33,3.11,3.11,0,0,0-2.83,3.33"/></clipPath><radialGradient id="radial-gradient-11" cx="-279.98" cy="1506.39" r="3.41" gradientTransform="matrix(0.83, 0, 0, -0.98, 448.31, 1600.06)" xlink:href="#radial-gradient"/><clipPath id="clip-path-12"><path class="cls-1" d="M213.88,124.33a2.87,2.87,0,1,0,2.83-3.33,3.11,3.11,0,0,0-2.83,3.33"/></clipPath><radialGradient id="radial-gradient-12" cx="-279.24" cy="1510.12" r="3.41" gradientTransform="matrix(0.83, 0, 0, -0.98, 448.56, 1598.55)" xlink:href="#radial-gradient"/><clipPath id="clip-path-13"><path class="cls-1" d="M204.42,108.65a3,3,0,1,0,3-3.33,3.18,3.18,0,0,0-3,3.33"/></clipPath><radialGradient id="radial-gradient-13" cx="-284.91" cy="1521.47" r="3.41" gradientTransform="matrix(0.88, 0, 0, -0.98, 456.78, 1593.95)" xlink:href="#radial-gradient"/><clipPath id="clip-path-14"><path class="cls-1" d="M207.36,96.92a2.78,2.78,0,1,0,2.73-3.33c-1.5,0-2.73,1.49-2.73,3.33"/></clipPath><radialGradient id="radial-gradient-14" cx="-286.49" cy="1529.98" r="3.41" gradientTransform="matrix(0.8, 0, 0, -0.98, 439.04, 1590.51)" xlink:href="#radial-gradient"/><clipPath id="clip-path-15"><path class="cls-1" d="M170.69,54.76a2.23,2.23,0,1,0,2.19-2.68,2.47,2.47,0,0,0-2.19,2.68"/></clipPath><radialGradient id="radial-gradient-15" cx="-337.9" cy="1739.36" r="3.41" gradientTransform="matrix(0.64, 0, 0, -0.78, 390.02, 1420.15)" xlink:href="#radial-gradient"/><clipPath id="clip-path-16"><path class="cls-1" d="M148.76,43.11c-1,1.68-.87,3.52.23,4.1s2.76-.3,3.73-2,.86-3.52-.23-4.1a1.56,1.56,0,0,0-.74-.18,3.89,3.89,0,0,0-3,2.17"/></clipPath><radialGradient id="radial-gradient-16" cx="-893.48" cy="1412.45" r="3.41" gradientTransform="matrix(0.58, 0.31, 0.51, -0.89, -55.98, 1581.33)" xlink:href="#radial-gradient"/><clipPath id="clip-path-17"><path class="cls-1" d="M175,47a3.09,3.09,0,1,0,3.08-3.21A3.14,3.14,0,0,0,175,47"/></clipPath><radialGradient id="radial-gradient-17" cx="-306.55" cy="1594.11" r="3.41" gradientTransform="matrix(0.9, 0, 0, -0.94, 455.07, 1546.48)" xlink:href="#radial-gradient"/><clipPath id="clip-path-18"><path class="cls-1" d="M160.05,44.55a2.75,2.75,0,1,0,5.41,0,2.74,2.74,0,1,0-5.41,0"/></clipPath><radialGradient id="radial-gradient-18" cx="-329.11" cy="1595.93" r="3.41" gradientTransform="matrix(0.79, 0, 0, -0.94, 423.45, 1545.77)" xlink:href="#radial-gradient"/><clipPath id="clip-path-19"><path class="cls-1" d="M196.71,75.49c-1.85,2.83-2.12,5.88-.6,6.79s4.25-.63,6.1-3.47,2.12-5.87.6-6.78a1.93,1.93,0,0,0-1-.27c-1.54,0-3.6,1.45-5.09,3.73"/></clipPath><radialGradient id="radial-gradient-19" cx="-688.17" cy="1148.5" r="3.41" gradientTransform="matrix(0.81, 0.49, 0.98, -1.5, -373.75, 2138.81)" xlink:href="#radial-gradient"/><clipPath id="clip-path-20"><path class="cls-1" d="M196,65.54c-1.86,2.84-2.12,5.88-.61,6.79s4.25-.63,6.1-3.46,2.12-5.87.6-6.79a1.91,1.91,0,0,0-1-.27c-1.54,0-3.6,1.45-5.08,3.73"/></clipPath><radialGradient id="radial-gradient-20" cx="-692.69" cy="1151.72" r="3.41" gradientTransform="matrix(0.81, 0.49, 0.98, -1.5, -373.94, 2135.89)" xlink:href="#radial-gradient"/><clipPath id="clip-path-21"><path class="cls-1" d="M183.86,59.88c-2.34,3.57-2.82,7.33-1.08,8.37s5-1,7.37-4.57,2.82-7.33,1.09-8.38a2.09,2.09,0,0,0-1.06-.27c-1.82,0-4.4,1.91-6.32,4.85"/></clipPath><radialGradient id="radial-gradient-21" cx="-644.11" cy="1083.59" r="3.41" gradientTransform="matrix(0.92, 0.56, 1.24, -1.9, -561.89, 2477.66)" xlink:href="#radial-gradient"/><clipPath id="clip-path-22"><path class="cls-1" d="M199.66,144.37a2.93,2.93,0,1,0,2.9-3.33,3.14,3.14,0,0,0-2.9,3.33"/></clipPath><radialGradient id="radial-gradient-22" cx="-290.18" cy="1495.61" r="3.41" gradientTransform="matrix(0.85, 0, 0, -0.98, 449.18, 1604.42)" xlink:href="#radial-gradient"/><clipPath id="clip-path-23"><path class="cls-1" d="M152.79,39.39c-.79,2-.41,3.94.85,4.4s2.92-.74,3.72-2.71.4-3.94-.85-4.41a1.63,1.63,0,0,0-.57-.1c-1.16,0-2.47,1.13-3.15,2.82"/></clipPath><radialGradient id="radial-gradient-23" cx="-719.15" cy="1409.11" r="3.41" gradientTransform="matrix(0.67, 0.25, 0.42, -1.04, 44.03, 1690.65)" xlink:href="#radial-gradient"/><clipPath id="clip-path-24"><path class="cls-1" d="M82.5,189.5a3.09,3.09,0,1,0,3.08-3.33,3.21,3.21,0,0,0-3.08,3.33"/></clipPath><radialGradient id="radial-gradient-24" cx="-378.98" cy="1462.94" r="3.41" gradientTransform="matrix(0.9, 0, 0, -0.98, 427.87, 1617.65)" xlink:href="#radial-gradient"/><clipPath id="clip-path-25"><path class="cls-1" d="M76.3,195.47a3.09,3.09,0,1,0,3.08-3.34,3.21,3.21,0,0,0-3.08,3.34"/></clipPath><radialGradient id="radial-gradient-25" cx="-383.83" cy="1458.62" r="3.41" gradientTransform="matrix(0.9, 0, 0, -0.98, 426.05, 1619.4)" xlink:href="#radial-gradient"/><clipPath id="clip-path-26"><path class="cls-1" d="M70.32,182a3.09,3.09,0,1,0,3.08-3.33A3.21,3.21,0,0,0,70.32,182"/></clipPath><radialGradient id="radial-gradient-26" cx="-388.51" cy="1468.39" r="3.41" gradientTransform="matrix(0.9, 0, 0, -0.98, 424.29, 1615.44)" xlink:href="#radial-gradient"/><clipPath id="clip-path-27"><path class="cls-1" d="M70.53,187A2.46,2.46,0,1,0,73,184.18,2.66,2.66,0,0,0,70.53,187"/></clipPath><radialGradient id="radial-gradient-27" cx="-427.94" cy="1574.03" r="3.41" gradientTransform="matrix(0.71, 0, 0, -0.83, 377.58, 1499.01)" xlink:href="#radial-gradient"/><clipPath id="clip-path-28"><path class="cls-1" d="M54.91,168.18A3.09,3.09,0,1,0,58,164.85a3.21,3.21,0,0,0-3.08,3.33"/></clipPath><radialGradient id="radial-gradient-28" cx="-400.57" cy="1478.38" r="3.41" gradientTransform="matrix(0.9, 0, 0, -0.98, 419.78, 1611.4)" xlink:href="#radial-gradient"/><clipPath id="clip-path-29"><path class="cls-1" d="M53.61,160.17a2.68,2.68,0,1,0,2.66-3,2.87,2.87,0,0,0-2.66,3"/></clipPath><radialGradient id="radial-gradient-29" cx="-427.71" cy="1547.02" r="3.41" gradientTransform="matrix(0.78, 0, 0, -0.89, 388.5, 1538.72)" xlink:href="#radial-gradient"/><clipPath id="clip-path-30"><path class="cls-1" d="M42.21,158.63a3,3,0,1,0,3-3,3,3,0,0,0-3,3"/></clipPath><radialGradient id="radial-gradient-30" cx="-413.77" cy="1548.24" r="3.41" gradientTransform="matrix(0.89, 0, 0, -0.89, 411.88, 1538.27)" xlink:href="#radial-gradient"/><clipPath id="clip-path-31"><path class="cls-1" d="M41.89,158.68a3.17,3.17,0,1,0,3.16-3,3.1,3.1,0,0,0-3.16,3"/></clipPath><radialGradient id="radial-gradient-31" cx="-406.14" cy="1548.2" r="3.41" gradientTransform="matrix(0.93, 0, 0, -0.89, 422.14, 1538.28)" xlink:href="#radial-gradient"/><clipPath id="clip-path-32"><path class="cls-1" d="M41.35,148.63a3.17,3.17,0,1,0,3.17-3,3.11,3.11,0,0,0-3.17,3"/></clipPath><radialGradient id="radial-gradient-32" cx="-406.55" cy="1556.17" r="3.41" gradientTransform="matrix(0.93, 0, 0, -0.89, 421.98, 1535.33)" xlink:href="#radial-gradient"/><clipPath id="clip-path-33"><path class="cls-1" d="M41.28,148.72a3.17,3.17,0,1,0,3.17-3,3.11,3.11,0,0,0-3.17,3"/></clipPath><radialGradient id="radial-gradient-33" cx="-406.6" cy="1556.1" r="3.41" gradientTransform="matrix(0.93, 0, 0, -0.89, 421.96, 1535.36)" xlink:href="#radial-gradient"/><clipPath id="clip-path-34"><path class="cls-1" d="M49.81,145.65a3.17,3.17,0,1,0,3.16-3,3.09,3.09,0,0,0-3.16,3"/></clipPath><radialGradient id="radial-gradient-34" cx="-400.11" cy="1558.54" r="3.41" gradientTransform="matrix(0.93, 0, 0, -0.89, 424.46, 1534.46)" xlink:href="#radial-gradient"/><clipPath id="clip-path-35"><path class="cls-1" d="M49.74,145.82a3.17,3.17,0,1,0,3.16-3,3.1,3.1,0,0,0-3.16,3"/></clipPath><radialGradient id="radial-gradient-35" cx="-400.17" cy="1558.4" r="3.41" gradientTransform="matrix(0.93, 0, 0, -0.89, 424.44, 1534.51)" xlink:href="#radial-gradient"/><clipPath id="clip-path-36"><path class="cls-1" d="M37.06,124.09a2.86,2.86,0,0,0,2.64,3,3.07,3.07,0,0,0,0-6.08,2.86,2.86,0,0,0-2.64,3"/></clipPath><radialGradient id="radial-gradient-36" cx="-442.92" cy="1575.64" r="3.41" gradientTransform="matrix(0.78, 0, 0, -0.89, 383.51, 1528.14)" xlink:href="#radial-gradient"/><clipPath id="clip-path-37"><path class="cls-1" d="M64.48,174.48a3.09,3.09,0,1,0,3.08-3.33,3.21,3.21,0,0,0-3.08,3.33"/></clipPath><radialGradient id="radial-gradient-37" cx="-393.08" cy="1473.81" r="3.41" gradientTransform="matrix(0.9, 0, 0, -0.98, 422.58, 1613.25)" xlink:href="#radial-gradient"/><clipPath id="clip-path-38"><path class="cls-1" d="M58.76,176.75a3.37,3.37,0,1,0,3.35-3,3.18,3.18,0,0,0-3.35,3"/></clipPath><radialGradient id="radial-gradient-38" cx="-384.95" cy="1545.08" r="3.41" gradientTransform="matrix(0.98, 0, 0, -0.88, 440.26, 1532.1)" xlink:href="#radial-gradient"/><clipPath id="clip-path-39"><path class="cls-1" d="M38.55,129.21a2.86,2.86,0,0,0,2.64,3,3.07,3.07,0,0,0,0-6.08,2.86,2.86,0,0,0-2.64,3"/></clipPath><radialGradient id="radial-gradient-39" cx="-441.56" cy="1571.58" r="3.41" gradientTransform="matrix(0.78, 0, 0, -0.89, 383.95, 1529.64)" xlink:href="#radial-gradient"/><clipPath id="clip-path-40"><path class="cls-1" d="M46,110.15c0,1.9,1.19,3.45,2.65,3.45s2.65-1.55,2.65-3.45-1.19-3.45-2.65-3.45S46,108.24,46,110.15"/></clipPath><radialGradient id="radial-gradient-40" cx="-434.77" cy="1496.33" r="3.41" gradientTransform="matrix(0.78, 0, 0, -1.01, 386.13, 1623.36)" xlink:href="#radial-gradient"/><clipPath id="clip-path-41"><path class="cls-1" d="M44.09,98.05c0,1.91,1.18,3.45,2.65,3.45s2.64-1.54,2.64-3.45S48.2,94.6,46.74,94.6s-2.65,1.55-2.65,3.45"/></clipPath><radialGradient id="radial-gradient-41" cx="-436.52" cy="1504.78" r="3.41" gradientTransform="matrix(0.78, 0, 0, -1.01, 385.57, 1619.82)" xlink:href="#radial-gradient"/><clipPath id="clip-path-42"><path class="cls-1" d="M53.57,66.89c0,1.91,1.18,3.45,2.65,3.45s2.64-1.54,2.64-3.45-1.18-3.45-2.64-3.45S53.57,65,53.57,66.89"/></clipPath><radialGradient id="radial-gradient-42" cx="-427.88" cy="1526.56" r="3.41" gradientTransform="matrix(0.78, 0, 0, -1.01, 388.35, 1610.68)" xlink:href="#radial-gradient"/><clipPath id="clip-path-43"><path class="cls-1" d="M75.73,48c0,1.91,1.19,3.45,2.65,3.45S81,49.94,81,48s-1.19-3.45-2.65-3.45S75.73,46.13,75.73,48"/></clipPath><radialGradient id="radial-gradient-43" cx="-407.7" cy="1539.74" r="3.41" gradientTransform="matrix(0.78, 0, 0, -1.01, 394.85, 1605.16)" xlink:href="#radial-gradient"/><clipPath id="clip-path-44"><path class="cls-1" d="M81.06,55.26a2.37,2.37,0,1,0,2.33-2.79,2.59,2.59,0,0,0-2.33,2.79"/></clipPath><radialGradient id="radial-gradient-44" cx="-425.06" cy="1704.25" r="3.41" gradientTransform="matrix(0.68, 0, 0, -0.82, 373.5, 1445.89)" xlink:href="#radial-gradient"/><clipPath id="clip-path-45"><path class="cls-1" d="M91.4,46.85a2.36,2.36,0,1,0,2.32-2.78,2.59,2.59,0,0,0-2.32,2.78"/></clipPath><radialGradient id="radial-gradient-45" cx="-414.36" cy="1711.53" r="3.41" gradientTransform="matrix(0.68, 0, 0, -0.82, 376.53, 1443.43)" xlink:href="#radial-gradient"/><clipPath id="clip-path-46"><path class="cls-1" d="M98.11,39.78a2.36,2.36,0,1,0,4.65,0,2.36,2.36,0,1,0-4.65,0"/></clipPath><radialGradient id="radial-gradient-46" cx="-407.41" cy="1717.66" r="3.41" gradientTransform="matrix(0.68, 0, 0, -0.82, 378.5, 1441.36)" xlink:href="#radial-gradient"/><clipPath id="clip-path-47"><path class="cls-1" d="M100.35,42.65a2.37,2.37,0,1,0,2.32-2.78,2.58,2.58,0,0,0-2.32,2.78"/></clipPath><radialGradient id="radial-gradient-47" cx="-405.09" cy="1715.17" r="3.41" gradientTransform="matrix(0.68, 0, 0, -0.82, 379.15, 1442.2)" xlink:href="#radial-gradient"/><clipPath id="clip-path-48"><path class="cls-1" d="M102.27,45.42a2.36,2.36,0,1,0,2.32-2.79,2.58,2.58,0,0,0-2.32,2.79"/></clipPath><radialGradient id="radial-gradient-48" cx="-403.1" cy="1712.78" r="3.41" gradientTransform="matrix(0.68, 0, 0, -0.82, 379.72, 1443.01)" xlink:href="#radial-gradient"/><clipPath id="clip-path-49"><path class="cls-1" d="M52.29,76.53c0,1.9,1.19,3.44,2.65,3.44s2.65-1.54,2.65-3.44-1.19-3.45-2.65-3.45-2.65,1.54-2.65,3.45"/></clipPath><radialGradient id="radial-gradient-49" cx="-429.04" cy="1519.83" r="3.41" gradientTransform="matrix(0.78, 0, 0, -1.01, 387.97, 1613.51)" xlink:href="#radial-gradient"/><clipPath id="clip-path-50"><path class="cls-1" d="M55.27,80.11c0,1.91,1.19,3.46,2.65,3.46s2.65-1.55,2.65-3.46-1.19-3.44-2.65-3.44-2.65,1.54-2.65,3.44"/></clipPath><radialGradient id="radial-gradient-50" cx="-426.33" cy="1517.32" r="3.41" gradientTransform="matrix(0.78, 0, 0, -1.01, 388.85, 1614.56)" xlink:href="#radial-gradient"/><clipPath id="clip-path-51"><path class="cls-1" d="M66.47,55.57c-1.29.23-1.93,2.57-1.42,5.22s2,4.62,3.26,4.39,1.93-2.57,1.42-5.22-1.82-4.41-3-4.41l-.21,0"/></clipPath><radialGradient id="radial-gradient-51" cx="-241.8" cy="1332.28" r="3.41" gradientTransform="matrix(0.69, -0.12, -0.27, -1.41, 592.54, 1907.19)" xlink:href="#radial-gradient"/><clipPath id="clip-path-52"><path class="cls-1" d="M70,58.15c-1.56.28-2.34,3-1.74,6.16s2.35,5.43,3.9,5.16,2.34-3,1.74-6.16c-.57-3-2.16-5.18-3.65-5.18l-.25,0"/></clipPath><radialGradient id="radial-gradient-52" cx="-239.54" cy="1254.29" r="3.41" gradientTransform="matrix(0.83, -0.15, -0.32, -1.66, 667.15, 2108.81)" xlink:href="#radial-gradient"/></defs><path class="cls-2" d="M59.19,163.13l-4-6.3-.64-7.22,3-8.46s2.08-8.77.48-9.69S53,135.61,53,135.61l-2.23,3.69s-1.6-1.38-1.6-2-.8-7.22-.48-7.84,3.35-4.61,3.83-5.84,2.4-5.84,3.36-7.53a27.54,27.54,0,0,0,1.76-4.16l-6.71.93-4,5.38s-1-8.77-.64-9.38,1.12-3.69,2.4-4.61,7.67-7.38,8.15-7.84,5.59-4.16,5.59-4.16l-7.67-.76s-.48-2.62.16-3.08,5.27-2,5.43-2.46,4.73-4.11,3.52-4c-11.51,1.08,2.24-2.15,3-1.84s7.19-9.38,7.67-9.84a21.88,21.88,0,0,0,1.76-3.08L67.5,69.34l5.59-5.53,3.84-4.3,6.71,2,9.11-3.7-9-3.38L90,51.05s4.8,4,5.28,3.69a53.47,53.47,0,0,0,3.35-5.08,20.94,20.94,0,0,0,4,1.7c1.12.15,9-.77,9-.77s4.16-2.77,3.2-3.08-8.32-1.38-8.32-1.38l6.56-3.69L116,38s-4.37.1-5.17.56-7.19,3.7-7.19,3.7l1.28-12.92S93,34.65,93.6,41.93s-.37.36-.37.36l-2.72-3.85-3.19-.15-3.2,5.22,1.6,4.16-4,3.84s-4.15-4.61-4.15-5.69-1.12-6.15-1.12-6.15L72,42.29s-2.4,10.14-2.55,10.61-1.28,3.22-1,3.68,0,5.54,0,5.54l-6.39,4.76L58.55,70l-4.64-9.69-.48,11.07L54.87,76l-4.64,2.92-2.07,2.77.8,6s-3.52,5.54-2.88,6S40,87.18,39.21,81.8c0,0-1.6,11.38,2.55,17.22,0,0,.64,6.3,0,6.46s-.79,4.15-1.11,5.38,1.91,10.14,1.27,9.53-11.34-10.76-11.34-10.76S29.14,117,32.5,121.47s5.91,3.84,5.91,3.84,3.19,2.62,2.72,2.77-.16,4.3-1,4.46a20.45,20.45,0,0,0-3.36,1.69l4.79,1.54s3.68,4.61,3.52,5.38,0,3.69-1.12,3.23-11.66-6-12-5.54,3.68,9.53,3.68,9.53L41,151.29l4.63.47s-1.12,4.3,0,5.38a11,11,0,0,0,4.47,2,40.28,40.28,0,0,1,4,1.23l2.24,4.46s-7.35,1.07-7.83.92l-5.94-1.91s1.78,8.52,13.13,8.36L63,173.9l4.16,1.54-2.56-6.93s-2.08-4.45-2.72-4.76a15.62,15.62,0,0,0-2.71-.62"/><path class="cls-2" d="M105.35,28.26s0,11.82-1.09,13.77-.22.51-.22.51S110.12,37.42,116,38c0,0,.42,4-6.82,7.49l-1,.49c-5.53,2.67.59-.19.59-.19l7.78,1.23s-10.34,8.2-16.73,2.67-.1-.21-.1-.21l-2-.2-.43,3.48s-3.62,1.54-4.47.31a5.22,5.22,0,0,0-2.24-1.74l-2.23.72L86,54.33l-4.27-1.85L84,50.13s1-4.31,1-4.72-.32-2.87-.32-2.87l4.48-4.3s2.55,3.07,2.55,3.48,1.85.52,1.92.21,2-11,11.75-13.59"/><path class="cls-3" d="M147.86,97.75a5.18,5.18,0,1,0-5.38-5.18,5.28,5.28,0,0,0,5.38,5.18"/><path class="cls-3" d="M150.54,112l16.31-15-.16-7.38L145.85,106,127.29,89.42l-.17-.14L127,97.51l13.24,12.27L128.45,119v-6.56a3.39,3.39,0,0,0,2.26-3.16,3.53,3.53,0,0,0-7.06,0,3.41,3.41,0,0,0,2.53,3.25v6l-.67-.48L113,108.62l12-10.33-.48-8.47L109.27,103.6V96.71a5.22,5.22,0,0,0,4-5,5.38,5.38,0,0,0-10.76,0,5.2,5.2,0,0,0,3.86,5v7.61L89.57,88.5,88.77,97l16.71,14.13V127L87.72,142.72l1.37,7.92,18.65-16.47,8.4,6.61-5.81,3.57,1.45,5.52,15.74-11L141,150l.08,2.48,5.81,3.18v-21.9h3.64V155l6.78-4.35.08-16.7,5.09-.54-11.71-9.79Zm-43.29-6.84h.34l-.17.16Zm17.53,29.37s-3.88,2.87-4.44,3.26L111,128V113.28l13.81,8.78Zm10.09-1.25,6.06.78v8.47l-.16-.16L130,134.56v-12.5l14-9.71.16,11.34Z"/><g class="cls-4"><rect class="cls-5" x="168.12" y="183.62" width="6.92" height="6.66"/></g><path class="cls-2" d="M173.14,189.37s-1.75-9.07,5.28-20.76c0,0,5.27,6.92,3.51,14.15s-.48.15-.48.15,1.1-2.27,7.2-7.71l.16-.13c6.23-5.53,2.87-.62,2.87-.62s-1.28,8.46-5.59,10.77c0,0,12-2.62,12-1.39,0,0,1.75,11.69-21.9,8.15l-4.16.31Z"/><path class="cls-2" d="M188,170.87s-1.65-7.5,5-17.16c0,0,5,5.72,3.31,11.7s-.45.12-.45.12,1-1.87,6.76-6.37l.15-.11c5.86-4.58,2.7-.51,2.7-.51s-1.2,7-5.26,8.9c0,0,12.69-5.6,12.69-4.59,0,0,.24,13.11-22,10.18l-3.91.26Z"/><path class="cls-2" d="M201.63,154.22s-5-12.14-2.74-23.5c0,0,7,4.27,7.87,10.4s0,5.29,0,5.29.37-14,.64-14.78c2.35-7.08,4.16,2,5.46,4.78,0,0,1.67,6.9-1.32,10.16,0,0,1-4.07,4.17-5.61,2.59-1.25,5.54-3.75,5.73-3.3,0,0,5.43,12-16.28,17.5l-.45,3.53-3.06-1.85Z"/><path class="cls-2" d="M208.15,133.56s-7.39-11-7.48-22.52c0,0,7.76,2.87,9.84,8.72s1.05,5.18,1.05,5.18-2.49-13.77-2.39-14.6c.86-7.39,4.5,1.18,6.33,3.65,0,0,3.05,6.45.78,10.21,0,0,.12-4.18,2.94-6.29,2.29-1.71,4.67-4.72,4.95-4.32,0,0,7.78,10.76-12.39,20.24l.28,3.54-3.38-1.24Z"/><path class="cls-2" d="M209.66,106.85c-8.86-7-9.24-8.48-15.29-16.13,0,0,8.23-1.11,13,3s-8-7.13-8.64-8.35c-3.59-6.59,7.25-.33,10.1,1,0,0,5.91,4.23,5.82,8.57,0,0-2-3.7-.59-6.87,1.14-2.56,1.7-6.3,2.15-6.08,0,0,8.62,10.34-.65,23.48l-.39,7.24-4.32-1.14Z"/><path class="cls-2" d="M201.28,89.7c-6.51-5.13-6.79-6.23-11.25-11.86,0,0,6.06-.81,9.56,2.24s-5.86-5.24-6.35-6.15c-2.64-4.84,5.33-.23,7.43.72,0,0,4.35,3.11,4.28,6.3,0,0-1.47-2.72-.44-5,.84-1.88,1.25-4.63,1.58-4.47,0,0,6.34,7.6-.47,17.26L205.33,94l-3.18-.84Z"/><path class="cls-2" d="M184.25,61.61c-3.86-.47-8.54-.11-10.7-.58-3.78-.84-4.11-2.64-9.63-4.48,0,0,6.14-4.11,12.05-3.15s-10-1.74-11.12-2.32c-6.14-3.15,5.74-3.17,8.69-3.42,0,0,6.87.56,8.93,3.63,0,0-3.44-1.78-3.85-4.55-.34-2.26-.8-8-.32-8,0,0,11.16,6.57,10.07,19.49l3.23,5.22-4.07,1Z"/><path class="cls-2" d="M159.62,47.29A13,13,0,0,1,149,50.54c-3.77-.84-4.11-2.64-9.63-4.48a73.39,73.39,0,0,1,9.17-2.49c1.43-.26,1.38-.9,2.88-.66,3.4.56-1.13.63-5.2-.14a21.25,21.25,0,0,1-5.91-2.18c-6.14-3.14,5.73-3.16,8.68-3.41,0,0,6.88.55,8.93,3.62,0,0-5.15-1.48-5.56-4.26-.33-2.25-1.86-9.29-1.38-9.32,0,0,13.93,7.63,12.84,20.56l1.71,1.64-2.66.69Z"/><path class="cls-2" d="M169.59,51.06c-2.33-.28-3.28.09-4.58-.2-.91-.2-2.27,1.79-2.93,1.92-1,.19-.1,1.66-3.6-2-1.54-1.6-.55-2.66-1.19-2.81,0,0,3.72-2.49,7.29-1.91s-6-1.05-6.72-1.4c-3.72-1.9,3.47-1.92,5.25-2.07,0,0,4.16.34,5.4,2.19,0,0-2.08-1.07-2.33-2.75-.19-1.37-.48-4.81-.19-4.82,0,0,6.75,4,6.09,11.8l2,3.15-2.46.58Z"/><path class="cls-2" d="M200,77.94c-.27-8.1-1-9-2.93-15.81,0,0-4.36,4.13-4,8.66s-.75-7.67-1.2-8.59c-2.38-5-3.44,3.92-3.93,6.1,0,0-.09,5.21,2.59,7.11,0,0-1.35-2.78-3.9-3.41-2.07-.51-4.58-1.87-4.65-1.52,0,0,2.4,9.47,14.52,10.15l4.57,3,1.24-2.94Z"/><g class="cls-6"><rect class="cls-7" x="178.94" y="177.71" width="6.92" height="6.66"/></g><g class="cls-8"><polygon class="cls-9" points="180.63 181.41 189.37 183.23 187.54 191.39 178.8 189.58 180.63 181.41"/></g><g class="cls-10"><polygon class="cls-11" points="174.15 189.57 182.88 191.39 181.04 199.56 172.31 197.74 174.15 189.57"/></g><g class="cls-12"><rect class="cls-13" x="185.34" y="169.89" width="5.71" height="6.66"/></g><g class="cls-14"><rect class="cls-15" x="192.04" y="172.51" width="5.71" height="6.66"/></g><g class="cls-16"><rect class="cls-17" x="195.16" y="164.1" width="5.8" height="6.66"/></g><g class="cls-18"><rect class="cls-19" x="197.93" y="155.53" width="5.11" height="6.66"/></g><g class="cls-20"><rect class="cls-21" x="208.58" y="154.28" width="5.54" height="6.66"/></g><g class="cls-22"><rect class="cls-23" x="209.36" y="144.2" width="4.67" height="6.67"/></g><g class="cls-24"><rect class="cls-25" x="213.01" y="126.16" width="5.66" height="6.66"/></g><g class="cls-26"><rect class="cls-27" x="213.88" y="121" width="5.67" height="6.66"/></g><g class="cls-28"><rect class="cls-29" x="204.42" y="105.32" width="5.97" height="6.66"/></g><g class="cls-30"><rect class="cls-31" x="207.36" y="93.59" width="5.45" height="6.66"/></g><g class="cls-32"><rect class="cls-33" x="170.69" y="52.08" width="4.38" height="5.36"/></g><g class="cls-34"><polygon class="cls-35" points="149.17 38.54 156.71 42.55 152.31 50.2 144.77 46.19 149.17 38.54"/></g><g class="cls-36"><rect class="cls-37" x="175.01" y="43.76" width="6.16" height="6.42"/></g><g class="cls-38"><rect class="cls-39" x="160.05" y="41.35" width="5.4" height="6.42"/></g><g class="cls-40"><polygon class="cls-41" points="197.35 67.55 209.68 75 201.57 87.42 189.24 79.97 197.35 67.55"/></g><g class="cls-42"><polygon class="cls-43" points="196.67 57.59 209.01 65.05 200.9 77.47 188.56 70.02 196.67 57.59"/></g><g class="cls-44"><polygon class="cls-45" points="184.42 49.86 199.66 59.07 189.6 74.47 174.35 65.26 184.42 49.86"/></g><g class="cls-46"><rect class="cls-47" x="199.66" y="141.04" width="5.8" height="6.66"/></g><g class="cls-48"><polygon class="cls-49" points="152.8 34.58 160.84 37.57 157.35 46.26 149.31 43.26 152.8 34.58"/></g><path class="cls-2" d="M91.53,180.59l5.12,15-3.92,4.29-11.86-6.18s-4.24-1.56-7.62-1.15c0,0-15.66.84-14.79-7.43,0,0,3.16-3.66,8.6-.1s.21,0,.21,0,1.53-.53.55-2.51c0,0-5.44-5.76.43-5.45,0,0,2.29,0,5.22,6.18l2.29-.32s-3.38-7.64.76-14.85c0,0,7.29,7.74,6.42,17.37s-.11.31-.11.31.65,5.23,2.83,5.55A47,47,0,0,1,91,192.52l1.3.32-1.63-2.31a13.49,13.49,0,0,1,.87-9.94"/><g class="cls-50"><rect class="cls-51" x="82.5" y="186.17" width="6.16" height="6.66"/></g><g class="cls-52"><rect class="cls-53" x="76.3" y="192.13" width="6.16" height="6.66"/></g><g class="cls-54"><rect class="cls-55" x="70.32" y="178.64" width="6.16" height="6.66"/></g><g class="cls-56"><rect class="cls-57" x="70.53" y="184.18" width="4.86" height="5.69"/></g><path class="cls-2" d="M63.41,156,66,159.69l1.07,4.9,2.07,5.62-.95,8.62-5.78-5.45L58,172.22s-4.23,0-5-.16-.34,0-.34,0-8.37-.75-10.1-8.22c0,0,7.17,2.35,11.65,1.91l.6-.08c4.4-.75,4.48-1.41,4.48-1.41l1-3.4,3.1-5.15"/><g class="cls-58"><rect class="cls-59" x="54.91" y="164.85" width="6.16" height="6.66"/></g><g class="cls-60"><rect class="cls-61" x="53.61" y="157.13" width="5.3" height="6.08"/></g><g class="cls-62"><rect class="cls-63" x="42.21" y="155.6" width="6.04" height="6.08"/></g><g class="cls-64"><rect class="cls-65" x="41.89" y="155.64" width="6.33" height="6.08"/></g><g class="cls-66"><rect class="cls-67" x="41.35" y="145.59" width="6.33" height="6.08"/></g><g class="cls-68"><rect class="cls-69" x="41.28" y="145.68" width="6.33" height="6.08"/></g><g class="cls-70"><rect class="cls-71" x="49.81" y="142.61" width="6.33" height="6.08"/></g><g class="cls-72"><rect class="cls-73" x="49.74" y="142.78" width="6.33" height="6.08"/></g><g class="cls-74"><rect class="cls-75" x="37.06" y="121.05" width="5.29" height="6.08"/></g><g class="cls-76"><rect class="cls-77" x="64.48" y="171.15" width="6.16" height="6.66"/></g><g class="cls-78"><rect class="cls-79" x="58.76" y="173.75" width="6.7" height="5.98"/></g><g class="cls-80"><rect class="cls-81" x="38.55" y="126.17" width="5.3" height="6.08"/></g><g class="cls-82"><rect class="cls-83" x="46" y="106.7" width="5.3" height="6.9"/></g><g class="cls-84"><rect class="cls-85" x="44.09" y="94.6" width="5.29" height="6.9"/></g><g class="cls-86"><rect class="cls-87" x="53.57" y="63.44" width="5.29" height="6.9"/></g><g class="cls-88"><rect class="cls-89" x="75.73" y="44.58" width="5.29" height="6.9"/></g><g class="cls-90"><rect class="cls-91" x="81.06" y="52.47" width="4.66" height="5.57"/></g><g class="cls-92"><rect class="cls-93" x="91.4" y="44.07" width="4.65" height="5.57"/></g><g class="cls-94"><rect class="cls-95" x="98.11" y="37" width="4.66" height="5.57"/></g><g class="cls-96"><rect class="cls-97" x="100.35" y="39.87" width="4.66" height="5.57"/></g><g class="cls-98"><rect class="cls-99" x="102.27" y="42.63" width="4.65" height="5.57"/></g><g class="cls-100"><rect class="cls-101" x="52.29" y="73.08" width="5.29" height="6.9"/></g><g class="cls-102"><rect class="cls-103" x="55.27" y="76.67" width="5.3" height="6.9"/></g><g class="cls-104"><polygon class="cls-105" points="62.72 55.88 70.05 54.58 72.07 65.09 64.73 66.39 62.72 55.88"/></g><g class="cls-106"><polygon class="cls-107" points="65.55 58.51 74.31 56.96 76.69 69.36 67.93 70.92 65.55 58.51"/></g><path class="cls-2" d="M165.05,180.27c.21.49,2.74,9.77,2.74,9.77l-5.17.68c-.1-.29-1-8.1,2.23-10.64"/><path class="cls-3" d="M93.55,187.58s42.67,23.37,70.64-4.46l22.06,16.61s-50.67,40-105.81,8.3Z"/><polygon class="cls-108" points="99.06 198.43 98.99 211.85 101.61 211.85 101.53 207.9 103.73 206.88 106.42 213.01 109.75 213.48 105.29 204.9 109.82 200.27 106.06 199.79 101.75 204.22 101.75 198.37 99.06 198.43"/><polygon class="cls-108" points="111.16 200 111.23 213.75 113.36 214.09 113.22 206.19 117.67 214.23 120.31 214.38 120.15 201.02 117.96 200.82 117.6 208.1 113.5 200.14 111.16 200"/><path class="cls-108" d="M128.87,201l-3,.09-4.52,13.84,3,0,.92-3.33h4.43l1.19,3.46,3.12,0Zm-2.94,8.15,1.67-4.27,1.49,4.27Z"/><path class="cls-109" d="M144.44,199.4a19.56,19.56,0,0,1,3-.17l1.53,8,1.76-8.74,3.33-.29,1.8,7.47,1.62-8.36,2.86-.59-2.81,14.9-3.34.17-1.62-8.19-2.32,9.07-3,.51-2.81-13.93Z"/><path class="cls-110" d="M133.78,209.72l2.46-.26a3.56,3.56,0,0,0,.9,2,2.5,2.5,0,0,0,1.83.65,2.56,2.56,0,0,0,1.83-.58,1.78,1.78,0,0,0,.62-1.35,1.37,1.37,0,0,0-.26-.86,2,2,0,0,0-.91-.6c-.29-.12-1-.32-2-.62a6.49,6.49,0,0,1-2.84-1.39,4,4,0,0,1-.61-4.85,3.47,3.47,0,0,1,1.56-1.42,5.59,5.59,0,0,1,2.46-.49,4.84,4.84,0,0,1,3.54,1.16,4.36,4.36,0,0,1,1.25,3.1l-2.52.13a2.53,2.53,0,0,0-.7-1.56,2.32,2.32,0,0,0-1.6-.48,2.63,2.63,0,0,0-1.72.51,1.06,1.06,0,0,0-.4.87,1.14,1.14,0,0,0,.37.86,6.37,6.37,0,0,0,2.32.94,11.5,11.5,0,0,1,2.73,1,3.72,3.72,0,0,1,1.38,1.43,4.68,4.68,0,0,1,.5,2.25,4.5,4.5,0,0,1-.6,2.26,3.67,3.67,0,0,1-1.69,1.57,6.4,6.4,0,0,1-2.72.52,5,5,0,0,1-3.64-1.24,5.71,5.71,0,0,1-1.52-3.6"/><polygon class="cls-3" points="75.61 149.94 69.63 151.98 69.19 150.79 71.85 149.89 68.3 148.39 67.71 146.79 70.86 148.22 73.65 144.63 74.22 146.17 72.01 148.75 73.36 149.37 75.17 148.75 75.61 149.94"/><polygon class="cls-3" points="73.56 144.19 67.41 145.71 66.22 141.22 67.26 140.96 68.12 144.23 69.49 143.89 68.68 140.85 69.72 140.6 70.53 143.64 72.2 143.23 71.3 139.84 72.34 139.59 73.56 144.19"/><polygon class="cls-3" points="72.15 138.75 65.89 139.73 65.69 138.52 69.45 135.34 65.26 135.99 65.07 134.83 71.33 133.86 71.54 135.11 67.87 138.23 71.96 137.59 72.15 138.75"/><polygon class="cls-3" points="71.08 131.1 68.42 131.29 64.92 133.82 64.81 132.35 67.21 130.71 64.59 129.45 64.48 128 68.33 130.03 70.99 129.85 71.08 131.1"/><path class="cls-3" d="M70.91,121.52l0,1.38-1.45.52,0,2.5,1.43.53,0,1.34-6.31-2.52,0-1.33Zm-2.55,2.29-2.37.83,2.34.87Z"/><polygon class="cls-3" points="71.17 118.78 64.88 117.93 65.06 116.71 69.63 114.75 65.43 114.18 65.6 113.02 71.88 113.87 71.7 115.12 67.23 117.06 71.33 117.62 71.17 118.78"/><path class="cls-3" d="M73.45,107.29l-.33,1.33-1.54.21-.6,2.43,1.28.82-.32,1.31-5.59-3.78.32-1.3Zm-3,1.7-2.5.31L70,110.65Z"/><polygon class="cls-3" points="74.08 105.53 69.08 103.94 68.47 105.69 67.45 105.37 69.07 100.66 70.09 100.98 69.48 102.74 74.49 104.33 74.08 105.53"/><polygon class="cls-3" points="75.36 102.03 69.46 99.78 69.95 98.61 75.85 100.86 75.36 102.03"/><path class="cls-3" d="M73.26,98.83a4.07,4.07,0,0,1-1.34-.94A2.74,2.74,0,0,1,71.4,97a2.35,2.35,0,0,1-.15-1,3.32,3.32,0,0,1,.38-1.32,3,3,0,0,1,1.78-1.63,3.41,3.41,0,0,1,2.56.26,3.22,3.22,0,0,1,1.79,1.74,2.85,2.85,0,0,1-.21,2.35,3.06,3.06,0,0,1-1.78,1.64,3.36,3.36,0,0,1-2.51-.25m.55-1.19a2.4,2.4,0,0,0,1.69.23A1.63,1.63,0,0,0,76.56,97a1.53,1.53,0,0,0,.06-1.35,2.36,2.36,0,0,0-1.27-1.13,2.47,2.47,0,0,0-1.68-.25,1.69,1.69,0,0,0-1,.9,1.59,1.59,0,0,0-.08,1.36,2.39,2.39,0,0,0,1.27,1.12"/><polygon class="cls-3" points="79.23 94 73.82 90.81 74.49 89.76 79.49 89.71 75.88 87.58 76.52 86.58 81.92 89.78 81.24 90.86 76.34 90.92 79.86 93 79.23 94"/><path class="cls-3" d="M86.12,84.4l-.86,1.09-1.49-.41-1.58,2L83,88.31l-.84,1.07-3.51-5.64.84-1.06Zm-3.46.38-2.41-.7,1.34,2Z"/><polygon class="cls-3" points="86.48 84.07 81.87 79.95 82.76 79.03 86.59 82.44 88.81 80.14 89.59 80.84 86.48 84.07"/><path class="cls-3" d="M96.36,75.26l-1.11.87L93.9,75.4l-2,1.58.49,1.4-1.08.84-2-6.27,1.07-.84Zm-3.46-.4-2.18-1.22.8,2.29Z"/><path class="cls-3" d="M95.35,73.55l1-.77.9.5a1.46,1.46,0,0,0,1-.26,1.39,1.39,0,0,0,.65-.71l-.06-.66-.32-.24-.54,0c-.16,0-.5.14-1,.32a3.77,3.77,0,0,1-1.58.27,1.63,1.63,0,0,1-1.2-.72,1.49,1.49,0,0,1-.25-.88,1.58,1.58,0,0,1,.33-.94,3.2,3.2,0,0,1,1-.85A2.93,2.93,0,0,1,97,68.1a1.85,1.85,0,0,1,1.3.79l-1.07.73-.68-.38a1.34,1.34,0,0,0-.81.27,1.44,1.44,0,0,0-.63.65l0,.42.37.22a3.77,3.77,0,0,0,1.24-.29,7,7,0,0,1,1.44-.38,1.89,1.89,0,0,1,.95.15,1.83,1.83,0,0,1,.77.68,1.7,1.7,0,0,1,.3,1,1.72,1.72,0,0,1-.36,1,3.6,3.6,0,0,1-1,.92,3,3,0,0,1-1.9.55,2.42,2.42,0,0,1-1.54-.9"/><path class="cls-3" d="M100.42,70.43l1.08-.66a1.54,1.54,0,0,0,.83.59,1.57,1.57,0,0,0,1-.16,1.52,1.52,0,0,0,.73-.64v-.67l-.29-.27-.55,0c-.16,0-.51.1-1.06.22a3.74,3.74,0,0,1-1.61.1,1.58,1.58,0,0,1-1.1-.83,1.47,1.47,0,0,1-.16-.9,1.64,1.64,0,0,1,.43-.91,3.27,3.27,0,0,1,1-.74,2.86,2.86,0,0,1,1.88-.35,1.81,1.81,0,0,1,1.21.92l-1.14.62-.64-.45a1.33,1.33,0,0,0-.84.17,1.56,1.56,0,0,0-.7.59v.43l.35.24a3.54,3.54,0,0,0,1.27-.16,6.84,6.84,0,0,1,1.47-.22,2,2,0,0,1,.93.24,1.77,1.77,0,0,1,.69.76,1.76,1.76,0,0,1-.28,2,3.58,3.58,0,0,1-1.16.81,3,3,0,0,1-1.94.35,2.38,2.38,0,0,1-1.43-1"/><path class="cls-3" d="M105.51,66.82a3.63,3.63,0,0,1-.28-1.57,2.81,2.81,0,0,1,.27-1,2.55,2.55,0,0,1,.6-.8,3.61,3.61,0,0,1,1.23-.68,3.14,3.14,0,0,1,2.45,0,3.17,3.17,0,0,1,1.64,1.9,2.84,2.84,0,0,1-1.83,4,3.21,3.21,0,0,1-2.46,0,3.11,3.11,0,0,1-1.62-1.87m1.25-.48a2.29,2.29,0,0,0,1,1.31,1.77,1.77,0,0,0,1.41.08,1.66,1.66,0,0,0,1-.93,2.17,2.17,0,0,0-.1-1.66,2.23,2.23,0,0,0-1-1.31,1.76,1.76,0,0,0-1.41-.06,1.68,1.68,0,0,0-1,.92,2.19,2.19,0,0,0,.09,1.65"/><path class="cls-3" d="M116.76,64.34l1.33.1a2.61,2.61,0,0,1-.61,1.66,2.87,2.87,0,0,1-1.57.84,2.93,2.93,0,0,1-2.26-.36,3.14,3.14,0,0,1-1.34-2,3.18,3.18,0,0,1,.28-2.49,2.88,2.88,0,0,1,2-1.29,2.8,2.8,0,0,1,2,.24,2.46,2.46,0,0,1,.91,1l-1.2.56-.64-.62a1.46,1.46,0,0,0-.93-.09,1.5,1.5,0,0,0-1,.73,2.22,2.22,0,0,0-.08,1.63,2.51,2.51,0,0,0,.81,1.52,1.51,1.51,0,0,0,1.23.23,1.29,1.29,0,0,0,.81-.49,1.71,1.71,0,0,0,.3-1.08"/><polygon class="cls-3" points="119.38 66.2 118.5 60.16 119.81 59.98 120.67 66.03 119.38 66.2"/><path class="cls-3" d="M127.55,65.56l-1.43.07-.64-1.35-2.59.13-.46,1.41-1.39.07,2.19-6.23,1.38-.06ZM125,63.27l-1-2.22-.76,2.31Z"/><polygon class="cls-3" points="129.44 65.71 129.76 60.64 127.83 60.53 127.9 59.5 133.05 59.8 132.98 60.83 131.07 60.72 130.75 65.78 129.44 65.71"/><polygon class="cls-3" points="133.27 66.02 134.12 59.97 135.42 60.14 134.57 66.19 133.27 66.02"/><path class="cls-3" d="M136,63.27a3.72,3.72,0,0,1,.65-1.46l.78-.69a2.54,2.54,0,0,1,.94-.36,3.91,3.91,0,0,1,1.43.07,2.88,2.88,0,0,1,2.35,3.76,3.29,3.29,0,0,1-5.85,1.1,3,3,0,0,1-.3-2.42m1.32.25a2.16,2.16,0,0,0,.14,1.64,1.66,1.66,0,0,0,1.14.8,1.72,1.72,0,0,0,1.37-.24,2.29,2.29,0,0,0,.86-1.45,2.18,2.18,0,0,0-.12-1.63,1.62,1.62,0,0,0-1.14-.78,1.73,1.73,0,0,0-1.4.23,2.29,2.29,0,0,0-.85,1.43"/><polygon class="cls-3" points="142.2 67.8 144.38 62.06 145.58 62.49 146.62 67.2 148.07 63.37 149.22 63.77 147.03 69.5 145.8 69.07 144.76 64.46 143.34 68.2 142.2 67.8"/><path class="cls-3" d="M151.52,68.14a3.65,3.65,0,0,1,1.06-1.21,3,3,0,0,1,1-.44,2.49,2.49,0,0,1,1-.08,3.57,3.57,0,0,1,1.34.46,3,3,0,0,1,1.56,1.82,3.07,3.07,0,0,1-.45,2.43,3,3,0,0,1-4.35,1.24,2.8,2.8,0,0,1-1.13-4.22m1.19.61a2.18,2.18,0,0,0-.37,1.61,1.64,1.64,0,0,0,.85,1.08,1.7,1.7,0,0,0,1.39.15,2.34,2.34,0,0,0,1.26-1.14,2.17,2.17,0,0,0,.38-1.59,1.62,1.62,0,0,0-.86-1.07,1.73,1.73,0,0,0-1.41-.17,2.28,2.28,0,0,0-1.24,1.13"/><polygon class="cls-3" points="156.06 74.22 159.78 69.28 163.39 71.8 162.76 72.64 160.21 70.86 159.33 72.03 161.53 73.56 160.9 74.39 158.7 72.86 157.12 74.96 156.06 74.22"/><path class="cls-3" d="M163.32,77.08l1,.76a1.46,1.46,0,0,0-.3,1l.48.83.87.46.66-.21.16-.36L166,79c-.07-.14-.26-.44-.56-.9a3.31,3.31,0,0,1-.63-1.42,1.51,1.51,0,0,1,.45-1.28,1.59,1.59,0,0,1,.84-.44,1.85,1.85,0,0,1,1,.09,3.56,3.56,0,0,1,1.07.7,2.62,2.62,0,0,1,1,1.59,1.68,1.68,0,0,1-.5,1.4l-1-.83.23-.73-.45-.7-.8-.44-.42.13-.13.4a3.39,3.39,0,0,0,.58,1.1,6.57,6.57,0,0,1,.7,1.26,1.74,1.74,0,0,1,.07.93l-.52.87a1.84,1.84,0,0,1-.93.5,2,2,0,0,1-1.12-.09,3.86,3.86,0,0,1-1.18-.79,2.7,2.7,0,0,1-1-1.64,2.25,2.25,0,0,1,.56-1.65"/><path class="cls-3" d="M168.61,80.59a4.15,4.15,0,0,1,1.44-.79,3.11,3.11,0,0,1,1.06-.09,2.54,2.54,0,0,1,1,.27,3.84,3.84,0,0,1,1.1.88,2.89,2.89,0,0,1,.8,2.23,3.13,3.13,0,0,1-1.3,2.13,3.35,3.35,0,0,1-2.4.85,3,3,0,0,1-2.13-1.15,2.88,2.88,0,0,1-.81-2.23,3.06,3.06,0,0,1,1.27-2.1m.9,1a2.24,2.24,0,0,0-.93,1.39,1.57,1.57,0,0,0,.41,1.29,1.66,1.66,0,0,0,1.25.61,2.44,2.44,0,0,0,1.59-.65,2.27,2.27,0,0,0,.94-1.36,1.6,1.6,0,0,0-.43-1.3,1.67,1.67,0,0,0-1.25-.62,2.37,2.37,0,0,0-1.58.64"/><path class="cls-3" d="M175,90l.38,1.23a2.78,2.78,0,0,1-1.82,0,2.75,2.75,0,0,1-1.38-1.11,2.63,2.63,0,0,1-.46-2.16,3.17,3.17,0,0,1,1.5-1.93,3.56,3.56,0,0,1,2.51-.64,2.89,2.89,0,0,1,1.95,1.29,2.61,2.61,0,0,1,.51,1.92,2.47,2.47,0,0,1-.61,1.16l-1-.88.38-.8-.25-.86a1.5,1.5,0,0,0-1.08-.67,3.4,3.4,0,0,0-2.79,1.79,1.35,1.35,0,0,0,.21,1.19,1.37,1.37,0,0,0,.77.55A2,2,0,0,0,175,90"/><polygon class="cls-3" points="174.27 93.14 179.79 90.13 180.44 91.22 174.92 94.24 174.27 93.14"/><path class="cls-3" d="M178.07,100.33l-.61-1.24,1-1.09-1.12-2.25-1.53.13-.6-1.21,6.81-.44.6,1.2Zm1.22-3.14L181,95.43l-2.5.22Z"/><polygon class="cls-3" points="178.28 100.92 184.18 98.81 184.63 100 179.74 101.75 180.87 104.69 179.87 105.05 178.28 100.92"/><polygon class="cls-3" points="181.08 109.01 186.96 106.25 187.24 107.52 183.19 109.33 187.7 109.56 188.03 111.02 183.94 112.99 188.48 113.03 188.76 114.27 182.23 114.08 181.93 112.77 186.3 110.59 181.38 110.34 181.08 109.01"/><path class="cls-3" d="M185.66,115.55a4.31,4.31,0,0,1,1.65.12,3.11,3.11,0,0,1,.93.5l.65.75a3.3,3.3,0,0,1,.39,1.31,2.85,2.85,0,0,1-.63,2.28,3.3,3.3,0,0,1-2.33,1.06,3.34,3.34,0,0,1-2.47-.58,3.24,3.24,0,0,1-.47-4.39,3.27,3.27,0,0,1,2.28-1m.18,1.29a2.36,2.36,0,0,0-1.58.64,1.67,1.67,0,0,0,.26,2.47,3,3,0,0,0,3.27-.3,1.57,1.57,0,0,0,.4-1.3,1.6,1.6,0,0,0-.67-1.2,2.39,2.39,0,0,0-1.68-.31"/><path class="cls-3" d="M183.17,122.79l6.35-.09,0,2.66a4.52,4.52,0,0,1-.15,1.46l-.6.73a1.83,1.83,0,0,1-1,.29,1.77,1.77,0,0,1-1.19-.4,1.94,1.94,0,0,1-.6-1.23l-.53.68a6.48,6.48,0,0,1-1,.74l-1.22.78,0-1.51,1.37-.93a7.9,7.9,0,0,0,.92-.68l.26-.38.06-.64V124l-2.65,0Zm3.68,1.21,0,.94a5.19,5.19,0,0,0,.09,1.13l.28.35.47.12.52-.18.24-.48c0-.1,0-.4,0-.92l0-1Z"/><polygon class="cls-3" points="183.17 129.05 189.49 129.58 189.38 130.84 186.57 130.6 189.14 133.38 188.99 135.07 186.74 132.52 182.66 134.66 182.81 133.03 185.93 131.57 184.97 130.47 183.06 130.3 183.17 129.05"/><polygon class="cls-3" points="182.53 135.24 188.78 136.32 187.92 140.88 186.87 140.7 187.49 137.38 186.11 137.14 185.53 140.23 184.47 140.04 185.05 136.95 183.35 136.66 182.71 140.09 181.65 139.91 182.53 135.24"/><path class="cls-3" d="M181.43,140.87l6.11,1.64-.73,2.56a4.72,4.72,0,0,1-.57,1.35,1.48,1.48,0,0,1-.79.55,1.84,1.84,0,0,1-1,0,1.63,1.63,0,0,1-1-.7,1.91,1.91,0,0,1-.23-1.34l-.69.52a8.89,8.89,0,0,1-1.2.42l-1.4.42.42-1.46,1.58-.52a8.8,8.8,0,0,0,1.09-.4l.35-.3.25-.59.07-.25-2.55-.68Zm3.18,2.16-.26.9a4.65,4.65,0,0,0-.24,1.12l.16.41.42.24.55,0,.37-.39c0-.1.13-.39.28-.88l.27-1Z"/><path class="cls-3" d="M181.68,147.26l-.34,1.19a1.56,1.56,0,0,0-1,.11,1.34,1.34,0,0,0-.61.75,1.32,1.32,0,0,0-.1.95l.46.5h.41l.42-.33c.1-.12.32-.41.63-.85a3.44,3.44,0,0,1,1.12-1.12,1.72,1.72,0,0,1,1.4-.1l.75.57a1.59,1.59,0,0,1,.31.95,2.89,2.89,0,0,1-.25,1.22,2.72,2.72,0,0,1-1.14,1.48,2,2,0,0,1-1.54.1l.41-1.2a1.18,1.18,0,0,0,.79-.08,1.36,1.36,0,0,0,.5-.67,1.45,1.45,0,0,0,.1-.89l-.29-.32-.43,0a3.62,3.62,0,0,0-.83.94,6.88,6.88,0,0,1-.93,1.12,1.83,1.83,0,0,1-.86.42,2,2,0,0,1-1-.11,1.85,1.85,0,0,1-.85-.63,1.77,1.77,0,0,1-.35-1,3.54,3.54,0,0,1,.29-1.36,2.74,2.74,0,0,1,1.19-1.5,2.53,2.53,0,0,1,1.8-.16"/></svg>