<svg id="Layer_1" data-name="Layer 1" xmlns="http://www.w3.org/2000/svg" viewBox="0 0 245.33 239.63"><defs><style>.cls-1{fill:#fff;}.cls-2{fill:#df171c;}.cls-3{fill:#1d1d1b;}.cls-4{fill:#106834;}.cls-5{fill:#e0171b;}</style></defs><path class="cls-1" d="M59,102l5.65-5.21s4.64-9.54,4.64-10.9-3-21.21-3-21.21S73.89,58.15,76,58.3s35.7,1.51,35.7,1.51a8.21,8.21,0,0,1,5.51,2c.3.26.75.23,1.34.65s1.22,1.31,1.48,1.39a9.86,9.86,0,0,0,2.83.83,6.16,6.16,0,0,0,2.45-.37s3.36.76,3.84.76a36.26,36.26,0,0,1,4,.45,12,12,0,0,0,2.17.44c.84.07,1.69-.05,2,.17a12.27,12.27,0,0,0,4.33,1.66c1.12,0,4,1.52,5.28,1.37s5.76-1.52,7.2-1.52,12.65-1.36,12.65-1.36l3,9.39s3.49,22.16,3.52,22.56,0,5.15,0,5.15Z"/><polygon class="cls-1" points="183.7 155.49 44 155.24 43.41 151.86 180.94 152.29 183.7 155.49"/><path class="cls-2" d="M50.82,129.67c1.2.38.66,1.14.47,1.73-1.75,5.25-3.53,10.49-5.29,15.74-.28.83-.52,1.67-.79,2.52,2.33.48,2.45.42,3.08-1.49l5.19-15.59c.1-.3.25-.58.44-1,3.56,2.38,7.61,2.82,11.69,3.23.49,0,1.14.79,1.33,1.33,1.35,4,2.66,7.91,3.85,11.91.41,1.39,1,2.07,2.63,1.84a25.2,25.2,0,0,1,3.39,0c-.88-2.73-1.69-5.26-2.52-7.78q-6.06-18.48-12.15-36.94c-.15-.44-.67-.76-1-1.14-.34.39-.85.72-1,1.16-2.4,7.06-4.8,14.12-7.1,21.2a3.14,3.14,0,0,1-2.67,2.55c-.86.13-1.69.41-2.77.68.14-.55.23-.91.22-.91a19.6,19.6,0,0,1-2.46-1.88c-.79-.83-.56-1.67,0-2.71a39.06,39.06,0,0,0,2.29-6,2.23,2.23,0,0,1,1.28-1.69c1.14-.5,2.39-1,2.43-2.53l.57-.57c1.7-.35,2-1.68,2.29-3a16.55,16.55,0,0,0,.31-2.36,3.41,3.41,0,0,1,2.76-3.25c1.52-.36,2.49-.94,1.71-2.73.76,0,1.29-.09,1.81-.09H171.19c2.14,0,2.14,0,2.14,2q.07,18.53.11,37.05a4.86,4.86,0,0,0,1.16,3.34c1.85,2.19,3.6,4.45,5.38,6.68.29.36.55.73,1,1.3-.71.06-1.18.12-1.64.12H45.37c-.81,0-1.61.07-1.88-.18s0-.88.11-1.74a24.44,24.44,0,0,1,1-3.93c1.9-5.4,3.87-10.78,5.81-16.16Zm101.06-2.08.36-.13c.3.34.61.68.89,1q8,10.19,15.91,20.38c.3.38.77.89,1.18.91,2,.1,4,.05,6.31.05L156.3,123.89,172,105.33c-1.44-.11-2.76-.83-3.88.52-4.71,5.64-9.48,11.23-14.23,16.84-.53.63-1.07,1.25-1.85,2.14,0-.79-.07-1.19-.07-1.59,0-5,0-10.08,0-15.12,0-3.11,0-3.11-3.38-3.1-1.92,0-1.92,0-1.92,1.84q0,20.6,0,41.17a3.41,3.41,0,0,0,0,1.11l.68.68c1.46.07,2.93,0,4.5,0ZM78.91,139a9.72,9.72,0,0,1-1,.49c-1.35.53-1.74,1.36-1.11,2.65s.93,2.36,1.55,3.47c3.67,6.57,13.47,7.34,18,1.26a13.23,13.23,0,0,0,1.46-14.09c-1.58-3.47-4.66-5.71-7.67-8s-6.12-4.15-8-7.34a7.34,7.34,0,0,1-.05-7.75,5.37,5.37,0,0,1,5.06-2.83c3.66,0,5.61,2.17,7,5,.63,1.29,1.06,2.67,1.62,4.11a14.35,14.35,0,0,0,1.93-1.28l.4-1.11a29.77,29.77,0,0,0-2.79-6c-3.59-5-11.91-5-15.69-.12-2.76,3.54-3.16,7.58-2.28,11.75.78,3.66,3.23,6.33,6.2,8.62,2.48,1.92,5.07,3.72,7.41,5.78,2.89,2.54,4.2,5.72,3.33,9.5a6.25,6.25,0,0,1-8.57,4.48,9.32,9.32,0,0,1-3.88-3,35.44,35.44,0,0,1-2.88-5.6m36.27-31.15h11.37c0,.39.07.62.07.84v30.66c0,3.13,0,6.25.06,9.38,0,.37.42,1,.69,1.05,1.5.11,3,0,4.67,0v-42h11.41c.3-2.78.3-2.78-2.31-2.78H117c-2.12,0-2.12,0-2,2,0,.22.08.44.15.82m-8,39.17V108.5c0-3.51,0-3.47-3.7-3.51-1.22,0-1.6.33-1.59,1.5,0,8.12,0,16.24,0,24.36,0,5.88,0,11.76,0,17.64,0,.83,0,1.41,1.22,1.4q9.54-.07,19.09,0c1.24,0,1.16-.64,1.18-1.42s0-1.44-1.19-1.43c-4,0-8.09,0-12.13,0h-2.9"/><path class="cls-3" d="M133.58,98.94l-4.19-.33L127.81,100c-.68-1-1.2-1.79-1.66-2.57a5.32,5.32,0,0,1-.58-1.4c-.34-1.39-.58-2.81-.94-4.19a13.44,13.44,0,0,1-.47-6.39,9.31,9.31,0,0,0-.13-2c0-1-.44-2.06,1-2.63.2-.08.3-.68.24-1-.24-1.51.08-3.09-1.28-4.44-.62-.62-.34-2-.73-2.91-.3-.69-1-1.68-1.55-1.73a1.89,1.89,0,0,0-2,1.89c-.15,1.23-.24,2.45-.33,3.37a18.6,18.6,0,0,0-2.69-1.82c-.89-.43-1.16-.91-.87-1.76l.07-.27c.18-.86.58-1.84-.49-2.37a2.24,2.24,0,0,0-1.76.07c-1,.59-.84,1.59-.53,2.51a12.78,12.78,0,0,0,.65,1.42l-.36.43c-2.26.51-2.49,2.19-2.83,4-.52,2.74-1.32,5.43-2,8.22-.78.33-1.22,0-1.87-.64a13.87,13.87,0,0,1-3.05-3.39c-.18-.35-.9-.45-1.58-.75.33-1.69.66-3.46,1-5.45-1.94.8-.84,2.58-1.81,3.61-1.18-1.58-2.18-3.14-2.07-5.14,0-.69.08-1.64-1-1.47-.88.14-1.81.59-1.55,1.8.11.52.18,1.06.29,1.79l-2.63-.48c0-1,1-2.33-.75-2.48-1.34-.12-1.15,1.1-1.21,2-1.68-.09-2.28.5-1.94,1.91l.1.39c2.13.82.93,2.41.86,3.65,0,.89.1,1.53.94,1.8,1.57.53,1.54,1.74,1.3,2.85a39.06,39.06,0,0,0-.87,9.15,4.73,4.73,0,0,1-.35,1.77,1.85,1.85,0,0,1-2,1.36c-8.53-.07-17.07,0-25.6,0-.39,0-.77,0-1.27-.08.11-.56.2-1,.31-1.53a10.39,10.39,0,0,0-.35-6.44c-.79-2-1.9-4.11-.85-6.49.17-.4-.87-1.29-1.35-1.94a9.41,9.41,0,0,1-.79-1c-.56-1.07-.77-2.68-1.66-3.15-1.76-.93-2.15-2.39-2.68-3.88a3,3,0,0,0-1.8-2c-.34-.13-.51-.67-.73-1l0-.42a11.08,11.08,0,0,1,.06-6.3C54,63,52.36,62.05,51,62.7a13.92,13.92,0,0,0-1.33-1.08,11.31,11.31,0,0,0-1.51-.72l1.2-.77-.06-.26H47.25c.35-.88.9-1.78-.35-2.41l-.13-.64c-.33-1-.67-2-1.16-3.44a38.78,38.78,0,0,0,2.83-2.77c4.88-5.67,11.88-7.73,18.82-9.87,1.09-.34,2.51.39,3.39-.88l.62.15a10.06,10.06,0,0,1-.1,1.38l3.13.38c-1.71,1.73-.78,3.11.18,4.4a6.76,6.76,0,0,0,1.69,1.17l1.25-1.75.14.49,3.21.68c.2.48.3,1.29.77,1.7a4.19,4.19,0,0,0,2.36,1.12c4.24.11,8.49,0,12.73.07a4,4,0,0,1,2,.45c6.26,3.78,12.76,7.23,18.6,11.62l.28.29-.16.36a9.71,9.71,0,0,0-2.14-.74,29.84,29.84,0,0,0-3.54-.06,4.89,4.89,0,0,1-1.31.06c-1.87-.58-3.16.42-4.61,1.59-2.27,1.85-1.35,3,.23,4.31l.8.6c1.18.5,2.37,1,3.65,1.47l.11-.83a18.35,18.35,0,0,0,3.64,0A13.94,13.94,0,0,0,118,67.25a2.76,2.76,0,0,0,1.1-1.79,10.68,10.68,0,0,0-.18-2.66c2.67,2.61,5.61,1.57,8.47,1,.65-.12,1.22-.38,1.65.34l.48.28c2.32-.42,4,1.51,6.3,1.46a42.6,42.6,0,0,1,6.48.45c1.61.21,3.18.69,4.64,1a40.63,40.63,0,0,0,3.17-3.14c1-1.16,1.59-2.54,2.46-3.76A3.93,3.93,0,0,1,154,59.3c2.27-1.11,4.56-2.19,6.87-3.21,2.54-1.12,5.08-2.23,7.68-3.18a2.63,2.63,0,0,1,2.09.43c1.84,1.41,3.48,3,5.32,4.45a4,4,0,0,0,2.37.72c2.41-.11,4.8-.45,7.2-.62,1.3-.09,2.6,0,3.9,0l.25.55c-.62.91-1.22,1.83-1.87,2.72-2.35,3.27-4.62,6.59-7.1,9.78A21.2,21.2,0,0,1,176.49,75c-2.66,2-3.43,4.38-3.25,7.53.28,4.79.09,9.61.09,14.42v1.7h-5.85c-2.22,0-4.44,0-6.66,0-.87,0-1.48.1-1.88,1-.2.43-.84.67-1.38.87,2.05-2.62,2-5.49,1.36-8.4a3.35,3.35,0,0,0-1.46-1.76,1.83,1.83,0,0,1-.69-2.55c1.89-2.24.68-5.34-2.3-6L154,81.6c.11-.44.28-.94.37-1.45s.29-1.21,0-1.61a2,2,0,0,0-1.47-.88,1.65,1.65,0,0,0-1.18,1.11,13,13,0,0,0,.38,2.82l-.07.07c-2.83,0-3.49,2.07-4.4,3.94l0,.12c-2.49,1.81-.58,4.5-1.47,6.63-.47,1.11-.25,2.44-1.38,3.36-.27.22,0,1.09.12,1.63a6.34,6.34,0,0,0,.81,1.33h-6.92c.07.48.12.85.18,1.24l-.39.22c-1.5-.14-3-.26-4.5-.47l-.47-.75c.56.72,3,1.17,3.48.61l0-.72c-1.15-1.21-.77-2.57-.36-3.85.8-2.46,1.68-4.9,1.33-7.55l.33-.57a3.75,3.75,0,0,1,.1,1.54c0,.67-.08,1.59.32,2,1.5,1.37,1.06,2.86.71,4.45a33,33,0,0,0-.41,3.46l.54.12a11.28,11.28,0,0,1,1.7-5.7l.39.14v5h.43v-.91a15.51,15.51,0,0,1,1.11-4.06c.24-.45.59-.78.49-1.32-.28-1.62-.57-3.25-.86-4.87l.32-.12,1.27,1.9c.82-1.33-.37-3.76-2-4.83a18.61,18.61,0,0,0-.65-2.61h-1.15a18,18,0,0,0-.79,2.44c-.48.72-1.1,1.69-1.95,3,.13-.81.2-1.3.31-1.79l.29-.85a2.15,2.15,0,0,1,.77-3.3c-.21-1-.42-1.78-.52-2.57a6,6,0,0,1-.1-2.75,1.38,1.38,0,0,0-.34-1.84l-1.26-.15c-.32.55-.77,1.43-.53,1.78.84,1.19.1,1.82-.74,2.63l-1.86-1.19a9.31,9.31,0,0,0,.94-2.3,2.77,2.77,0,0,0-.47-2c-.76-.9-1.75-.62-2.57.11-.57.5-.46,2.08.07,2.83.23.32.43,1,.25,1.2-1.21,1.32-.59,2.52.1,3.74a8.79,8.79,0,0,1,1.37,2.44,42.05,42.05,0,0,1,.72,6.89c0,2.93-.28,5.85-.49,8.78ZM79.91,92.12c.1-1.75.2-3.5.31-5.25,0-.45.11-.89.17-1.34h.47a22.78,22.78,0,0,0,.45,3.09,8.89,8.89,0,0,1-.54,6.13c-.4.9.31,2.95,1.07,3s1.73,0,2.72,0c-1.24-2.22-1.12-2.68.69-3.46.38-2.63.76-5.26,1.14-7.92l1.12.36c.06-.81.11-1.51.16-2.2l.57,0,1.65,11c-.07-2.13-.51-4.24-.6-6.35-.07-1.63-1.56-3.52.46-4.6l-.67-2.1c-.23-.7-.42-1.41-.69-2.1-.21-.51-.56-1-.75-1.49-.52-1.45-.19-3.39-2.75-3.55a2.27,2.27,0,0,0,0-3.25,1.94,1.94,0,0,0-1.72.06c-1.3.88-.53,2.07-.18,3.15l-.64.45c-3.14,1.64-4.7,4.94-3.34,8.09,1.18,2.73,1.11,5.45.94,8.24-.09,1.74-.17,3.47-.26,5.2h.23ZM92,71.62c.9-.33,1.65-.55,2.35-.88,1.17-.54,2.28-1.43,2-2.65a4.34,4.34,0,0,0-2-2.51A8.2,8.2,0,0,0,87,65.49a3,3,0,0,0-2.12,2.65,2.84,2.84,0,0,0,2,2.56c1.88.77,3.8,1.43,5.68,2.12L92,71.62m63.36,5.5c1.55-1.71,3.35-1.37,5-1.37,1.21,0,1.53-.67,1.27-1.52-.36-1.16,1.24-3.15-1.16-3.41a43.09,43.09,0,0,0-7.95,0c-2.14.18-.92,2-1.12,3-.15.77-.39,1.9,1.16,1.89h3c-.09.48-.14.76-.25,1.4m-29.63-7,.51-.59c.67-.58,1.19-3.55.66-4.19l-.76-.31c-2.11,0-4.2,0-6.28,0-.3,2.23-.36,2.25-2.74,2.86-.47.12-.82.64-1.57,1.26a18.66,18.66,0,0,0,1.94.3c2.26,0,4.52,0,6.77,0,.45,0,.88.38,1.47.65m13.85,1.24c1.58-1.9,1.47-3.35-.66-4.3a6.13,6.13,0,0,0-6,.35c-1.46.91-1.41,2.34,0,3.28a6.91,6.91,0,0,0,5.1.68,11,11,0,0,1,1.55,0"/><path class="cls-4" d="M173.25,166l-.85,1.21-.65-1-1.14.81,0-.3h-1.48c1.61,1.22,1.44,1.23,0,2.44a7.77,7.77,0,0,1-5.51,1.86c-2.72,0-4.32,1.62-4.82,4.46-.38,2.2-.46,4.46-.94,6.64a4,4,0,0,1-1.69,2.42,5.3,5.3,0,0,0-2.42,2.84c-.35.84-.84,1.64-1.36,2.61l.33.56c-.64,1.85-1.34,3.68-2.08,5.5-.5,1.2-1.53,1.17-2.7,1l1.32.54c-.13.34-.23.67-.39,1-1.13,2.27-2.26,4.55-3.43,6.8l-.74.49a10.71,10.71,0,0,0-.74,1.45l-.6,0c-1-.81-1.72-.84-2.37.36a2.82,2.82,0,0,1-1.37-.39c-3.92-2.59-7.78-5.25-11.7-7.85-3.75-2.48-7.59-4.86-11.3-7.4a7.55,7.55,0,0,1-2.37-2.69c-.59-1.17-1.16-1.91-2.58-1.56a1.53,1.53,0,0,1,.5-2.39c1-.65,1-1.52,1-2.58a4.53,4.53,0,0,0-3.09-4.31c-3-1.39-5.78-3.37-8.7-5-2.36-1.33-4.84-2.49-7.22-3.8-3.69-2.05-7.28-4.28-11-6.23-4.75-2.47-9.61-4.73-14.42-7.09a3.29,3.29,0,0,1-1.29-1.1h83.17c5.53,0,11-.05,16.57,0s11-.3,16.61.22c-1.68,2.13-3.08,3.93-4.51,5.74-1.71-1.49-1.81-1.47-3.41-.29-.66.5-1.39.92-2.37,1.56V160.5l-.46,0c-.06.74-.12,1.47-.2,2.39l-1.57-1.94c.36,1.25.63,2.29,1,3.31.17.54.42,1.06.64,1.59Z"/><path class="cls-5" d="M59.88,114.67l5.53,16.92a20.09,20.09,0,0,1-4.18,0,41,41,0,0,1-5.69-1.84,1.29,1.29,0,0,1-.65-1.12c1.5-4.66,3.08-9.31,4.65-13.95Z"/><path class="cls-3" d="M93.61,99.24l3.83-1.84c-.36-1.66-.93-3.57-1.16-5.51a48.64,48.64,0,0,1,0-5.56l1.53.58c-1.48-2.78,0-4.7,1.49-6.68a13.61,13.61,0,0,1,2.24,2.48,3.06,3.06,0,0,1,.12,3.3,3.62,3.62,0,0,0,0,4,14.22,14.22,0,0,1,1.11,4.26,15.76,15.76,0,0,1,.32,2.73c0,.89,0,1.74-1.47,1.67a11.86,11.86,0,0,0-5.62.59,7.46,7.46,0,0,1-2.35.23Z"/><path class="cls-3" d="M104.82,98.86c.24-2.6.52-5.19.7-7.79.09-1.37,0-2.75,0-4a13.53,13.53,0,0,0,3-.06,2.32,2.32,0,0,0,1.26-1.34,25.43,25.43,0,0,0,.65-2.64,20.09,20.09,0,0,1,1.6-4.13,4.38,4.38,0,0,1,.06,1.08c-.52,3.25-1,6.52-1.65,9.76-.22,1.07,0,1.64,1.06,1.84A1.33,1.33,0,0,1,112.76,93a11,11,0,0,0,.41,2.19c.66,2.45.65,2.54-1.24,4l-.65-.52c-1.48,0-3-.06-4.44,0l-.78.5A3.46,3.46,0,0,1,105,99Z"/><path class="cls-3" d="M118.46,80.1v5.15c0,2.69,0,5.37,0,8l.64.74c1.9.24,1.38,1.81,1.67,2.83.21.74-.23,1.31-1.1,2-2.26,1.74-4.51,1-6.81.92v-.34l1.79.15V90a15.93,15.93,0,0,1,1.72,9.49l.77.07c.24-.55.69-1.11.67-1.66-.07-1.94-.41-3.89-.43-5.83s.24-4.06.31-6.09c0-1-.12-2-.15-3s0-1.91,0-2.87Z"/><path class="cls-3" d="M126,98.7a15.76,15.76,0,0,0-1.83,0,1.89,1.89,0,0,0-1.11.44,1.76,1.76,0,0,1-2.58.46c1.49-.86,1.34-2.21,1.12-3.6-.29-1.78.21-2.25,2-1.92l.63.44c.59,1.31,1.14,2.64,1.79,4.17"/><path class="cls-3" d="M148.86,100.42l1.92-2.94h1.49c.15-.5.3-1,.44-1.43l.41,0v2.68c-2.07-1-2.53,1.46-4.26,1.67"/><path class="cls-3" d="M105,99c-.45,1.27-1.28.49-1.69.4.16-2.08.32-4.13.48-6.18h.53c0,1,0,2.1,0,3.14a15.72,15.72,0,0,0-.13,1.8l.68.72Z"/><path class="cls-1" d="M133.57,98.94l.42-.88c.21-2.92.51-5.85.49-8.77a42.17,42.17,0,0,0-.72-6.89A9.33,9.33,0,0,0,132.39,80c-.69-1.22-1.31-2.42-.11-3.73.19-.2,0-.88-.24-1.21-.53-.75-.65-2.33-.07-2.84.82-.72,1.81-1,2.57-.1a2.77,2.77,0,0,1,.47,2,10.08,10.08,0,0,1-.93,2.3l1.84,1.19c.85-.81,1.59-1.44.75-2.63-.24-.35.21-1.23.53-1.78l1.26.15a1.38,1.38,0,0,1,.34,1.84,6,6,0,0,0,.1,2.75c.1.78.31,1.56.52,2.58a2.13,2.13,0,0,0-.77,3.29l-.29.85c-.11.49-.18,1-.31,1.79l1.95-3a16.71,16.71,0,0,1,.79-2.44h1.15a19.72,19.72,0,0,1,.65,2.61c1.59,1.07,2.78,3.5,2,4.83l-1.27-1.9-.32.12c.29,1.62.58,3.25.86,4.87.1.54-.25.87-.49,1.32a16,16,0,0,0-1.11,4.06v.91h-.43v-5l-.39-.14a11.28,11.28,0,0,0-1.7,5.7l-.54-.12a33.32,33.32,0,0,1,.41-3.46c.35-1.59.79-3.08-.71-4.45-.4-.37-.3-1.29-.32-2a3.75,3.75,0,0,0-.1-1.54l-.33.57c.35,2.65-.53,5.09-1.33,7.55-.42,1.28-.79,2.64.36,3.85l-.06.72c-.51.56-2.91.11-3.48-.61Z"/><path class="cls-1" d="M79.94,92.14c.17-2.79.24-5.51-.94-8.24-1.36-3.15.19-6.45,3.35-8.1l.62-.44c-.34-1.08-1.11-2.26.19-3.14a1.91,1.91,0,0,1,1.72-.07,2.26,2.26,0,0,1,0,3.25c2.56.16,2.23,2.1,2.75,3.55.19.51.54,1,.74,1.49.27.69.47,1.4.7,2.09l.67,2.11c-2,1.07-.53,3-.46,4.6.09,2.11.53,4.22.6,6.35l-1.66-11-.55,0c-.06.7-.11,1.39-.17,2.2l-1.12-.36c-.38,2.66-.76,5.29-1.14,7.92-1.81.78-1.93,1.24-.69,3.46-1,0-1.86,0-2.73,0s-1.46-2.1-1.06-3a8.89,8.89,0,0,0,.54-6.13,22.78,22.78,0,0,1-.45-3.09h-.47c-.06.45-.14.89-.17,1.34-.11,1.75-.21,3.5-.31,5.25Z"/><path class="cls-1" d="M92,71.62l.52,1.21c-1.88-.7-3.8-1.36-5.68-2.13a2.84,2.84,0,0,1-2-2.57A3,3,0,0,1,87,65.49a8.2,8.2,0,0,1,7.38.09,4.32,4.32,0,0,1,2,2.51c.28,1.22-.84,2.11-2,2.65-.7.33-1.46.55-2.35.88"/><path class="cls-1" d="M155.39,77.12c.11-.64.16-.92.25-1.4h-3c-1.55,0-1.3-1.12-1.16-1.89.19-1.06-1-2.85,1.11-3a42.33,42.33,0,0,1,8,0c2.4.26.8,2.25,1.16,3.41.26.84-.06,1.52-1.27,1.52-1.69,0-3.49-.34-5,1.37"/><path class="cls-1" d="M125.76,70.09a4.51,4.51,0,0,0-1.47-.65c-2.25-.06-4.52,0-6.77,0a15.1,15.1,0,0,1-1.93-.29c.74-.62,1.09-1.14,1.56-1.26,2.38-.61,2.44-.63,2.74-2.86,2.07,0,4.18,0,6.27,0l.77.31c.53.64,0,3.61-.66,4.19Z"/><path class="cls-1" d="M139.61,71.33a11,11,0,0,0-1.55,0,6.91,6.91,0,0,1-5.1-.68c-1.44-.94-1.49-2.37,0-3.28a6.13,6.13,0,0,1,6-.35c2.13,1,2.24,2.4.66,4.3"/><path class="cls-1" d="M79.91,92.12v5.23h-.23c.08-1.74.17-3.47.26-5.21Z"/><path class="cls-2" d="M47.59,129.59c1.08-.28,1.91-.56,2.77-.7l.45-.09v-.58H47.2l.61.44s-.08.36-.22.92"/><polygon class="cls-2" points="50.81 129.67 50.45 130.41 50.23 131 50.81 131 50.81 129.67"/><path class="cls-3" d="M51.85,130.71c1.21.39.67,1.14.47,1.74-1.74,5.25-3.52,10.49-5.28,15.73-.28.84-.53,1.68-.79,2.53,2.32.48,2.44.41,3.07-1.49q2.59-7.8,5.2-15.6c.1-.29.24-.57.43-1,3.57,2.38,7.61,2.82,11.69,3.23.5.05,1.15.79,1.33,1.33,1.35,3.95,2.67,7.91,3.85,11.9.42,1.4,1,2.07,2.64,1.85a25.18,25.18,0,0,1,3.39,0c-.89-2.73-1.7-5.26-2.53-7.78q-6.06-18.48-12.15-36.95c-.14-.43-.66-.76-1-1.13-.34.38-.84.72-1,1.16-2.4,7-4.81,14.11-7.1,21.2a3.2,3.2,0,0,1-2.22,2.45v.87Zm4.07-1c1.51-4.66,3.09-9.31,4.65-14h.35c1.8,5.5,3.59,11,5.53,16.92a20.09,20.09,0,0,1-4.18,0,41.19,41.19,0,0,1-5.7-1.85,1.3,1.3,0,0,1-.65-1.11"/><path class="cls-3" d="M152.92,128.64V150.9c-1.58,0-3,0-4.5,0l-.69-.68a3.41,3.41,0,0,1,0-1.11q0-20.58,0-41.17c0-1.85,0-1.85,1.93-1.85,3.36,0,3.37,0,3.37,3.11v15.12c0,.4,0,.8.08,1.59.77-.89,1.32-1.51,1.85-2.14,4.75-5.61,9.52-11.2,14.22-16.84,1.12-1.35,2.45-.63,3.88-.52l-15.67,18.55,20.23,26c-2.32,0-4.32.05-6.31,0-.42,0-.89-.53-1.19-.92q-8-10.17-15.9-20.38c-.28-.35-.6-.69-.9-1Z"/><path class="cls-3" d="M79.94,140.07a36,36,0,0,0,2.88,5.61,9.64,9.64,0,0,0,3.89,3,6.25,6.25,0,0,0,8.57-4.48c.86-3.78-.45-7-3.33-9.5-2.34-2.06-4.94-3.86-7.41-5.78-3-2.3-5.43-5-6.2-8.62-.88-4.17-.48-8.21,2.28-11.75,3.77-4.85,12.09-4.85,15.68.12a29.55,29.55,0,0,1,2.8,6l-.41,1.11A13.6,13.6,0,0,1,96.77,117c-.56-1.45-1-2.82-1.62-4.11-1.37-2.82-3.33-5-7-5a5.35,5.35,0,0,0-5.06,2.83,7.32,7.32,0,0,0,0,7.75c1.92,3.19,5.11,5.13,8,7.34s6.1,4.52,7.68,8a13.21,13.21,0,0,1-1.47,14.09c-4.51,6.08-14.32,5.31-18-1.26-.62-1.11-1-2.34-1.56-3.47-.23-.49-.68-1.49-.64-1.47A6.88,6.88,0,0,1,79,140.56a7.3,7.3,0,0,0,1-.49"/><path class="cls-3" d="M116.21,108.92c-.06-.38-.13-.6-.14-.82-.13-2-.13-2,2-2h24.12c2.6,0,2.6,0,2.31,2.77H133.07V150.9c-1.66,0-3.17,0-4.66-.05-.27,0-.69-.68-.7-1-.06-3.13,0-6.26,0-9.38q0-15.33,0-30.66c0-.22,0-.45-.06-.84Z"/><path class="cls-3" d="M108.24,148.08h2.89c4.05,0,8.09,0,12.14,0,1.19,0,1.22.59,1.19,1.42s.05,1.44-1.19,1.43q-9.54-.06-19.09,0c-1.19,0-1.21-.57-1.21-1.4,0-5.88,0-11.76,0-17.64,0-8.12,0-16.24,0-24.36,0-1.17.37-1.52,1.6-1.5,3.7,0,3.7,0,3.7,3.51v38.53Z"/><path class="cls-1" d="M50.82,129.66c1.2.39.67,1.14.46,1.74-1.74,5.25-3.52,10.49-5.28,15.73-.28.84-.52,1.68-.79,2.53,2.33.48,2.44.41,3.08-1.49l5.19-15.6c.1-.29.25-.57.44-1,3.57,2.38,7.61,2.82,11.69,3.23.5,0,1.14.79,1.32,1.33,1.36,4,2.67,7.91,3.86,11.9.41,1.4,1,2.08,2.63,1.85a25.18,25.18,0,0,1,3.39,0c-.88-2.73-1.69-5.26-2.52-7.78q-6.06-18.48-12.15-36.95c-.15-.43-.67-.75-1-1.13-.34.39-.84.72-1,1.16-2.41,7.06-4.81,14.12-7.11,21.21a3.19,3.19,0,0,1-2.22,2.44v.87Zm4.07-1c1.5-4.66,3.08-9.3,4.65-13.95h.34l5.53,16.92a20.09,20.09,0,0,1-4.18,0,41,41,0,0,1-5.69-1.84,1.29,1.29,0,0,1-.65-1.12"/><path class="cls-1" d="M151.89,127.59v22.26c-1.58,0-3,0-4.51,0l-.68-.68a3.14,3.14,0,0,1,0-1.11V106.86c0-1.84,0-1.84,1.92-1.85,3.37,0,3.37,0,3.37,3.11,0,5,0,10.08,0,15.12,0,.4.05.81.08,1.59.77-.89,1.32-1.51,1.85-2.14,4.75-5.61,9.52-11.2,14.23-16.84,1.12-1.34,2.45-.63,3.88-.52L156.3,123.88l20.23,26c-2.32,0-4.32,0-6.3-.05-.42,0-.89-.53-1.19-.91q-8-10.19-15.91-20.38c-.27-.36-.59-.7-.89-1Z"/><path class="cls-1" d="M78.91,139a36.85,36.85,0,0,0,2.87,5.61,9.44,9.44,0,0,0,3.9,3,6.25,6.25,0,0,0,8.57-4.48c.86-3.78-.45-7-3.34-9.5-2.34-2.06-4.93-3.86-7.41-5.78-3-2.29-5.42-5-6.2-8.62-.88-4.17-.48-8.21,2.28-11.75,3.77-4.85,12.09-4.84,15.69.12a30.33,30.33,0,0,1,2.79,6l-.41,1.11A14.05,14.05,0,0,1,95.74,116c-.57-1.44-1-2.82-1.63-4.11-1.37-2.82-3.32-5-7-5a5.37,5.37,0,0,0-5.06,2.83,7.34,7.34,0,0,0,.06,7.76c1.91,3.18,5.11,5.12,8,7.33s6.1,4.52,7.67,8a13.21,13.21,0,0,1-1.46,14.09c-4.51,6.08-14.33,5.31-18-1.26-.62-1.11-1-2.33-1.55-3.47-.24-.49-.68-1.49-.65-1.47a7,7,0,0,1,1.76-1.18,7.3,7.3,0,0,0,1-.49"/><path class="cls-1" d="M115.18,107.87c-.07-.38-.13-.6-.15-.82-.12-2-.12-2,2-2h24.12c2.6,0,2.6,0,2.31,2.77H132v42.06c-1.66,0-3.17.06-4.67,0-.27,0-.68-.68-.69-1.05-.07-3.13-.06-6.26-.06-9.38V108.72c0-.23,0-.45-.07-.85Z"/><path class="cls-1" d="M107.2,147h2.9c4,0,8.08,0,12.13,0,1.19,0,1.22.59,1.19,1.43s.06,1.43-1.18,1.42q-9.54-.06-19.09,0c-1.19,0-1.22-.57-1.22-1.4,0-5.88,0-11.76,0-17.64,0-8.12,0-16.24,0-24.36,0-1.17.37-1.51,1.59-1.5,3.7,0,3.7,0,3.7,3.51V147Z"/></svg>