<svg id="Layer_1" data-name="Layer 1" xmlns="http://www.w3.org/2000/svg" viewBox="0 0 245.33 239.63"><defs><style>.cls-1{fill:#383287;}.cls-2{fill:#fff;}</style></defs><path class="cls-1" d="M224,123.75c0,43.09-46.19,78-103.16,78s-103.13-35-103.12-78.06,46.19-78,103.15-78S224,80.65,224,123.75"/><path class="cls-2" d="M218.88,123.74h-.73a58.1,58.1,0,0,1-7.61,28.52c-7.36,13.17-19.68,24.4-35.22,32.35S141,197.19,120.84,197.19h0c-26.93,0-51.29-8.27-68.89-21.59a76.41,76.41,0,0,1-20.82-23.36,58.1,58.1,0,0,1-7.61-28.52h0A58,58,0,0,1,31.12,95.2C38.48,82,50.8,70.79,66.34,62.85s34.29-12.58,54.48-12.58h0c26.92,0,51.29,8.26,68.89,21.59a76.33,76.33,0,0,1,20.81,23.35,58,58,0,0,1,7.61,28.52v0h1.45a59.48,59.48,0,0,0-7.8-29.22C204.28,81.05,191.74,69.63,176,61.58s-34.72-12.75-55.14-12.76h0C93.6,48.82,69,57.16,51.06,70.69a77.67,77.67,0,0,0-21.2,23.8,59.48,59.48,0,0,0-7.8,29.22h0A59.62,59.62,0,0,0,29.85,153c7.53,13.46,20.07,24.87,35.82,32.93s34.73,12.75,55.15,12.76h0c27.22,0,51.87-8.34,69.75-21.87A77.83,77.83,0,0,0,211.8,153a59.49,59.49,0,0,0,7.8-29.23h-.72Z"/><path class="cls-2" d="M130.62,50.62h0a71,71,0,0,1,46.13,35.55c5.24,9.84,9,22.31,9.66,38.15l.72,0h-.72v.07a88.66,88.66,0,0,1-8,34.25,66.63,66.63,0,0,1-18.42,24c-8.69,7-20.22,12.42-35.6,14.51l.19,1.43c15.62-2.11,27.43-7.65,36.31-14.82,13.33-10.75,20.07-25.12,23.47-37a87.58,87.58,0,0,0,3.5-22.36v-.08h0v0c-.7-16.28-4.61-29.13-10.08-39.24a71.72,71.72,0,0,0-29.6-29.27,65.68,65.68,0,0,0-17.33-6.55Z"/><path class="cls-2" d="M110.9,49.21A72.6,72.6,0,0,0,63.83,85c-5.49,10.1-9.41,23-10.11,39.23h0v.27A89.65,89.65,0,0,0,62,160.07a66.8,66.8,0,0,0,18.7,24c8.78,7,20.42,12.38,35.79,14.46l.19-1.43c-15.13-2-26.5-7.33-35.08-14.17-12.87-10.24-19.48-24-22.86-35.65a86.89,86.89,0,0,1-3.54-22.77v-.24l-.72,0,.72,0c.69-16.08,4.55-28.7,9.93-38.6A70.37,70.37,0,0,1,94.2,57a72.43,72.43,0,0,1,12.06-5.1c1.53-.48,2.76-.81,3.6-1l1-.22.24-.05h.08Z"/><path class="cls-2" d="M124.3,50.28h0c.11,0,6.91,1.6,13.82,9.09a48.77,48.77,0,0,1,9.66,16.3c2.7,7.3,4.62,16.67,4.92,28.67l1.45,0c-.31-12.23-2.28-21.81-5.08-29.31-4.21-11.25-10.29-17.79-15.34-21.5a26.8,26.8,0,0,0-9.12-4.62Z"/><polyline class="cls-2" points="121.02 49.72 120.69 103.62 122.49 103.63 122.83 49.73"/><path class="cls-2" d="M119.32,49.22l.5.5-.35-.61-.15.11.5.5-.35-.61.31.54-.2-.6-.11.06.31.54-.2-.6.1.31-.08-.31h0l.1.31-.08-.31-.16,0c-.35.07-1.1.22-2.11.51-3.56,1-10.52,3.83-16.79,11.74s-11.82,20.88-12.73,42.1l1.45.06C89.79,90.86,92,81.25,95,73.94c4.47-11,10.68-16.76,15.79-19.88a28.49,28.49,0,0,1,6.48-2.94c.82-.25,1.49-.41,2-.51l.55-.12.18,0,.11,0,.09,0,.21-.14Z"/><path class="cls-2" d="M116.75,197.14h0a19.37,19.37,0,0,1-4.28-1.61c-3.8-1.87-9.46-5.78-14.31-13.7S89.27,162,88.82,144l-1.44,0c.31,12.22,2.25,21.75,5,29.17,4.14,11.13,10.13,17.49,15.1,21.06a25.34,25.34,0,0,0,9,4.34Z"/><polyline class="cls-2" points="122.82 198.64 122.56 144.51 120.76 144.52 121.01 198.65"/><path class="cls-2" d="M122.93,198.38l-.5-.5.35.61.15-.11-.5-.5.35.61-.31-.55.2.6.11,0-.31-.55.2.6-.11-.32.08.33h0l-.11-.32.08.33.16,0c.34-.06,1.09-.19,2.11-.46,3.56-.93,10.5-3.58,16.76-11.36s11.82-20.62,12.73-41.84L153,144.8c-.55,12.63-2.74,22.19-5.72,29.44-4.47,10.86-10.67,16.51-15.76,19.51a28.14,28.14,0,0,1-6.47,2.79c-.82.23-1.48.37-2,.46l-.55.1-.18,0-.11,0-.1,0-.21.15Z"/><path class="cls-2" d="M74.23,58.65c.1.11,2.16,2.25,9.09,4.35s18.73,4.18,38.4,4.19h.5c.85,0,2.63.06,5,.06a157.49,157.49,0,0,0,22.1-1.4,54.28,54.28,0,0,0,10.92-2.63,20.21,20.21,0,0,0,4.19-2.08,9.82,9.82,0,0,0,2.87-2.79l-1.23-.77A8.13,8.13,0,0,1,163.65,60,25.48,25.48,0,0,1,156.1,63a88.44,88.44,0,0,1-15.17,2.3c-5.18.39-10.12.48-13.69.48-1.58,0-2.89,0-3.84,0l-1.14,0h-.54c-19.56,0-31.24-2.07-38-4.12a32.67,32.67,0,0,1-6.8-2.79,10.52,10.52,0,0,1-1.33-.89l-.27-.22,0,0h0l-.21.21.22-.21h0l-.21.21.22-.21Z"/><path class="cls-2" d="M37.44,85.19c.09,0,21.71,9.41,68.75,9.41q7.29,0,15.38-.32l0-.72v.72s1.56,0,4.27,0c7.58,0,24.09-.16,40.24-1.4a215.68,215.68,0,0,0,22.82-2.78,75.68,75.68,0,0,0,9.06-2.22,24.56,24.56,0,0,0,6.4-3l-.83-1.18a22.73,22.73,0,0,1-6,2.76A99.48,99.48,0,0,1,180.62,90c-19.59,2.61-44.89,2.89-54.81,2.89h-4.29q-8.07.33-15.33.32c-23.42,0-40.49-2.34-51.69-4.66A126.78,126.78,0,0,1,42,85.3c-1.36-.43-2.38-.79-3-1-.34-.12-.59-.22-.75-.29l-.18-.07,0,0h0Z"/><path class="cls-2" d="M166.45,190l.32.13.38.07.18,0,.4-.23.15-.25.05-.26-.07-.32-.18-.28-.41-.36a11.64,11.64,0,0,0-1.37-.82c-2.14-1.09-6.34-2.69-13.47-4a174.86,174.86,0,0,0-31.06-2.51h-.28c-1.07,0-4.82-.21-9.77-.21a149,149,0,0,0-21.79,1.4,48.06,48.06,0,0,0-9.8,2.44,19.12,19.12,0,0,0-3.7,1.9,8.93,8.93,0,0,0-2.53,2.52l1.21.77a7.66,7.66,0,0,1,2.14-2.1,22.21,22.21,0,0,1,6.63-2.79,77.65,77.65,0,0,1,13.88-2.18c4.92-.4,9.86-.51,14-.51,2.81,0,5.23,0,7,.11l2.1.07.63,0h.32c17.63.09,29,1.84,36,3.63a42.14,42.14,0,0,1,7.34,2.49,12.32,12.32,0,0,1,1.57.86l.3.23,0,0,.22-.2-.26.15,0,.05.22-.2-.26.15.54-.31h-.62l.08.31.54-.31h.07l-.61-.32-.08.32h.69l-.61-.32.61.32-.44-.53-.17.21.61.32-.44-.53.43.52-.16-.66-.27.14.43.52-.16-.66.15.59v-.61l-.15,0,.15.59v-.19l.08-.41h-.08v.42l.08-.41,0,.11,0-.11h0l0,.11,0-.11-.16-.06Z"/><path class="cls-2" d="M204.34,162.58c-.09,0-20.45-8.88-66.82-8.88q-7.54,0-16,.33l0,.73V154s-1.56,0-4.27,0c-7.58,0-24.09.17-40.25,1.41a213.21,213.21,0,0,0-22.81,2.78,73.81,73.81,0,0,0-9.06,2.22,24.47,24.47,0,0,0-6.41,3l.84,1.18a23,23,0,0,1,6-2.77,100.63,100.63,0,0,1,16.85-3.44c19.59-2.61,44.9-2.89,54.82-2.89h4.3c5.62-.23,10.93-.33,15.94-.33,23.09,0,39.68,2.2,50.48,4.39a119.31,119.31,0,0,1,11.95,3c1.3.41,2.26.75,2.89,1l.7.27.18.07,0,0h0Z"/><polyline class="cls-2" points="187.18 125.01 219.46 124.81 219.45 123.37 187.17 123.56"/><polyline class="cls-2" points="54.34 123.01 22.54 123.37 22.56 124.81 54.35 124.45"/><rect class="cls-2" x="61.57" y="107.62" width="7.61" height="31.88"/><path class="cls-2" d="M74.5,129.13l7.4-.61a7.26,7.26,0,0,0,2.72,4.63,9.16,9.16,0,0,0,5.51,1.48,9.68,9.68,0,0,0,5.54-1.31,3.77,3.77,0,0,0,1.86-3.08,2.64,2.64,0,0,0-.78-1.92A6.59,6.59,0,0,0,94,126.94q-1.33-.39-6.09-1.4-6.12-1.28-8.59-3.15A7.83,7.83,0,0,1,75.86,116a7.31,7.31,0,0,1,1.64-4.55,10,10,0,0,1,4.7-3.23,21.9,21.9,0,0,1,7.41-1.11q7.1,0,10.68,2.63a8.77,8.77,0,0,1,3.77,7l-7.61.28a5.25,5.25,0,0,0-2.1-3.54,8.77,8.77,0,0,0-4.81-1.07,9.86,9.86,0,0,0-5.19,1.15,2.23,2.23,0,0,0-1.21,2,2.33,2.33,0,0,0,1.13,1.94q1.44,1,7,2.13a41,41,0,0,1,8.21,2.29,10.05,10.05,0,0,1,4.16,3.24,8.71,8.71,0,0,1-.29,10.21,10.59,10.59,0,0,1-5.09,3.56,25,25,0,0,1-8.2,1.16q-7.14,0-11-2.8a11.52,11.52,0,0,1-4.58-8.14"/><path class="cls-2" d="M111.54,139.51V107.62h12.21a51.91,51.91,0,0,1,9,.48,10.15,10.15,0,0,1,5.43,3.12,8.87,8.87,0,0,1,2.18,6.21,9.11,9.11,0,0,1-1.26,4.94,9.33,9.33,0,0,1-3.2,3.14A12,12,0,0,1,132,127a50.46,50.46,0,0,1-7.89.46h-5v12ZM119.15,113v9h4.16a22.89,22.89,0,0,0,6-.5A4.89,4.89,0,0,0,131.7,120a4,4,0,0,0-.34-5.35,5.51,5.51,0,0,0-3.06-1.41,42.16,42.16,0,0,0-5.48-.22Z"/><path class="cls-2" d="M145.11,123.76a17.56,17.56,0,0,1,1.72-8.18,15.3,15.3,0,0,1,3.51-4.37,15,15,0,0,1,4.87-2.87,24,24,0,0,1,8.12-1.26q8.32,0,13.33,4.37t5,12.16q0,7.72-5,12.08t-13.26,4.36q-8.4,0-13.36-4.34t-5-12m7.84-.22q0,5.42,3,8.21a11.44,11.44,0,0,0,15,0c1.95-1.84,2.92-4.62,2.92-8.31s-.95-6.38-2.84-8.18a11.9,11.9,0,0,0-15.13,0c-1.92,1.82-2.87,4.57-2.87,8.23"/></svg>