<svg id="Layer_1" data-name="Layer 1" xmlns="http://www.w3.org/2000/svg" viewBox="0 0 584.32 239.63"><defs><style>.cls-1{fill:#c9d400;}.cls-2{fill:#394694;}.cls-3{fill:#c5d100;}.cls-4{fill:#fff;}.cls-5{fill:#cbd100;}</style></defs><path class="cls-1" d="M107.16,171.38c-.34-.07-11.9-6.66-11.9-6.66l.8-1.82c.13,0,11.9,7.57,32.29,8.47h.33c20.6.82,59.45-7,38.44-53.94,0,0-39.79-68-101.81-36.24,0,0-6.4,6.21-7.27,8.42s-.78,1.55-.78,1.55-.34-4.32,0-5.24.34-2.77.89-3.35,17.32-14.77,34-15.92c0,0,47.72-6.47,78.9,40.16,0,0,22.35,33.94.89,57.37,0,0-19.55,24.88-64.26,7.24"/><path class="cls-1" d="M92.16,182.11l6-3q-3.17,1.45-6.41,2.71Z"/><path class="cls-2" d="M144.43,102.65a23.19,23.19,0,0,0-4.82-7.82,16.66,16.66,0,0,0-2-1.8l-.78-.56-.13,0a2.72,2.72,0,0,0,.76,2A26.63,26.63,0,0,1,139,96.78a26.9,26.9,0,0,1,2.09,4.83,28.7,28.7,0,0,1,1.2,10.55,53.76,53.76,0,0,1-3.88,16.51l-.24.58a69.84,69.84,0,0,1-13.62,20.31,111.67,111.67,0,0,1-20,16.78,13.9,13.9,0,0,1-1.2.8,89.7,89.7,0,0,1-9.12,4.63l.86,1.16,4.57,5.48a4.05,4.05,0,0,0,.89-.37c7.51-3.56,14.17-8.73,20.25-14.46a111.64,111.64,0,0,0,16.55-19.51l.17-.19.28-.08a4,4,0,0,0,2.5-1.57,6.83,6.83,0,0,0,1.4-3,3.22,3.22,0,0,0-.19-1.6l-.77-1.15a63.45,63.45,0,0,0,5.4-19.44,32.78,32.78,0,0,0-1.71-14.41"/><path class="cls-2" d="M49.13,100.79l1.4-1.37-1.66,1Z"/><path class="cls-2" d="M66.09,88.35c-.2.13,2.11-.15,5.3-2.56C76,82.28,82,75.59,80,70.16c0,0-5.83,12.71-14,18.19"/><path class="cls-2" d="M114.71,130.38s6.93,5.14,7.86,6.19c0,0,1.87,3.27-2.16,4.3,0,0-4.44,2.34-5.29-2.38v-6.3l-1.18-1.81H112.5a5.29,5.29,0,0,1-1.19-2.9l-.42-2.62-1.27-1.27a6.72,6.72,0,0,1-.77-.66c-.33-.35-3.56-.87-3.56-.87l-2.46-.35L92.13,114s-9.79-8.14-10.21-9.18S73,96.68,73,96.68s-.38-1.14,3.18,1.75l13,11.46s7.79,6.3,8.13,6.73,5.58,3.41,5.58,3.41l7,2,9.39,4.11s5.94,5.14,6.2,5.46a25,25,0,0,0,2.54,2.41,16.21,16.21,0,0,0,1.61.52s2.2.16,2.71,1.39l2.29,4.48-2.12-2.37L131,135.94l-3.39-.42-2.28-1.84-7.12-7a21,21,0,0,1-.51,2.19,28.61,28.61,0,0,0-2.28-3.4l-3.73-1.89.59,2.75a13.44,13.44,0,0,0,1.36,2.54c.5.52,1.69,2.15,1.69,2.15a4.53,4.53,0,0,1,.59,2.57l1.36,5.08s3.56,3.26,3.56-1c0-.52-7.36-6.08-6.09-7.32"/><path class="cls-2" d="M133.52,133.29s1.68,1.59,3.23,1.55l.62.5c1.62-.54-1.84,1.27-1.84,1.27a1.11,1.11,0,0,0-.5-1.13c-1-.64-1.7-1.77-1.51-2.19"/><path class="cls-3" d="M132,131l-4.32-3.68c-2-2.1-4.65-3.84-6.32-6.25-2.73-4-4.55-8.46-6.56-12.82-.39-.85-.71-1.71-1.12-2.52a49.24,49.24,0,0,0-.34-12.07,97.79,97.79,0,0,0-2.62-11.1c-2.2-7.88-4.73-15.71-6.61-23.66-.26-1.13-.53-2.25-.79-3.37l-.44-2,.72-1.53a9.67,9.67,0,0,0,.71-2.19,7.17,7.17,0,0,0-1.92-6.45,6.62,6.62,0,0,0-7.6-1c-1.75,1-3,2.65-4.55,3.89-3.48,2.76-8.17,3-12.44,4a4.23,4.23,0,0,0-2.39,1.22,4.32,4.32,0,0,0-.59,3.32,16.66,16.66,0,0,0,1,3.75,2,2,0,0,0,.61,1l0,0a.72.72,0,0,0,1-.11,1.16,1.16,0,0,0,0-1,11.94,11.94,0,0,1-.72-3.21A3.24,3.24,0,0,1,78,52.37a4.91,4.91,0,0,1,2.41-.47A23.5,23.5,0,0,0,93,46.83c1.51-1.14,3.15-2.48,5-2.3a4,4,0,0,1,3,2.2c.91,1.77.63,3.94,1.18,5.87a10.08,10.08,0,0,1,.51,1.92,8.87,8.87,0,0,1-.16,1.69c-.24,2.06.52,4.09,1,6.07a17.42,17.42,0,0,1,.91,3.72,15.94,15.94,0,0,0,1,3.66c.66,2.4,1.35,4.8,2,7.2,2.23,8.07,4.34,16.29,3.87,24.76,0,.48-.05.95,0,1.42l-.25-.22-.6-.6-.27-5.44-4.1-17.85c-.74-3.16-5.86-20.23-6-20.39-1.12-1.08-.45,2.62-.45,2.62l2.46,10.77L105,83l.69,3.45-.71,0a15.74,15.74,0,0,0-4,.94c-1.25.5-2,1.53-3.32.59-.83-.61-1.66-1.27-2.46-2a18.8,18.8,0,0,1-2-3.67c-.23-1.08-3.13-11.85-3.13-11.85l-3.8-8.46s11,2.46,13.41-6.62v-.39s-5.44,7.24-16.09,5.16c0,0,6.63,17.78,6.93,20.66a19.83,19.83,0,0,1-1.86-2.57,26.59,26.59,0,0,0-1.8-2.93l-4-11.23C81.36,59.93,80,60.62,80,60.62L80.41,62l1,2.31s1,3,1.56,4.15a28.44,28.44,0,0,1,.91,5l1.86,4.61a123.71,123.71,0,0,0,10.63,11.2,110.38,110.38,0,0,1,10.51,11.31,63.75,63.75,0,0,1,8,13.22c.68,1.46,1.26,3,2,4.44a15.54,15.54,0,0,0,2.39,4,71.47,71.47,0,0,0,6.28,6.15c2,1.69,4.24,3.69,6.73,4.55.35.12.61.13.69-.07s-.72-1.6-1-1.82M99.72,89.77a21.54,21.54,0,0,1,2.4-1.48,4.83,4.83,0,0,1,2-.1c.64.06,1.27.15,1.91.23l.16.83h-.09l-2.4.38-1.78.57c-.85.26-1.63.45-2.24-.42m6.1,6.49-3.37-4.09a7.39,7.39,0,0,1,1.29-1,17.69,17.69,0,0,1,2.4-.54l.39.12L107.59,96l.34,3c-.69-.94-1.38-1.88-2.11-2.76"/><path class="cls-2" d="M81.43,59.5S95.94,61.56,102.82,51l-.75-.49a37,37,0,0,1-20.64,8.66"/><path class="cls-3" d="M82.85,78.16v1.11s6.56,7,7.45,10l6.19,13.82.52,3,4.58-4.23.86-.31-.38,1.18s-3.2,3.06-3.42,3.36-2.68,3-2.68,3l-1.1,3.2,1.39,2.11s6.63,4.57,10.21,4.56l6.41,2.37,1.94.72,3.5,1-3.21-5.47L113.47,114l-3.28-6.46-1.63-2.47-4.33-4.94-10-10.29L87.4,82.55l-3.65-3.28Z"/><path class="cls-4" d="M102.82,103.86s.66-1.15,1-.77,6.15,7.7,6.15,7.7,3.13,5.07,2.76,7.07l-1.27,1.1-2.68-2.1-2.55-4.38-4.64-6.39s-.21-2.65,2.15,1.23c.42.7,4.19,5.39,4.19,5.39l1.59,2.16.9.53s-.3-1-.45-1.31-.74-1.77-1-2.07-2.16-3.23-2.16-3.23Z"/><path class="cls-4" d="M100.06,107.25c.08.38,3.63,4.46,3.68,4.84a25,25,0,0,0,1.84,2.39l1,1.61-1.12.54-6.26-4s-1.41-.6-1-1.65-.48-.19-.09-.35,1.87-3.38,1.87-3.38"/><polygon class="cls-4" points="92.84 90.63 95.96 96.01 98.09 101.25 94.85 95.93 92.13 89.7 92.84 90.63"/><path class="cls-4" d="M99.72,97.94A18.26,18.26,0,0,1,101,99.4l-1.24.75-.48-2.21Z"/><path class="cls-3" d="M67.81,88.13a22.75,22.75,0,0,1,9.3,7.34L90.6,109.63l5,3.23.57-2.61-4-3.46L88.07,103S73.29,89.6,73,89.27s9.37-4,9-16.26-.9-2.31-.9-2.31-.22,12.46-8.71,16.23c0,0-2.76,1.34-4.54,1.2"/><path class="cls-2" d="M64.9,90.41s2.83-3.89,11.92,6.82c0,0-6.26-4.06-6.63-4.14S65,91,64.9,90.41"/><path class="cls-1" d="M62.35,92.51l-1.46-2.37L59.5,88.37,58.43,86.1c0-.17,1.52-5.87,3.92-7.67.61-.46,6-5.6,6.76-11.2,0,0,4.57-8.32,10.33-3.11a9.62,9.62,0,0,1,2.8,5.54l-1.83.5-2.2-3.26s-2.72-3.9-7,1l-1.68,5s-1.7,2.06-1.74,2.67S65.38,79.53,64.9,80s-4.12,4.33-4.23,4.61l-.74,2.31a2.76,2.76,0,0,0,.46,1.46c.85,1.29,2.38,3,2,4.14"/><path class="cls-2" d="M67.81,76.84S69.89,77,73,68.67c0,0,.88-1.64,5.42-.5l.76-.41-3.23-1.94s-2.89-1.42-3.72,2c0,0-1.86,7.18-4.4,9"/><path class="cls-1" d="M49.8,100.82s-2.54-.09-2.87-.17c-.63-.16-1.29-.27-1.9-.49A6.72,6.72,0,0,1,43,99l-.11-.17.07-.12a12.83,12.83,0,0,1,1.47-1.38l.42-.33c.39-.2,1.08,0,1.51,0l.46-.28.66-.18.45.2a23.87,23.87,0,0,1,3.53,2.53l.13.18-1,.81Z"/><path class="cls-1" d="M91.75,105.55l.87.47,0,.9.69.69.33,2,.06,1.39-.42.77-.69.89-.71.53-.15.67-1.55-1.35.15-1.33-.15-1.29a6.63,6.63,0,0,1-.33-1.57,5.71,5.71,0,0,1,.24-1.08l.48-.89.71-.74Z"/><path class="cls-1" d="M57.75,112.23l3.35,4.46,1.38,5.47.25,2.44-2.2-.76-2-.84-1.63-.5-1.88.67-2.12,2.19-1.38,1.43-.9,2.53A12.25,12.25,0,0,0,49,131.76a13.68,13.68,0,0,0,1.55,3.87c.49.51,2.12,2.11,2.44,2.45s1.23,2,1.88,2.44a2.43,2.43,0,0,0,2.36.5c1.14-.33,2.29-.5,2.29-1.09s.08-1.94.48-2a7.68,7.68,0,0,1,2-.42H63.3a2.71,2.71,0,0,1,1.46,1,9.47,9.47,0,0,0,1.8,2.52c.9.76,4.73,3.12,4.73,3.12l1.39,2.44a9.5,9.5,0,0,1-1.8,2.11,28.78,28.78,0,0,0-2.36,1.93c-.41.25-2,1.52-3.18,1.52s-5.71-.25-5.71-.25l-6.12-1.18a7.6,7.6,0,0,0-2.44,0l-5.14,3.79-1.79,2.94s-.08,0,2.53,1.35,9.21,2.44,9.21,2.44l5.87.76,4.4,1.77,3,2A11,11,0,0,1,72,167c.49.5,4.32,3.62,4.32,3.62l7.59,5,.06.05c2.44-.75,5,5.64,9,6.55,1.06.24,5.51-2.56,6.14-2.82.36-.16-5.24-7.39-4.88-7.55L93,170.07l-2-2.36L86.21,163,84,157.36l-.66-6.49,1.72-6.14,1.79-4.3.73-2.94-.65-1.94-2.77-.84-.82-2,1-3.12,8.4-16.33L90,110.46l-2,3.37-2.53,3.45c-.24.34-3.5,5.14-3.5,5.14a5.22,5.22,0,0,1-1.31,2.27c-.81.59-4.32,2.53-4.32,2.53a16,16,0,0,1-2.93,1.59,18.23,18.23,0,0,1-2-.17,30.39,30.39,0,0,1-3.26-3.45l-1.22-3.11L66,117.7l-2.61-6-3.18-4.29-2.77-3.2-2.85-2.53-3.1-2.86-.95.58-1.4,1.37Z"/><path class="cls-2" d="M44,156.88l1-.46.45.33a14.77,14.77,0,0,1,2.25-2.29,7.22,7.22,0,0,1,1.73-1.17,6.05,6.05,0,0,0,1.7-.86l.95-.75,1,.23a44.39,44.39,0,0,0,6.17.93,44.36,44.36,0,0,0,4.89-.12l2.39-.18,1.81,0c1-1,1.77-2.18,2.68-3.23a5.6,5.6,0,0,1,1-1.17c.35-.24.8-.21,1.17-.39,1.52-.73.2-3-.54-3.76a17,17,0,0,0-2.87-2.18,18.68,18.68,0,0,1-6-7.08L62.25,137a4.22,4.22,0,0,0-2.31-.35,1.9,1.9,0,0,0-1.56,1.61l.06,1-.61.52c-.64.2-1.36-.1-2,0l-.43,0c-.36-.19-.2-.75-.23-1.17-.06-.89-1.09-1.25-1.86-1.62a5.45,5.45,0,0,1-3-3.82,5.62,5.62,0,0,1,1.26-4.73,2.86,2.86,0,0,0,.89-1.34l.08-.79.53-.6,2.58-2,.62-.37a2.18,2.18,0,0,1,1.63.31l3.61,1.71c.51.24,1.17.45,1.56,0a1.43,1.43,0,0,0,.25-1.15,28.12,28.12,0,0,0-1.89-8,14.29,14.29,0,0,0-1.58-3,33.2,33.2,0,0,0-2.22-2.53c-3-3.39-5-7.84-8.7-10.41a4.92,4.92,0,0,0-1.38.48l-.28.23c-.19.33.25.66.58.82,3.28,1.53,4.8,5.34,6.92,8.35,1.22,1.73,2.69,3.24,3.84,5a16.37,16.37,0,0,1,2.54,8.09,27.19,27.19,0,0,0-2.89-1.09,1.64,1.64,0,0,0-2-1,6.68,6.68,0,0,0-2.14,1.2,11.27,11.27,0,0,1-3.74,1.64,4.34,4.34,0,0,1-.15,2.92,6.54,6.54,0,0,1-.82,1,6.64,6.64,0,0,0,.66,9,26.08,26.08,0,0,1,2.25,1.8,10.54,10.54,0,0,1,.85,1.14c.22.34.31,1.45.58,1.75l2.07,0a2.25,2.25,0,0,0,1.81.39,2.29,2.29,0,0,0,2.2-1c.39-.41.29-1.62.76-1.92s1.21-.11,1.81,0,1.42,0,1.59-.6a10.37,10.37,0,0,0,3.57,4.36,15.46,15.46,0,0,1,3.21,2.32,1.62,1.62,0,0,1,.47,1.27,1.89,1.89,0,0,1-.66.94c-1.08,1-2.12,2.23-3.28,3.12a3.3,3.3,0,0,1-2,.44l-2.67.13a21.61,21.61,0,0,1-6.72-.28c-1.31-.35-2.36-.25-3.46-1.18-.86-.72-1.54-1.65-2.44-2.32l-5.66-4.26-3.29-2.47c-.8-.6-1.86-1.23-2.71-.71q-3.93-7.53-8.13-14.92c-.78,2.48-1.56,4.94-2.34,7.4l-.14.79.29.78,4.74,8.72a3,3,0,0,1,.42,1.14c0,.55-.24,1.07-.24,1.62a3.18,3.18,0,0,0,.73,1.73q3.42,5,6.83,10a5.65,5.65,0,0,0,1.33,1.54,1.88,1.88,0,0,0,1.9.22l.07,0-.64-.25Z"/><path class="cls-2" d="M82,172.87c-.29-.47-4.32-2.83-4.77-3.14s-4.69-3.62-4.69-3.62a4.55,4.55,0,0,1-4-2.69s-18-4.77-18.78-4.85a11.85,11.85,0,0,1-2.23-.39,22.33,22.33,0,0,1-2.09-1.43c-.23.3-.46.61-.67.93a3.56,3.56,0,0,1-.91,1l.61.24,1,.91,4.4.84,9.83,2.18,7.6,2.13a3.43,3.43,0,0,0,4,2.31l2,2.23L81.74,175l3.5,3.85.74-2.7a50,50,0,0,1-4-3.24"/><path class="cls-2" d="M44.78,157.68c.21-.32.44-.63.67-.93l-.45-.34-1,.47-.81,1.61.65.24a3.44,3.44,0,0,0,.91-1"/><polygon class="cls-2" points="63.96 112.08 63.92 111.52 63.9 111.5 63.96 112.08"/><path class="cls-2" d="M87,126.44l4-7.54,1.67-3.44,1.57-2.29.74-1.21.24-1,.25-1.21v-1.08l-.12-1.16-.41-1a7.1,7.1,0,0,0-1.26-2.06,7.25,7.25,0,0,0-2.61-1.25l-1.49.9-.43.72L89,105.86l-.49.5,0,0-.71,1-.1,1.52.77,1.75v1.16l-.8,1.26-5,6.84L80.76,122l-.25,1.49-1.69,1.84-3,1.49c-.88.23-1.44.58-2.3.85l-.85.29c-.36,0-.72-.31-1-.5a11.76,11.76,0,0,1-.91-.83l-.39-.36a5.54,5.54,0,0,1-.9-.78,5.59,5.59,0,0,1-1-2,24.81,24.81,0,0,1-.59-3.55,14.81,14.81,0,0,0-3.93-8.46l0,.56-.06-.58,0,0a5.67,5.67,0,0,0-1-2.56,16.11,16.11,0,0,0-2.24-2.43q-4.8-4.53-9.38-9.3c-.3.31-.61.62-.91.94L55,103.31c1,1.06,1.89,2.11,2.85,3.16,1.09,1.22,2.18,2.43,3.16,3.73.82,1.08,1.56,2.22,2.3,3.35a16.82,16.82,0,0,1,1.85,3.38,17.7,17.7,0,0,1,.67,2.9l.45,2.64c.08.44.15.87.22,1.31l.12.65.19.45c.19.37.4.74.61,1.1a4,4,0,0,0,.75.78l.91.85.24.24.3.27.56.53a5.94,5.94,0,0,0,1.12.72,2,2,0,0,0,1.49.28l.48-.1.93-.35c.43-.2.74,0,1.17-.24s.82-.55,1.26-.77a10.84,10.84,0,0,0,1.31-.68c.56-.36,1.26-.54,1.83-.88l1-.56,1.76-1.83a14.93,14.93,0,0,1,.21-1.56l2.38-2.92,4.48-6.47.83-1.07,0-1.75a4.44,4.44,0,0,1-.33-1.69l.23-.44.4-.61.18-.63c0-2,1.16-1.55,1.16-1.55l.59.46,0,.91.46.41.51,1.08-.3,2.45-.07,1.07-.88.63-1.13,2.18-3.66,6.64-2.82,5.69L83,130.32c-2,3.75,2.88,6,2.88,6,1.64.31,1.07,2,1.07,2l-1.13,2.39-2.25,7.14a63.67,63.67,0,0,0-.5,7.09l.27,2.16a35.67,35.67,0,0,0,2.56,6.21l1.58,2.51c2.31,1.66,5.75,5.9,6,6l.39,1.05,1.37-1.12c-.64-2.62-5-5.95-5-5.95l-1.65-1.65L86.45,161c-1.79-4.06-1.55-10.39-1.55-10.39a32.09,32.09,0,0,1,1.19-5.47l3.06-7.23a2.57,2.57,0,0,0,.14-.92l-.16-.71-.36-.54-.43-.4-.51-.32-.17-.1-.26-.09-.18-.05-.45-.09-.76-.32-.55-.38-.34-.3-.09-.11c-1.13-.44-.35-2.84-.35-2.84Z"/><path class="cls-2" d="M95.34,171.81l.09.72-.09-.72"/><polygon class="cls-2" points="95.33 171.71 95.34 171.81 95.33 171.64 95.19 171.75 95.22 171.85 95.33 171.71"/><path class="cls-2" d="M95.43,172.53c.06.54,0,.34,0,0"/><path class="cls-5" d="M21.7,123.78l.65-.29.8-.34a14.47,14.47,0,0,0,2.43-1.28l.72-.05a1.12,1.12,0,0,1,.34.88c0,.42,0,.84,0,1.26l0,.29,0,.11-.09,0c-.72.15-1.83.26-2.17,1.07l-.83-.63a10.41,10.41,0,0,0-1.79-1.06"/><path class="cls-5" d="M30,128a2.32,2.32,0,1,1-2.32-2.39A2.36,2.36,0,0,1,30,128"/><polyline class="cls-5" points="35.72 139.82 30.46 131.01 29.44 132.59 34.38 140.87 35.24 140.28"/><path class="cls-5" d="M36.32,145.8l0,.11.07.18c1.44,2.31,3,4.49,4.57,6.74a24.31,24.31,0,0,1,1.52,2.36l.18.35.19.33L43,156h.06l.21-.09.17-.14c.34-.52.68-1,1-1.57a7.17,7.17,0,0,1,1-1.4,9.41,9.41,0,0,1,1.8-1.2l2.15-1.4-1.19-1-1.15-.91-2.8-2.23L40,142.68l-1,1.68a4.68,4.68,0,0,1-1.13.89l-.69.31-.69.12Z"/><path class="cls-1" d="M99.25,188.87l8,4.35,4.21,2.12a3.43,3.43,0,0,1,3.32,3.48s-.31,1.47,0,1.58.32.6.95.27,2.42-2.93,8.27,1.09l3,2.29s1.84.27.89-1.8l-2.11-1.14-1.52-1.25-1-1.8-1.73-2-2-1.19-2.22-1.58-1.74-.55s-12.26-9-16.88-14.21l-6.47,2.58c0,.08-.62.7-.06,1.19a9.12,9.12,0,0,0,2.23.81,24.16,24.16,0,0,0,4.85,5.72"/><path class="cls-2" d="M91.23,181.37s-3.15-.5-1.14.42a4.88,4.88,0,0,1,1,.73l2.11.21a4.11,4.11,0,0,0-2-1.36"/><path class="cls-2" d="M100.55,178c-.18-.33-5.57-6.11-5.57-6.11l-.86-.63-.26,1.56L98.2,178l3,5,.22.24,3.46.24a13.53,13.53,0,0,1-4.38-5.43"/><path class="cls-2" d="M95.93,188.76c3.06,3,14.54,7.83,14.54,7.83,3,1.09,2.43,3.21,2.43,3.21.37,3.7,2.84,2.61,2.84,2.61,4.16-2.61,8,1.69,8,1.69l3.37,1.63c2.79.93,2.74-2.61,2.74-2.61.21-2.06-2.16-2.88-2.16-2.88a4.41,4.41,0,0,1-3-3.27,15.1,15.1,0,0,0-5.22-4.35l-3.74-1.85L112,188.92l-6.69-5.22-.38-.23-3.46-.24c4.61,5.22,14.11,9.55,14.11,9.55l1.74.55,2.22,1.58,2,1.19,1.74,2,1,1.8,1.52,1.25,2.11,1.14c1,2.07-.89,1.8-.89,1.8l-3-2.29c-5.85-4-7.64-1.41-8.27-1.09s-.63-.16-.95-.27,0-1.57,0-1.57a3.43,3.43,0,0,0-3.31-3.49l-4.22-2.12-8-4.35a24.16,24.16,0,0,1-4.85-5.72l-1.18-1.5-2.13.87a40.84,40.84,0,0,1,4.84,6.24"/><path class="cls-2" d="M79.39,176.91a58,58,0,0,1-7.5,1.54,65.25,65.25,0,0,1-19.73,0,32.5,32.5,0,0,1-8.5-2.75,30.52,30.52,0,0,1-12.78-10.57,31.54,31.54,0,0,1-5.1-17,54.13,54.13,0,0,1,1.1-9.5,60.4,60.4,0,0,1,9.79-23.07,101.57,101.57,0,0,1,12.46-14.82l-.26-.35,1.66-1c2.34-2.29,4.75-4.52,7.2-6.7-.33-.52-.66-1-1-1.55l-7,4.82a4,4,0,0,0-5.54-.44C43.67,94,41.51,94,39.92,94.4a1.89,1.89,0,0,0-1.08.51,1.36,1.36,0,0,0,.51,1.89,3.63,3.63,0,0,0,2.11.31,3,3,0,0,0,1.24,4.41,63.22,63.22,0,0,0-15.07,17.35,24.12,24.12,0,0,0-13.84,6.92c.77,1.46,2.67,1.76,4.28,1.64s3.34-.45,4.76.34a44.54,44.54,0,0,0-3.78,27.08A43.6,43.6,0,0,0,23.33,167a39.68,39.68,0,0,0,14.3,15.59A35.54,35.54,0,0,0,48.39,187a56.24,56.24,0,0,0,19.1.92,94.65,94.65,0,0,0,22.81-5.48l1.1-.41c.1,0-.31.62.91.93.39.1,1.4-.46,1-1.19L84.56,175l-.57.63c-1.53.47-3.06.91-4.6,1.31"/><rect class="cls-2" x="198.35" y="106.99" width="4.72" height="57.9"/><polygon class="cls-2" points="206.13 107.84 215.96 107.84 228.78 130.41 228.78 107.84 238.7 107.84 238.7 148.64 228.78 148.64 216.03 126.24 216.03 148.64 206.13 148.64 206.13 107.84"/><path class="cls-2" d="M267.89,141.9H255.94l-1.66,6.74H243.53l12.8-40.8h11.48l12.8,40.8h-11Zm-2.19-8.82-3.76-14.66-3.72,14.66Z"/><path class="cls-2" d="M283.49,128.27q0-10,4.64-15.56t12.94-5.56q8.51,0,13.1,5.46t4.61,15.32a29.53,29.53,0,0,1-2,11.73,16.15,16.15,0,0,1-5.81,7.13,16.69,16.69,0,0,1-9.47,2.54,18.81,18.81,0,0,1-9.54-2.19,15.84,15.84,0,0,1-6.12-7,26.92,26.92,0,0,1-2.34-11.91m10.52,0q0,6.18,1.92,8.88a6.45,6.45,0,0,0,10.46.05q1.86-2.64,1.86-9.48,0-5.76-1.94-8.42a6.18,6.18,0,0,0-5.26-2.66,6,6,0,0,0-5.11,2.7q-1.94,2.7-1.93,8.93"/><polygon class="cls-2" points="322.53 107.84 354.52 107.84 354.52 117.92 343.79 117.92 343.79 148.64 333.26 148.64 333.26 117.92 322.53 117.92 322.53 107.84"/><polygon class="cls-2" points="219.89 155 224.84 155 224.84 156.42 223.18 156.42 223.18 160.75 221.55 160.75 221.55 156.42 219.89 156.42 219.89 155"/><polygon class="cls-2" points="225.85 155 227.47 155 227.47 157.01 229.25 157.01 229.25 155 230.89 155 230.89 160.75 229.25 160.75 229.25 158.43 227.47 158.43 227.47 160.75 225.85 160.75 225.85 155"/><polygon class="cls-2" points="232.23 155 236.6 155 236.6 156.23 233.87 156.23 233.87 157.14 236.4 157.14 236.4 158.32 233.87 158.32 233.87 159.45 236.68 159.45 236.68 160.75 232.23 160.75 232.23 155"/><polygon class="cls-2" points="240.55 155 242.07 155 244.06 158.18 244.06 155 245.59 155 245.59 160.75 244.06 160.75 242.08 157.59 242.08 160.75 240.55 160.75 240.55 155"/><path class="cls-2" d="M250.11,159.8h-1.85l-.26,1h-1.66l2-5.77h1.78l2,5.77h-1.71Zm-.34-1.24-.58-2.07-.58,2.07Z"/><polygon class="cls-2" points="251.98 155 256.93 155 256.93 156.42 255.27 156.42 255.27 160.75 253.64 160.75 253.64 156.42 251.98 156.42 251.98 155"/><rect class="cls-2" x="258" y="155" width="1.63" height="5.76"/><path class="cls-2" d="M260.86,157.88a3.15,3.15,0,0,1,.72-2.2,2.59,2.59,0,0,1,2-.78,2.63,2.63,0,0,1,2,.77,3.11,3.11,0,0,1,.71,2.16,3.78,3.78,0,0,1-.31,1.66,2.3,2.3,0,0,1-.9,1,2.75,2.75,0,0,1-1.46.37,3.09,3.09,0,0,1-1.48-.32,2.31,2.31,0,0,1-.95-1,3.54,3.54,0,0,1-.36-1.68m1.63,0a2,2,0,0,0,.3,1.25.93.93,0,0,0,.8.38,1,1,0,0,0,.82-.37,2.32,2.32,0,0,0,.28-1.34,1.91,1.91,0,0,0-.3-1.19,1,1,0,0,0-.81-.37.94.94,0,0,0-.79.38,2,2,0,0,0-.3,1.26"/><polygon class="cls-2" points="267.48 155 269 155 270.98 158.18 270.98 155 272.52 155 272.52 160.75 270.98 160.75 269.01 157.59 269.01 160.75 267.48 160.75 267.48 155"/><path class="cls-2" d="M277,159.8h-1.85l-.25,1h-1.67l2-5.77H277l2,5.77h-1.71Zm-.34-1.24-.58-2.07-.57,2.07Z"/><polygon class="cls-2" points="279.78 155 281.41 155 281.41 159.34 283.95 159.34 283.95 160.75 279.78 160.75 279.78 155"/><path class="cls-2" d="M290.92,159.8h-1.85l-.25,1h-1.67l2-5.77h1.78l2,5.77h-1.71Zm-.34-1.24-.58-2.07-.57,2.07Z"/><path class="cls-2" d="M293.39,158.85l1.55-.11.2.63a.82.82,0,0,0,.72.35l.54-.18.19-.41-.18-.4a2,2,0,0,0-.84-.34,3.21,3.21,0,0,1-1.52-.7,1.43,1.43,0,0,1-.46-1.1l.23-.84a1.55,1.55,0,0,1,.71-.62,3.06,3.06,0,0,1,1.3-.23,2.47,2.47,0,0,1,1.53.41,1.81,1.81,0,0,1,.64,1.31l-1.54.1-.25-.57-.55-.18-.42.13-.15.32.12.25.55.21a6.67,6.67,0,0,1,1.53.51,1.61,1.61,0,0,1,.88,1.49,2,2,0,0,1-.28,1,1.78,1.78,0,0,1-.78.71,3,3,0,0,1-1.27.24,2.47,2.47,0,0,1-1.87-.56,2.34,2.34,0,0,1-.58-1.44"/><path class="cls-2" d="M299,158.85l1.55-.11.2.63a.82.82,0,0,0,.72.35l.54-.18.19-.41-.18-.4a2,2,0,0,0-.83-.34,3.21,3.21,0,0,1-1.53-.7,1.43,1.43,0,0,1-.46-1.1l.23-.84a1.6,1.6,0,0,1,.71-.62,3.09,3.09,0,0,1,1.3-.23,2.5,2.5,0,0,1,1.54.41,1.84,1.84,0,0,1,.63,1.31l-1.54.1-.25-.57-.54-.18-.43.13-.14.32.11.25.55.21a6.67,6.67,0,0,1,1.53.51,1.66,1.66,0,0,1,.67.64,1.73,1.73,0,0,1,.21.85,1.91,1.91,0,0,1-.28,1,1.73,1.73,0,0,1-.78.71,3,3,0,0,1-1.27.24,2.43,2.43,0,0,1-1.86-.56,2.29,2.29,0,0,1-.59-1.44"/><path class="cls-2" d="M304.63,157.88a3.15,3.15,0,0,1,.72-2.2,2.59,2.59,0,0,1,2-.78,2.63,2.63,0,0,1,2,.77,3.06,3.06,0,0,1,.71,2.16,3.78,3.78,0,0,1-.31,1.66,2.19,2.19,0,0,1-.9,1,2.75,2.75,0,0,1-1.46.37,3.09,3.09,0,0,1-1.48-.32,2.31,2.31,0,0,1-.95-1,3.54,3.54,0,0,1-.36-1.68m1.63,0a2,2,0,0,0,.3,1.25.93.93,0,0,0,.8.38,1,1,0,0,0,.82-.37,2.32,2.32,0,0,0,.28-1.34,1.91,1.91,0,0,0-.3-1.19,1,1,0,0,0-.81-.37.94.94,0,0,0-.79.38,2,2,0,0,0-.3,1.26"/><path class="cls-2" d="M314.74,158.4l1.43.47a3.25,3.25,0,0,1-.45,1.1l-.77.66a2.62,2.62,0,0,1-1.17.23,3.14,3.14,0,0,1-1.4-.28,2.35,2.35,0,0,1-.94-1,3.53,3.53,0,0,1-.4-1.76,3.16,3.16,0,0,1,.7-2.19,2.52,2.52,0,0,1,4.38,1l-1.44.35-.16-.38-.33-.32-.44-.11a.93.93,0,0,0-.85.49,2.18,2.18,0,0,0-.22,1.13,2.36,2.36,0,0,0,.26,1.31,1,1,0,0,0,1.46.07,1.82,1.82,0,0,0,.34-.83"/><rect class="cls-2" x="317.29" y="155" width="1.63" height="5.76"/><path class="cls-2" d="M323.6,159.8h-1.85l-.26,1h-1.66l2-5.77h1.78l2,5.77h-1.71Zm-.34-1.24-.58-2.07-.58,2.07Z"/><polygon class="cls-2" points="325.47 155 330.42 155 330.42 156.42 328.76 156.42 328.76 160.75 327.13 160.75 327.13 156.42 325.47 156.42 325.47 155"/><rect class="cls-2" x="331.49" y="155" width="1.63" height="5.76"/><path class="cls-2" d="M334.35,157.88a3.15,3.15,0,0,1,.72-2.2,2.59,2.59,0,0,1,2-.78,2.63,2.63,0,0,1,2,.77,3.11,3.11,0,0,1,.71,2.16,3.78,3.78,0,0,1-.31,1.66,2.3,2.3,0,0,1-.9,1,2.75,2.75,0,0,1-1.46.37,3.09,3.09,0,0,1-1.48-.32,2.31,2.31,0,0,1-1-1,3.54,3.54,0,0,1-.36-1.68m1.63,0a2,2,0,0,0,.3,1.25.93.93,0,0,0,.8.38,1,1,0,0,0,.82-.37,2.32,2.32,0,0,0,.28-1.34,1.91,1.91,0,0,0-.3-1.19,1,1,0,0,0-.81-.37.94.94,0,0,0-.79.38,2,2,0,0,0-.3,1.26"/><polygon class="cls-2" points="340.96 155 342.49 155 344.47 158.18 344.47 155 346.01 155 346.01 160.75 344.47 160.75 342.5 157.59 342.5 160.75 340.96 160.75 340.96 155"/><path class="cls-2" d="M349.87,157.88a3.15,3.15,0,0,1,.72-2.2,2.59,2.59,0,0,1,2-.78,2.65,2.65,0,0,1,2,.77,3.11,3.11,0,0,1,.71,2.16,3.78,3.78,0,0,1-.31,1.66,2.3,2.3,0,0,1-.9,1,2.76,2.76,0,0,1-1.47.37,3.08,3.08,0,0,1-1.47-.32,2.25,2.25,0,0,1-.95-1,3.54,3.54,0,0,1-.36-1.68m1.63,0a2.11,2.11,0,0,0,.29,1.25,1.06,1.06,0,0,0,1.62,0,2.31,2.31,0,0,0,.29-1.34,1.91,1.91,0,0,0-.3-1.19,1,1,0,0,0-.82-.37.92.92,0,0,0-.78.38,2,2,0,0,0-.3,1.26"/><polygon class="cls-2" points="356.48 155 360.5 155 360.5 156.24 358.11 156.24 358.11 157.24 360.16 157.24 360.16 158.41 358.11 158.41 358.11 160.75 356.48 160.75 356.48 155"/><path class="cls-2" d="M364.16,157.88a3.15,3.15,0,0,1,.72-2.2,2.59,2.59,0,0,1,2-.78,2.63,2.63,0,0,1,2,.77,3.06,3.06,0,0,1,.72,2.16,3.93,3.93,0,0,1-.31,1.66,2.3,2.3,0,0,1-.9,1,2.79,2.79,0,0,1-1.47.37,3.09,3.09,0,0,1-1.48-.32,2.29,2.29,0,0,1-.94-1,3.42,3.42,0,0,1-.37-1.68m1.63,0a2,2,0,0,0,.3,1.25,1.06,1.06,0,0,0,1.62,0,2.31,2.31,0,0,0,.29-1.34,1.91,1.91,0,0,0-.3-1.19,1,1,0,0,0-.82-.37.94.94,0,0,0-.79.38,2,2,0,0,0-.3,1.26"/><path class="cls-2" d="M370.79,160.76V155h2.71a3.5,3.5,0,0,1,1.16.14l.64.52a1.88,1.88,0,0,1,.06,1.76l-.52.57-.57.22.43.22.26.3.22.36.79,1.67h-1.84l-.87-1.76-.29-.45-.4-.13h-.14v2.34Zm1.64-3.43h.68l.43-.08.27-.18.1-.33-.16-.43-.61-.15h-.71Z"/><polygon class="cls-2" points="376.32 155 381.27 155 381.27 156.42 379.61 156.42 379.61 160.75 377.99 160.75 377.99 156.42 376.32 156.42 376.32 155"/><polygon class="cls-2" points="382.29 155 383.91 155 383.91 157.01 385.69 157.01 385.69 155 387.33 155 387.33 160.75 385.69 160.75 385.69 158.43 383.91 158.43 383.91 160.75 382.29 160.75 382.29 155"/><path class="cls-2" d="M388.47,157.88a3.15,3.15,0,0,1,.72-2.2,2.59,2.59,0,0,1,2-.78,2.63,2.63,0,0,1,2,.77,3.11,3.11,0,0,1,.71,2.16,3.78,3.78,0,0,1-.31,1.66,2.3,2.3,0,0,1-.9,1,2.75,2.75,0,0,1-1.46.37,3.09,3.09,0,0,1-1.48-.32,2.31,2.31,0,0,1-.95-1,3.54,3.54,0,0,1-.36-1.68m1.63,0a2,2,0,0,0,.3,1.25.93.93,0,0,0,.8.38,1,1,0,0,0,.82-.37,2.32,2.32,0,0,0,.28-1.34,1.91,1.91,0,0,0-.3-1.19,1,1,0,0,0-.81-.37.94.94,0,0,0-.79.38,2,2,0,0,0-.3,1.26"/><path class="cls-2" d="M395.07,155h2.7a1.76,1.76,0,0,1,1.33.46,1.81,1.81,0,0,1,.44,1.3,1.87,1.87,0,0,1-.48,1.37,2,2,0,0,1-1.47.49h-.89v2.14h-1.63Zm1.63,2.45h.4a.93.93,0,0,0,.66-.18l.19-.45-.16-.46-.62-.19h-.47Z"/><path class="cls-2" d="M403.27,159.8h-1.85l-.25,1H399.5l2-5.77h1.78l2,5.77h-1.71Zm-.34-1.24-.58-2.07-.57,2.07Z"/><polygon class="cls-2" points="406.02 155 410.38 155 410.38 156.23 407.65 156.23 407.65 157.14 410.19 157.14 410.19 158.32 407.65 158.32 407.65 159.45 410.46 159.45 410.46 160.75 406.02 160.75 406.02 155"/><path class="cls-2" d="M411.63,155h2.42a2.69,2.69,0,0,1,1.15.21l.73.61a2.68,2.68,0,0,1,.42.92,5.2,5.2,0,0,1-.06,2.55,2.38,2.38,0,0,1-.54.85l-.73.46a3.32,3.32,0,0,1-1,.16h-2.42Zm1.63,1.3v3.15h.39a1.43,1.43,0,0,0,.73-.13l.34-.43a3,3,0,0,0,.12-1,2.08,2.08,0,0,0-.27-1.25,1.09,1.09,0,0,0-.91-.34Z"/><rect class="cls-2" x="417.66" y="155" width="1.63" height="5.76"/><path class="cls-2" d="M424.24,158.4l1.42.47a2.89,2.89,0,0,1-.45,1.1l-.77.66a2.6,2.6,0,0,1-1.16.23,3.21,3.21,0,0,1-1.41-.28,2.35,2.35,0,0,1-.94-1,3.53,3.53,0,0,1-.39-1.76,3.16,3.16,0,0,1,.69-2.19,3,3,0,0,1,3.54-.33,2.61,2.61,0,0,1,.85,1.35l-1.44.35-.16-.38-.34-.32-.44-.11a.93.93,0,0,0-.85.49,2.29,2.29,0,0,0-.22,1.13,2.26,2.26,0,0,0,.27,1.31.85.85,0,0,0,.74.36.88.88,0,0,0,.71-.29,1.83,1.83,0,0,0,.35-.83"/><polygon class="cls-2" points="429.07 155 434.02 155 434.02 156.42 432.36 156.42 432.36 160.75 430.73 160.75 430.73 156.42 429.07 156.42 429.07 155"/><polygon class="cls-2" points="435.02 155 439.38 155 439.38 156.23 436.65 156.23 436.65 157.14 439.19 157.14 439.19 158.32 436.65 158.32 436.65 159.45 439.46 159.45 439.46 160.75 435.02 160.75 435.02 155"/><path class="cls-2" d="M444.12,158.4l1.42.47a2.89,2.89,0,0,1-.45,1.1l-.77.66a2.6,2.6,0,0,1-1.16.23,3.15,3.15,0,0,1-1.41-.28,2.35,2.35,0,0,1-.94-1,3.53,3.53,0,0,1-.4-1.76,3.16,3.16,0,0,1,.7-2.19,2.52,2.52,0,0,1,4.38,1l-1.44.35-.15-.38-.34-.32-.44-.11a.93.93,0,0,0-.85.49,2.18,2.18,0,0,0-.22,1.13,2.36,2.36,0,0,0,.26,1.31,1,1,0,0,0,1.46.07,1.94,1.94,0,0,0,.35-.83"/><polygon class="cls-2" points="446.61 155 448.23 155 448.23 157.01 450.01 157.01 450.01 155 451.65 155 451.65 160.75 450.01 160.75 450.01 158.43 448.23 158.43 448.23 160.75 446.61 160.75 446.61 155"/><polygon class="cls-2" points="453.01 155 454.53 155 456.51 158.18 456.51 155 458.05 155 458.05 160.75 456.51 160.75 454.54 157.59 454.54 160.75 453.01 160.75 453.01 155"/><path class="cls-2" d="M459.19,157.88a3.15,3.15,0,0,1,.72-2.2,2.59,2.59,0,0,1,2-.78,2.63,2.63,0,0,1,2,.77,3.11,3.11,0,0,1,.71,2.16,3.78,3.78,0,0,1-.31,1.66,2.3,2.3,0,0,1-.9,1,2.75,2.75,0,0,1-1.46.37,3.09,3.09,0,0,1-1.48-.32,2.31,2.31,0,0,1-.95-1,3.54,3.54,0,0,1-.36-1.68m1.63,0a2,2,0,0,0,.3,1.25.93.93,0,0,0,.8.38,1,1,0,0,0,.82-.37,2.32,2.32,0,0,0,.28-1.34,1.91,1.91,0,0,0-.3-1.19,1,1,0,0,0-.81-.37.94.94,0,0,0-.79.38,2,2,0,0,0-.3,1.26"/><polygon class="cls-2" points="465.79 155 467.42 155 467.42 159.34 469.96 159.34 469.96 160.75 465.79 160.75 465.79 155"/><path class="cls-2" d="M470.64,157.88a3.15,3.15,0,0,1,.72-2.2,2.59,2.59,0,0,1,2-.78,2.63,2.63,0,0,1,2,.77,3.11,3.11,0,0,1,.71,2.16,3.78,3.78,0,0,1-.31,1.66,2.3,2.3,0,0,1-.9,1,2.76,2.76,0,0,1-1.47.37,3.08,3.08,0,0,1-1.47-.32,2.25,2.25,0,0,1-.95-1,3.54,3.54,0,0,1-.36-1.68m1.63,0a2,2,0,0,0,.3,1.25.93.93,0,0,0,.8.38,1,1,0,0,0,.82-.37,2.32,2.32,0,0,0,.28-1.34,1.91,1.91,0,0,0-.3-1.19,1,1,0,0,0-.81-.37.94.94,0,0,0-.79.38,2,2,0,0,0-.3,1.26"/><path class="cls-2" d="M479.89,158.67v-1.2h2.52v2.46a5,5,0,0,1-1.28.73,4,4,0,0,1-1.32.19,3,3,0,0,1-1.52-.34,2.26,2.26,0,0,1-.92-1,3.6,3.6,0,0,1-.33-1.58,3.51,3.51,0,0,1,.36-1.64,2.32,2.32,0,0,1,1-1.06,3.1,3.1,0,0,1,1.44-.28,3.87,3.87,0,0,1,1.31.17l.72.54a2.53,2.53,0,0,1,.43.92l-1.57.3-.33-.49-.6-.18a1,1,0,0,0-.85.41,2.11,2.11,0,0,0-.32,1.29,2.16,2.16,0,0,0,.32,1.33,1.1,1.1,0,0,0,.9.4l.52-.08.57-.3v-.54Z"/><rect class="cls-2" x="483.71" y="155" width="1.63" height="5.76"/><path class="cls-2" d="M486.49,158.85l1.55-.11.2.63a.82.82,0,0,0,.72.35l.54-.18.19-.41-.18-.4a2,2,0,0,0-.84-.34,3.21,3.21,0,0,1-1.52-.7,1.43,1.43,0,0,1-.46-1.1l.23-.84a1.55,1.55,0,0,1,.71-.62,3.06,3.06,0,0,1,1.3-.23,2.47,2.47,0,0,1,1.53.41,1.81,1.81,0,0,1,.64,1.31l-1.54.1-.25-.57-.55-.18-.42.13-.15.32.12.25.55.21a6.67,6.67,0,0,1,1.53.51,1.61,1.61,0,0,1,.88,1.49,2,2,0,0,1-.28,1,1.78,1.78,0,0,1-.78.71,3,3,0,0,1-1.27.24,2.47,2.47,0,0,1-1.87-.56,2.34,2.34,0,0,1-.58-1.44"/><polygon class="cls-2" points="491.98 155 496.93 155 496.93 156.42 495.27 156.42 495.27 160.75 493.65 160.75 493.65 156.42 491.98 156.42 491.98 155"/><path class="cls-2" d="M497.65,158.85l1.55-.11.21.63a.82.82,0,0,0,.72.35l.53-.18.19-.41-.18-.4a2,2,0,0,0-.83-.34,3.26,3.26,0,0,1-1.53-.7,1.43,1.43,0,0,1-.46-1.1l.24-.84a1.52,1.52,0,0,1,.7-.62,3.09,3.09,0,0,1,1.3-.23,2.5,2.5,0,0,1,1.54.41,1.84,1.84,0,0,1,.63,1.31l-1.53.1-.26-.57-.54-.18-.43.13-.14.32.11.25.55.21a6.67,6.67,0,0,1,1.53.51,1.66,1.66,0,0,1,.67.64,1.73,1.73,0,0,1,.21.85,2,2,0,0,1-.27,1,1.81,1.81,0,0,1-.79.71,2.94,2.94,0,0,1-1.27.24,2.43,2.43,0,0,1-1.86-.56,2.35,2.35,0,0,1-.59-1.44"/><rect class="cls-2" x="506.31" y="155" width="1.63" height="5.76"/><polygon class="cls-2" points="509.38 155 510.9 155 512.89 158.18 512.89 155 514.42 155 514.42 160.75 512.89 160.75 510.91 157.59 510.91 160.75 509.38 160.75 509.38 155"/><polygon class="cls-2" points="518.5 155 520.12 155 520.12 157.17 521.83 155 524 155 522.08 157.17 524.08 160.75 522.08 160.75 520.97 158.39 520.12 159.35 520.12 160.75 518.5 160.75 518.5 155"/><polygon class="cls-2" points="524.88 155 529.25 155 529.25 156.23 526.51 156.23 526.51 157.14 529.05 157.14 529.05 158.32 526.51 158.32 526.51 159.45 529.33 159.45 529.33 160.75 524.88 160.75 524.88 155"/><polygon class="cls-2" points="530.48 155 532 155 533.99 158.18 533.99 155 535.52 155 535.52 160.75 533.99 160.75 532.01 157.59 532.01 160.75 530.48 160.75 530.48 155"/><polygon class="cls-2" points="536.34 155 538.14 155 539.21 156.94 540.27 155 542.07 155 540.02 158.34 540.02 160.75 538.39 160.75 538.39 158.34 536.34 155"/><path class="cls-2" d="M545.41,159.8h-1.85l-.26,1h-1.66l2-5.77h1.78l2,5.77h-1.71Zm-.34-1.24-.58-2.07-.58,2.07Z"/><rect class="cls-2" x="548.07" y="159.15" width="1.56" height="1.6"/><polygon class="cls-2" points="376.9 107.84 387.48 107.84 387.48 123.26 398.57 107.84 412.65 107.84 400.15 123.24 413.21 148.64 400.18 148.64 392.95 131.86 387.48 138.68 387.48 148.64 376.9 148.64 376.9 107.84"/><polygon class="cls-2" points="418.42 107.84 446.78 107.84 446.78 116.55 429.02 116.55 429.02 123.04 445.5 123.04 445.5 131.36 429.02 131.36 429.02 139.4 447.3 139.4 447.3 148.64 418.42 148.64 418.42 107.84"/><polygon class="cls-2" points="454.79 107.84 464.68 107.84 477.58 130.41 477.58 107.84 487.56 107.84 487.56 148.64 477.58 148.64 464.75 126.24 464.75 148.64 454.79 148.64 454.79 107.84"/><polygon class="cls-2" points="492.85 107.84 504.61 107.84 511.51 121.6 518.43 107.84 530.13 107.84 516.8 131.55 516.8 148.64 506.19 148.64 506.19 131.55 492.85 107.84"/><path class="cls-2" d="M551.81,141.9h-12l-1.67,6.74h-10.8l12.87-40.8h11.55l12.87,40.8H553.52Zm-2.19-8.82-3.79-14.66-3.74,14.66Z"/></svg>