<svg id="Layer_1" data-name="Layer 1" xmlns="http://www.w3.org/2000/svg" viewBox="0 0 245.33 239.63"><defs><style>.cls-1{fill:#2b2422;}.cls-2{fill:#374393;}.cls-3{fill:#ee753f;}.cls-4{fill:#34ad6e;}.cls-5{fill:#31ac73;}.cls-6{fill:#12100b;}</style></defs><path class="cls-1" d="M66.6,120.08a58.31,58.31,0,1,1,95.89,44.52h2.81a60.15,60.15,0,1,0-80.78,0h2.8A58.19,58.19,0,0,1,66.6,120.08"/><path class="cls-1" d="M46.93,116.14A78,78,0,1,1,184.19,166.7v2.82A79.81,79.81,0,1,0,61.54,164.6h2.35a77.58,77.58,0,0,1-17-48.46"/><path class="cls-2" d="M71.3,162l25.62,12.56L109,173.26,120.58,171s4.15-2.68,10.25-.61c0,0,8.63,4,14,2.18l33.82-11.48-2.87,17.67-33.36,3.35s-7.71-5.52-16.55-5.17c0,0-8.6,1.76-11.36,2.3a39.23,39.23,0,0,0-5.28.45c-.88.13-36.85-.19-38-.57-3.81-1.32,0-17.13,0-17.13"/><path class="cls-2" d="M142,184.41l-3.94-3.2-9.55-2.32S121,178,115.22,181c0,0-.69,0-6.1.62s-.57,0-.57,0l2,8.11,4-2.87s12.39-5.17,21.47.23Z"/><path class="cls-2" d="M113.26,190.1l2.16-1.46a22.15,22.15,0,0,1,19.14,0L133,195s-5.49-4.83-16-.85Z"/><path class="cls-2" d="M117.64,197c.2-.11,4.93-4.74,13-1.26l-3.22,7.6-4.89.45Z"/><path class="cls-3" d="M163.62,119.13c0-.53,0-1,0-1.57l12-2.17L174,106.5l-11.83,2a40.41,40.41,0,0,0-1.41-4.1l9.94-6.2-4.4-7.62-9.84,6.06a38.73,38.73,0,0,0-3.08-3.8l7.1-8.66-7.16-5.88c-.1-.11-4.61,6.16-6.62,8.78a38,38,0,0,0-4.41-2.59L145.74,74,137.47,71,134,81.49a39.1,39.1,0,0,0-4.76-.83V69.88s-7.73-.26-8.16-.34-.14,8.09,0,11.07a37.82,37.82,0,0,0-4.91.82l-3.44-10.32L103.88,74s2.43,7.13,3.61,10.57c-1.21.62-2.37,1.28-3.51,2l-7.67-8.33-6.86,6.12,7.45,8.07a37,37,0,0,0-3.18,3.78l-10-5.67-4.65,8.24,10.13,5.36a37.25,37.25,0,0,0-1.52,4.35L76,106.5l-2,9,12.16,2.09c0,.52,0,1,0,1.58,0,.81,0,1.62.08,2.42h0L74.07,123.7,75.58,133l12.56-1.78,2.83-.4,4.39-1a31.43,31.43,0,0,1-1.86-9.65c0-.37,0-.74,0-1.12a31.44,31.44,0,0,1,62.88,0c0,.68,0,1.36-.08,2s-1.61,7.93-1.7,8.39v.05l7.24,1.26L174.33,133l1.21-9.19s-6.58-1-12-1.78c.07-1,.12-1.95.12-2.94"/><path class="cls-4" d="M115.76,113.18a3.46,3.46,0,0,1-1.13-1.61l-.08-.57a1,1,0,0,1,.64-.73,3.28,3.28,0,0,1,1-.19,10.29,10.29,0,0,0,3.59-.88,4.52,4.52,0,0,0,2.42-2.69l.46.42.11.64a31.24,31.24,0,0,1-.39,6.89,3.55,3.55,0,0,1-.29,1.06,1.28,1.28,0,0,1-.82.69,1.87,1.87,0,0,1-1.28-.41l-.48-.29-.53-.32-1-.64a12.93,12.93,0,0,1-1.91-1.27"/><path class="cls-4" d="M115,124s4.52-3.2,5.35-4.93c0,0,.93-1.17-.65-2.13,0,0-5.23-3.28-6.28-2.47,0,0-1.9.76.21,4a10,10,0,0,1,.51,3.6s-.32,2.45.86,1.91"/><path class="cls-4" d="M120.08,121.36c.12-.33.21-.68.31-1l.17-.55.53-.34.58,0,.24.17.22.21.38.06.36,0h.9a14.08,14.08,0,0,1,1.59,0h0l0,0,.4.86.81,1.79.35.78.21.61a6.84,6.84,0,0,1,0,1c0,.32,0,.66,0,1l0,.39,0,.34-.17.32-.37.54-.58.51-.06,0-.19,0-.53-.15a5.23,5.23,0,0,1-1-.45l-.46-.28-.44-.25-.42-.09a1.84,1.84,0,0,0-1.32.24l-.52.22a6.48,6.48,0,0,1-1.08.1,4.34,4.34,0,0,1-1.19-.08,1.25,1.25,0,0,1-.83-.48l0-.86.35-.74.75-1.64.75-1.63.24-.54Z"/><path class="cls-4" d="M130.09,125.75a3.31,3.31,0,0,0,2.21-3.36l0-6.35s-5.19-1-5.88,2.18c-.06.26-1.21,2.27,1.78,5.46,0,0,1.14,2.13,1.86,2.07"/><path class="cls-4" d="M126.91,115.9a16.18,16.18,0,0,0,2.89-1.06,8,8,0,0,0,2.46-1.42,1.76,1.76,0,0,0-.16-2.37,7.26,7.26,0,0,0-2.08-1.27,19.74,19.74,0,0,0-2.31-.49,4,4,0,0,1-.89-.34,1.27,1.27,0,0,1-.6-.73l.11.43-.29-.91s-1-.61-1.24.86a9.53,9.53,0,0,0-.19,4.88s.66,2.83,2.3,2.42"/><path class="cls-4" d="M124.8,116.83l.11,1-.92,1h-1.47l-.7-.54-.27-1s.11-.11.42-.48a8.9,8.9,0,0,1,1.26-.93l1.11.32Z"/><polygon class="cls-5" points="113.66 163.05 113.94 163.08 114.13 163.07 113.66 163.05"/><path class="cls-4" d="M155.62,157.29l-1.24-1-2.66-2.17-.62-.51a15.41,15.41,0,0,0-7.69-3.92s-9.39-2-10-2.44a15.15,15.15,0,0,1-8-9.39,3.1,3.1,0,0,1,1.59-3.5,1,1,0,0,1,1.43.53,3.33,3.33,0,0,1,.36.92c.12.48-.08,1.07.31,1.45a1.61,1.61,0,0,0,1.37.24,4.68,4.68,0,0,0,1.89-.81,12.5,12.5,0,0,0,4.93-8.74,9.35,9.35,0,0,0-.1-2.18l-.28.59a4.22,4.22,0,0,1-1.1,1.24c-1.46,1.12-3.3,1-5,.63a3.06,3.06,0,0,0-2.09.13,3.19,3.19,0,0,0-1.52,2,6.82,6.82,0,0,0-.31,1.26l-.07.73,0,.86-1,.69s-1.12.94-1.46,0c0,0,1.47-4.62-1.83-4.88,0,0-2.72,2.17-1,4.88l-1,.27-.94-.48v-1.38s-.42-3.29-5.62-2.71a4.55,4.55,0,0,1-3.5-3.81s-2.34,8.22,5.2,12.09c0,0,1,.1,3-2.44,0,0,.75-1,1.33.58a22.65,22.65,0,0,1,1,2.6,6.17,6.17,0,0,1,.49,2.68c-.15.92-1.23,1.41-2,1.78a16.46,16.46,0,0,1-2.13.88,9.5,9.5,0,0,0-2.19.77c-1.27.75-1.68,2.14-2.62,3.17a6.93,6.93,0,0,1-3,1.87,6.29,6.29,0,0,1-1.77.33,5,5,0,0,0-1.88.24,15,15,0,0,0-2.34,1.24c-.81.48-1.65.91-2.46,1.39a55.75,55.75,0,0,0-6.76,4.43,9.79,9.79,0,0,0-1.59,1.43c-.49.63-.64.82-.65,1l.22.09h1l2.19.07.9,0h.42l.33.11.36.16.76.16a11.82,11.82,0,0,0,1.33,0c.33,0,.67,0,1,0,.68,0,1.35.08,2,.14l2.11.17c.57,0,1.14,0,1.7.12a7.29,7.29,0,0,1,1.52.49c1,.4,2.07.86,3.14,1.21l.67.2a6.2,6.2,0,0,0,2.13.29l-.28,0,.47,0h-.19a11,11,0,0,0,4.5-.59q1.09-.33,2.16-.75c.53-.21,1-.45,1.57-.68a13.78,13.78,0,0,1,1.54-.49A18.93,18.93,0,0,1,127,160a12.9,12.9,0,0,1,6.31.8,14.85,14.85,0,0,0,6.5,1,34.56,34.56,0,0,0,6.87-.88c.74-.16,1.48-.34,2.21-.55a57.16,57.16,0,0,0,6.5-2.21l.91-.38Zm-32.94-8.24-.61.1-.74-.09a2.43,2.43,0,0,1-1.08-1.37,3.08,3.08,0,0,1-.15-1.7,2.51,2.51,0,0,1,.83-1.31l.7-.35h.91v.31c0,.55.07,1.09.12,1.64a9.52,9.52,0,0,1,0,1.51,5.18,5.18,0,0,0,0,1Zm5.08-3.37a2.71,2.71,0,0,0-.27.92,7.79,7.79,0,0,0,0,1.08,1.54,1.54,0,0,1-.24,1l-.69.41c-.7.25-1.81.5-2.09-.44a5.09,5.09,0,0,1-.36-3.07,7.09,7.09,0,0,1,.8-1.42l.62-.84c.13-.08.52-.53.86-.35.7.38.76,1.17,1.07,1.81l.3.56,0,.15Zm3,3.34,0,.16-.18.08a2.64,2.64,0,0,1-1.31-.06c-.9-.31-.58-.76-.62-.83l.39-.85c.34-.28.86-.24,1.08-.7l0-.08.16-.2.31.21.13.78a1.3,1.3,0,0,1,.15.82Z"/><path class="cls-6" d="M190,142.47v.37a22.91,22.91,0,0,0,.26-2.48c0-.81,0-2.43-1-2.7-.68-.18-1.4.44-1.9.82a8.72,8.72,0,0,0-1.78,1.86c-.69,1-1.2,2-1.81,3.07-.74,1.26-1.49,2.51-2.24,3.77l-.45.77-.49.82c-.32.55-.65,1.1-1,1.65a10.33,10.33,0,0,1-1.32,2.16,12.43,12.43,0,0,1-2.14,1.6,26.49,26.49,0,0,1-4.76,2.6c-.76.3-1.53.63-2.29.94-2.23.93-4.45,1.86-6.67,2.82-2.37,1-4.73,2-7.07,3.12a33.79,33.79,0,0,0-4.53,2.3s-5.18,2.76-7.7,7.3c0,0-17.21,26.77-18.92,30.16v.26l7.68,7.45,18.38-12.39s6-3.56,9.88-3.4c0,0,18.05-2.43,23-15.06,0,0,7-18.45,6.89-31.13h-2.6v-1.53c0-.52,0-1.05,0-1.58,0-1.06,0-2.11.06-3.17a8.15,8.15,0,0,1,.33-2.56c.19-.48.52-1.21,1.08-1.36h.37l.45.6a9.14,9.14,0,0,1,.32,2.91m-14.47,23.26s-.2,7.42-2.9,9.46c0,0-2.44,2.55-12.9,2.78,0,0-.69-.71,2.47-3.6l12.55-10.3s1-.43.78,1.66"/><path class="cls-6" d="M58.24,142.47v.37a20.66,20.66,0,0,1-.27-2.48c0-.81,0-2.43,1-2.7.69-.18,1.41.44,1.9.82a8.48,8.48,0,0,1,1.78,1.86c.69,1,1.2,2,1.81,3.07l2.24,3.77.45.77.49.82,1,1.65A10.33,10.33,0,0,0,70,152.58a12.83,12.83,0,0,0,2.14,1.6,26.49,26.49,0,0,0,4.76,2.6c.77.3,1.53.63,2.29.94,2.23.93,4.45,1.86,6.67,2.82s4.73,2,7.07,3.12a34.52,34.52,0,0,1,4.54,2.3s5.17,2.76,7.69,7.3c0,0,17.21,26.77,18.92,30.16v.26l-7.68,7.45L98,198.74s-6-3.56-9.87-3.4c0,0-18.06-2.43-23-15.06,0,0-7-18.45-6.88-31.13h2.59V146c0-1.06,0-2.11-.06-3.17a8.15,8.15,0,0,0-.33-2.56c-.19-.48-.52-1.21-1.08-1.36H59l-.45.6a9.14,9.14,0,0,0-.32,2.91m14.47,23.26s.2,7.42,2.91,9.46c0,0,2.44,2.55,12.89,2.78,0,0,.69-.71-2.47-3.6l-12.55-10.3s-1-.43-.78,1.66"/><polygon class="cls-1" points="52.55 133.04 53.38 132.88 53.81 135.15 59.95 133.97 60.13 134.9 53.99 136.08 54.43 138.35 53.6 138.51 52.55 133.04"/><polygon class="cls-1" points="52.31 131.31 52.22 130.37 55.14 130.1 54.81 126.59 51.89 126.86 51.8 125.92 58.86 125.26 58.95 126.2 55.65 126.51 55.98 130.02 59.28 129.71 59.37 130.65 52.31 131.31"/><polygon class="cls-1" points="51.69 123.4 51.77 118.42 52.64 118.43 52.57 122.5 54.73 122.54 54.79 118.77 55.6 118.79 55.55 122.55 57.95 122.59 58.02 118.44 58.86 118.46 58.78 123.51 51.69 123.4"/><polygon class="cls-1" points="52.59 109.86 52.76 108.97 56.17 109.61 53.4 105.59 53.64 104.31 55.91 107.73 60.62 105.58 60.4 106.78 56.43 108.53 57.3 109.83 59.73 110.29 59.55 111.18 52.59 109.86"/><polygon class="cls-1" points="54.09 102.66 55.49 97.88 56.32 98.13 55.17 102.04 57.24 102.64 58.3 99.03 59.09 99.26 58.03 102.88 60.33 103.55 61.5 99.57 62.31 99.81 60.89 104.66 54.09 102.66"/><polygon class="cls-1" points="56.21 95.8 56.62 94.78 63.23 93.78 57.92 91.61 58.26 90.79 64.82 93.47 64.43 94.44 57.81 95.49 63.11 97.66 62.78 98.48 56.21 95.8"/><polygon class="cls-1" points="59.04 89.08 59.55 88.13 63.48 87.99 61.4 84.64 61.92 83.68 64.43 87.96 66.95 89.31 66.52 90.13 63.99 88.78 59.04 89.08"/><path class="cls-1" d="M63.49,81.24l.57-.88,7.31,1.78-.56.85-2.17-.56-1.47,2.26,1.38,1.79-.52.8Zm4.35,1-3.2-.82,2,2.63Z"/><path class="cls-1" d="M74.1,75.15a2,2,0,0,0,.9.47A1.7,1.7,0,0,0,76.59,75l.51-.77a1.08,1.08,0,0,0-.23-1.32L76,72.55a3.44,3.44,0,0,0-1.05.5l-.77.51a4,4,0,0,1-1.2.59,1.53,1.53,0,0,1-1.4-.45,2.09,2.09,0,0,1-.72-1.53,2.43,2.43,0,0,1,.76-1.71,3,3,0,0,1,1.62-.93,2,2,0,0,1,1.76.65l-.6.63a2.1,2.1,0,0,0-.83-.39,1.65,1.65,0,0,0-1.36.63,1.49,1.49,0,0,0-.51,1.07,1.17,1.17,0,0,0,.36.82l.84.23a5.77,5.77,0,0,0,1.11-.62l.8-.52a2.94,2.94,0,0,1,1-.46,1.76,1.76,0,0,1,1.49.53,1.83,1.83,0,0,1,.67,1.75,3.5,3.5,0,0,1-.92,1.72,2.7,2.7,0,0,1-1.83,1,2.34,2.34,0,0,1-1.8-.74Z"/><path class="cls-1" d="M80.23,64.11a4,4,0,0,1,2.09,1.38A4.31,4.31,0,0,1,83.45,68a3.07,3.07,0,0,1-1.18,2.64,3.11,3.11,0,0,1-2.59.8A4.19,4.19,0,0,1,77.35,70a4.23,4.23,0,0,1-1.08-2.32A3,3,0,0,1,77.41,65a3.09,3.09,0,0,1,2.82-.84m2.33,4a4,4,0,0,0-1-2A3,3,0,0,0,79.82,65a2.12,2.12,0,0,0-1.81.55,2.21,2.21,0,0,0-.83,1.71,3.28,3.28,0,0,0,.94,2.13,3.38,3.38,0,0,0,1.73,1.13,2.12,2.12,0,0,0,2-.61,1.92,1.92,0,0,0,.76-1.84"/><path class="cls-1" d="M86,59.37a2.51,2.51,0,0,1,1.56.89l-.75.51a2,2,0,0,0-1.11-.56,1.87,1.87,0,0,0-1.27.38,2,2,0,0,0-.91,1.52,4.2,4.2,0,0,0,2.36,3.57,1.9,1.9,0,0,0,1.8-.29,1.72,1.72,0,0,0,.81-1.54,3.22,3.22,0,0,0-.29-1.17l.75-.51a3.35,3.35,0,0,1,.4,2A3,3,0,0,1,86,66.65a4.76,4.76,0,0,1-3.39-4.5A2.84,2.84,0,0,1,84,59.91,2.69,2.69,0,0,1,86,59.37"/><polygon class="cls-1" points="88.35 57.39 89.16 56.92 92.7 63.07 91.89 63.54 88.35 57.39"/><polygon class="cls-1" points="91.2 55.77 95.69 53.61 96.06 54.39 92.39 56.16 93.33 58.1 96.72 56.47 97.08 57.21 93.69 58.84 94.73 61.01 98.47 59.2 98.83 59.97 94.28 62.16 91.2 55.77"/><polygon class="cls-1" points="102.4 51.05 102.69 51.84 100.52 52.64 102.67 58.51 101.79 58.83 99.63 52.97 97.46 53.76 97.17 52.97 102.4 51.05"/><polygon class="cls-1" points="103.55 50.68 104.6 50.41 107.36 53.21 108.42 49.42 109.48 49.14 108.02 53.89 108.74 56.66 107.84 56.89 107.13 54.13 103.55 50.68"/><path class="cls-1" d="M126.33,48.6a4.07,4.07,0,0,1,.72,2.4,4.36,4.36,0,0,1-.74,2.65,3.39,3.39,0,0,1-5.1.24,4.14,4.14,0,0,1-.85-2.62,4.28,4.28,0,0,1,.65-2.48,3,3,0,0,1,2.6-1.35,3.1,3.1,0,0,1,2.72,1.16m-.75,4.53a3.94,3.94,0,0,0,.51-2.1,3,3,0,0,0-.66-2,2.12,2.12,0,0,0-1.75-.74,2.18,2.18,0,0,0-1.72.79,3.2,3.2,0,0,0-.64,2.23,3.4,3.4,0,0,0,.61,2,2.11,2.11,0,0,0,1.89.78,1.91,1.91,0,0,0,1.76-.94"/><polygon class="cls-1" points="129.11 47.73 133.85 48.17 133.77 49.03 129.95 48.69 129.76 50.83 133.11 51.14 133.03 51.98 129.68 51.67 129.38 54.88 128.46 54.8 129.11 47.73"/><path class="cls-1" d="M142.19,49.77l2.95.84a2.09,2.09,0,0,1,1.27.92,2,2,0,0,1,.12,1.6,2.18,2.18,0,0,1-.88,1.25,1.86,1.86,0,0,1-1.64.17L142,54l-.83,2.88-.89-.26Zm3.2,1.93a2,2,0,0,0-.77-.38l-1.76-.5-.68,2.36,1.76.5a1.72,1.72,0,0,0,1.05,0,1.1,1.1,0,0,0,.64-.83,1.08,1.08,0,0,0-.24-1.17"/><polygon class="cls-1" points="149.11 51.88 149.98 52.23 148.88 54.95 152.15 56.27 153.25 53.56 154.12 53.91 151.45 60.48 150.58 60.13 151.83 57.05 148.56 55.73 147.31 58.8 146.44 58.45 149.11 51.88"/><polygon class="cls-1" points="155.81 54.69 156.77 55.2 156.9 59.13 160.25 57.06 161.21 57.57 156.93 60.08 155.58 62.6 154.76 62.16 156.1 59.64 155.81 54.69"/><path class="cls-1" d="M160.48,62.8a2,2,0,0,0-.33,1,1.71,1.71,0,0,0,.91,1.46l.85.39a1.1,1.1,0,0,0,1.27-.44,1,1,0,0,0,.17-.88,3.27,3.27,0,0,0-.66-1l-.62-.68a4,4,0,0,1-.78-1.09,1.49,1.49,0,0,1,.21-1.45,2.13,2.13,0,0,1,1.4-1,2.37,2.37,0,0,1,1.8.48,2.9,2.9,0,0,1,1.18,1.44,2,2,0,0,1-.35,1.84l-.72-.49a2,2,0,0,0,.25-.89,1.61,1.61,0,0,0-.84-1.23,1.54,1.54,0,0,0-1.14-.33,1.13,1.13,0,0,0-.75.49l-.09.87a6.34,6.34,0,0,0,.79,1l.65.71a2.69,2.69,0,0,1,.61,1,1.68,1.68,0,0,1-.28,1.55,1.84,1.84,0,0,1-1.61.95,3.45,3.45,0,0,1-1.84-.63,2.71,2.71,0,0,1-1.25-1.64,2.4,2.4,0,0,1,.44-1.91Z"/><polygon class="cls-1" points="168.64 62.69 169.38 63.27 165.02 68.86 164.28 68.28 168.64 62.69"/><path class="cls-1" d="M174.67,69.25a3.94,3.94,0,0,1-1.13,2.23,4.32,4.32,0,0,1-2.36,1.42,3.09,3.09,0,0,1-2.76-.85,3.13,3.13,0,0,1-1.1-2.49,4.19,4.19,0,0,1,1.19-2.49,4.28,4.28,0,0,1,2.17-1.34,2.93,2.93,0,0,1,2.82.81,3.07,3.07,0,0,1,1.17,2.71M171,72a4,4,0,0,0,1.82-1.17,3.13,3.13,0,0,0,.9-1.91,2.13,2.13,0,0,0-.76-1.73,2.24,2.24,0,0,0-1.8-.63,3.3,3.3,0,0,0-2,1.19,3.35,3.35,0,0,0-.92,1.86,2.15,2.15,0,0,0,.83,1.86A1.91,1.91,0,0,0,171,72"/><polygon class="cls-1" points="180.53 74.16 179.9 74.72 178.37 72.99 173.69 77.14 173.07 76.44 177.74 72.28 176.21 70.56 176.84 70 180.53 74.16"/><polygon class="cls-1" points="181.64 75.55 182.2 76.31 179.82 78.03 181.9 80.89 184.27 79.16 184.82 79.92 179.08 84.09 178.53 83.33 181.21 81.38 179.14 78.52 176.46 80.47 175.91 79.72 181.64 75.55"/><polygon class="cls-1" points="186.15 81.99 188.65 86.3 187.9 86.73 185.85 83.21 183.99 84.29 185.88 87.55 185.17 87.96 183.28 84.7 181.2 85.91 183.28 89.5 182.55 89.92 180.01 85.55 186.15 81.99"/><path class="cls-1" d="M189.72,88.37,191,91.21a3,3,0,0,1,.31,1.26A1.68,1.68,0,0,1,190.17,94a1.89,1.89,0,0,1-1,.2,1.85,1.85,0,0,1-.89-.38l-.16.73a1.54,1.54,0,0,1-.72.58l-.85.42-.52.31-.27.45-.15.06-.47-1,.19-.16.49-.27,1-.54a1,1,0,0,0,.65-.83,1.85,1.85,0,0,0-.21-.79l-.85-1.88-2.77,1.26-.39-.85ZM188,92.46a1.69,1.69,0,0,0,.66.8,1.14,1.14,0,0,0,1-.06,1.08,1.08,0,0,0,.73-.9l-.17-.73-.91-2-2.21,1Z"/><path class="cls-1" d="M193.41,97.35l.33,1L187.8,103l-.32-1,1.79-1.35-.86-2.56-2.25,0-.3-.9Zm-3.49,2.79,2.64-2-3.32-.05Z"/><path class="cls-1" d="M195,102.45l.69,3a2,2,0,0,1-.2,1.55,1.91,1.91,0,0,1-1.33.88,2.2,2.2,0,0,1-1.52-.16,1.85,1.85,0,0,1-.94-1.36l-.48-2.09-2.92.67-.21-.9Zm-.15,3.74a1.8,1.8,0,0,0,0-.85l-.41-1.8-2.39.55.41,1.79a1.76,1.76,0,0,0,.49.93,1.12,1.12,0,0,0,1,.16,1.07,1.07,0,0,0,.91-.78"/><polygon class="cls-1" points="196.44 109.52 196.58 110.45 189.57 111.54 189.43 110.62 196.44 109.52"/><path class="cls-1" d="M192.18,113.7a2.05,2.05,0,0,0-1,.34,1.71,1.71,0,0,0-.57,1.63,2.59,2.59,0,0,0,.23.9,1.09,1.09,0,0,0,1.14.71,1,1,0,0,0,.79-.41,3.35,3.35,0,0,0,.33-1.11l.14-.91a3.92,3.92,0,0,1,.36-1.29,1.5,1.5,0,0,1,1.27-.74,2.15,2.15,0,0,1,1.62.49,2.44,2.44,0,0,1,.76,1.7,3.06,3.06,0,0,1-.39,1.83,2,2,0,0,1-1.65.88l-.08-.87a1.82,1.82,0,0,0,.85-.37,1.56,1.56,0,0,0,.43-1.42A1.49,1.49,0,0,0,196,114a1.17,1.17,0,0,0-.85-.28.84.84,0,0,0-.73.47,5.64,5.64,0,0,0-.28,1.24l-.15,1a2.63,2.63,0,0,1-.36,1.07,1.68,1.68,0,0,1-1.39.76,1.81,1.81,0,0,1-1.74-.66,3.4,3.4,0,0,1-.66-1.83,2.68,2.68,0,0,1,.5-2,2.33,2.33,0,0,1,1.76-.84Z"/><polygon class="cls-1" points="197.35 124.94 196.5 124.92 196.54 122.61 190.29 122.51 190.31 121.57 196.56 121.67 196.59 119.36 197.44 119.37 197.35 124.94"/><path class="cls-1" d="M192.43,126.7a2,2,0,0,0-1,.17,1.72,1.72,0,0,0-.86,1.49,2.56,2.56,0,0,0,.07.93,1.07,1.07,0,0,0,1,.9,1,1,0,0,0,.86-.25,3.24,3.24,0,0,0,.52-1l.31-.88a3.89,3.89,0,0,1,.59-1.2,1.53,1.53,0,0,1,1.38-.49,2.1,2.1,0,0,1,1.5.77,2.42,2.42,0,0,1,.44,1.82,2.93,2.93,0,0,1-.72,1.72,2,2,0,0,1-1.78.56l.08-.87a1.82,1.82,0,0,0,.9-.2,1.57,1.57,0,0,0,.69-1.32,1.49,1.49,0,0,0-.24-1.16,1.15,1.15,0,0,0-.79-.43.83.83,0,0,0-.8.33,6,6,0,0,0-.51,1.17l-.31.9a2.83,2.83,0,0,1-.55,1,1.73,1.73,0,0,1-1.5.49,1.82,1.82,0,0,1-1.6-1,3.5,3.5,0,0,1-.32-1.92,2.7,2.7,0,0,1,.87-1.88,2.37,2.37,0,0,1,1.88-.51Z"/></svg>